<svg xmlns="http://www.w3.org/2000/svg"><defs><font horiz-adv-x="0" id="font"><font-face ascent="972" bbox="-114 -333 1474 959" cap-height="700" descent="-226" font-family="Honeywell Sans Web" font-style="normal" font-weight="800" x-height="497"/><glyph d="M0 0z" glyph-name=".ttfautohint" horiz-adv-x="411"/><glyph d="M341 541l-97-306h194zM512 0l-36 110H206L171 0H8l237 700h198L680 0z" glyph-name="A" horiz-adv-x="688" unicode="A"/><glyph d="M345 537l-99-302h195zM514 0l-35 110H205L169 0H8l248 700h694V571H496l50-153h353V288H590l52-159h318V0z" glyph-name="AE" horiz-adv-x="1004" unicode="Æ"/><glyph d="M8 0zm333 541l-97-306h194zM512 0l-36 110H206L171 0H8l237 700h198L680 0zm12 902L395 775H273v5l81 128h170z" glyph-name="Aacute" horiz-adv-x="688" unicode="Á"/><glyph d="M8 0zm333 541l-97-306h194zM512 0l-36 110H206L171 0H8l237 700h198L680 0zm-93 907h97q0-40-11.5-67T471 797q-22-16-54-23t-72-7q-41 0-72.5 7T219 797q-22 16-33.5 43T174 907h97q0-36 18-49t56-13q38 0 56 13t18 49z" glyph-name="Abreve" horiz-adv-x="688" unicode="Ă"/><glyph d="M8 0zm333 541l-97-306h194zM512 0l-36 110H206L171 0H8l237 700h198L680 0zM344 832l-61-58H158v4l123 129h131l125-129v-4H405z" glyph-name="Acircumflex" horiz-adv-x="688" unicode="Â"/><glyph d="M8 0zm333 541l-97-306h194zM512 0l-36 110H206L171 0H8l237 700h198L680 0zM367 848q0 38 22 56t62 18q40 0 61.5-18t21.5-56q0-38-21.5-56.5T451 773q-40 0-62 18.5T367 848zm-210 0q0 38 22 56t61 18q40 0 61.5-18t21.5-56q0-38-21.5-56.5T240 773q-39 0-61 18.5T157 848z" glyph-name="Adieresis" horiz-adv-x="688" unicode="Ä"/><glyph d="M8 0zm333 541l-97-306h194zM512 0l-36 110H206L171 0H8l237 700h198L680 0zM295 775L166 902v6h174l79-128v-5z" glyph-name="Agrave" horiz-adv-x="688" unicode="À"/><glyph d="M8 0zm333 541l-97-306h194zM512 0l-36 110H206L171 0H8l237 700h198L680 0zm-22 880v-87H201v87z" glyph-name="Amacron" horiz-adv-x="688" unicode="Ā"/><glyph d="M505 17l-29 93H206L171 0H8l237 700h198L680 0h-61q-48-4-69.5-31T528-90q0-29 18.5-40t44.5-11q18 0 35.5 4t32.5 13l22-78q-44-27-101-27-27 0-52.5 6t-46 20.5q-20.5 14.5-33 38T436-105q0 43 20 73.5T505 17zM341 541l-97-306h194z" glyph-name="Aogonek" horiz-adv-x="688" unicode="Ą"/><glyph d="M8 0zm333 541l-97-306h194zM512 0l-36 110H206L171 0H8l237 700h198L680 0zM230 856q0 50 32.5 76.5T345 959q50 0 82-26.5t32-76.5q0-51-32-77.5T344 752q-49 0-81.5 26.5T230 856zm70 0q0-21 12-33.5t32-12.5q20 0 33 12.5t13 33.5q0 21-12.5 33T345 901q-20 0-32.5-12T300 856z" glyph-name="Aring" horiz-adv-x="688" unicode="Å"/><glyph d="M8 0zm333 541l-97-306h194zM512 0l-36 110H206L171 0H8l237 700h198L680 0zm-80 903h95q3-35-6-58.5T497 807q-15-14-34-20t-38-6q-23 0-42 5.5T347 798q-17 6-32 11.5t-29 5.5q-17 0-22.5-10.5T258 781h-95q-2 35 6.5 58.5t23.5 38q15 14.5 34 20.5t38 6q23 0 42-5.5t36-12q17-6.5 32-12t29-5.5q18 0 23 10t5 24z" glyph-name="Atilde" horiz-adv-x="688" unicode="Ã"/><glyph d="M93 0v700h348q55 0 94-13.5t64.5-38q25.5-24.5 37.5-59t12-75.5q0-52-24.5-90.5T556 366q29-8 50-24.5t34.5-38.5q13.5-22 19.5-48.5t6-53.5Q666 0 431 0zm315 578H251V412h154q45 0 65.5 24t20.5 59q0 41-22.5 62T408 578zm7-286H251V120h159q49 0 72.5 23t23.5 66q0 38-21.5 60.5T415 292z" glyph-name="B" horiz-adv-x="711" unicode="B"/><glyph d="M393-14q-171 0-253.5 88.5T57 351q0 191 85.5 277T398 714q106 0 174.5-36.5T676 556l-131-68q-24 52-58 71.5T397 579q-42 0-74.5-10.5t-55-37q-22.5-26.5-34-71T222 349q0-67 11.5-111.5t34-71.5q22.5-27 55.5-38t75-11q54 0 93 22.5t63 76.5l131-65Q647 69 576 27.5T393-14z" glyph-name="C" horiz-adv-x="709" unicode="C"/><glyph glyph-name="CR" horiz-adv-x="176"/><glyph d="M57 0zm520 902L448 775H326v5l81 128h170zM393-14q-171 0-253.5 88.5T57 351q0 191 85.5 277T398 714q106 0 174.5-36.5T676 556l-131-68q-24 52-58 71.5T397 579q-42 0-74.5-10.5t-55-37q-22.5-26.5-34-71T222 349q0-67 11.5-111.5t34-71.5q22.5-27 55.5-38t75-11q54 0 93 22.5t63 76.5l131-65Q647 69 576 27.5T393-14z" glyph-name="Cacute" horiz-adv-x="709" unicode="Ć"/><glyph d="M57 0zm346 851l62 57h124v-2L465 775H334L210 906v2h131zM393-14q-171 0-253.5 88.5T57 351q0 191 85.5 277T398 714q106 0 174.5-36.5T676 556l-131-68q-24 52-58 71.5T397 579q-42 0-74.5-10.5t-55-37q-22.5-26.5-34-71T222 349q0-67 11.5-111.5t34-71.5q22.5-27 55.5-38t75-11q54 0 93 22.5t63 76.5l131-65Q647 69 576 27.5T393-14z" glyph-name="Ccaron" horiz-adv-x="709" unicode="Č"/><glyph d="M391-251q-45 0-82 17t-59 52l54 55q15-23 33.5-35.5T385-175q21 0 35.5 8.5T435-139q0 17-14 27t-39 10q-6 0-11.5-.5T359-104l-23 15 25 76Q206-6 131.5 83T57 351q0 191 85.5 277T398 714q106 0 174.5-36.5T676 556l-131-68q-24 52-58 71.5T397 579q-42 0-74.5-10.5t-55-37q-22.5-26.5-34-71T222 349q0-67 11.5-111.5t34-71.5q22.5-27 55.5-38t75-11q54 0 93 22.5t63 76.5l131-65q-34-73-93.5-114T441-12l-14-38h1q20-2 38.5-8T499-75.5q14-11.5 22.5-28T530-142q0-28-11.5-48.5t-30.5-34q-19-13.5-44-20t-53-6.5z" glyph-name="Ccedilla" horiz-adv-x="709" unicode="Ç"/><glyph d="M57 0zm340 833l-61-58H211v4l123 129h131l125-129v-4H458zm-4-847q-171 0-253.5 88.5T57 351q0 191 85.5 277T398 714q106 0 174.5-36.5T676 556l-131-68q-24 52-58 71.5T397 579q-42 0-74.5-10.5t-55-37q-22.5-26.5-34-71T222 349q0-67 11.5-111.5t34-71.5q22.5-27 55.5-38t75-11q54 0 93 22.5t63 76.5l131-65Q647 69 576 27.5T393-14z" glyph-name="Ccircumflex" horiz-adv-x="709" unicode="Ĉ"/><glyph d="M57 0zm336-14q-171 0-253.5 88.5T57 351q0 191 85.5 277T398 714q106 0 174.5-36.5T676 556l-131-68q-24 52-58 71.5T397 579q-42 0-74.5-10.5t-55-37q-22.5-26.5-34-71T222 349q0-67 11.5-111.5t34-71.5q22.5-27 55.5-38t75-11q54 0 93 22.5t63 76.5l131-65Q647 69 576 27.5T393-14zm-82 863q0 38 23 56.5t65 18.5q42 0 64-18.5t22-56.5q0-38-22-56.5T399 774q-42 0-65 18.5T311 849z" glyph-name="Cdotaccent" horiz-adv-x="709" unicode="Ċ"/><glyph d="M383 0H93v700h301q163 0 240.5-83.5T712 355q0-177-80.5-266T383 0zM257 132h114q40 0 73 11t55.5 37q22.5 26 35 68T547 352q0 115-41.5 165.5T385 568H257z" glyph-name="D" horiz-adv-x="767" unicode="D"/><glyph d="M93 0zm308 851l62 57h124v-2L463 775H332L208 906v2h131zM383 0H93v700h301q163 0 240.5-83.5T712 355q0-177-80.5-266T383 0zM257 132h114q40 0 73 11t55.5 37q22.5 26 35 68T547 352q0 115-41.5 165.5T385 568H257z" glyph-name="Dcaron" horiz-adv-x="767" unicode="Ď"/><glyph d="M398 0H109v288H37v122h72v290h300q163 0 240.5-83.5T727 355q0-177-80.5-266T398 0zM272 132h115q40 0 72.5 11t55.5 37q23 26 35.5 68T563 352q0 115-41.5 165.5T400 568H272V410h121V288H272z" glyph-name="Dcroat" horiz-adv-x="783" unicode="Đ"/><glyph d="M93 0v700h537V571H253V418h326V288H253V129h387V0z" glyph-name="E" horiz-adv-x="684" unicode="E"/><glyph d="M93 0zm456 902L420 775H298v5l81 128h170zM93 0v700h537V571H253V418h326V288H253V129h387V0z" glyph-name="Eacute" horiz-adv-x="684" unicode="É"/><glyph d="M93 0zm0 0v700h537V571H253V418h326V288H253V129h387V0zm351 907h97q0-40-11.5-67T496 797q-22-16-54-23t-72-7q-41 0-72.5 7T244 797q-22 16-33.5 43T199 907h97q0-36 18-49t56-13q38 0 56 13t18 49z" glyph-name="Ebreve" horiz-adv-x="684" unicode="Ĕ"/><glyph d="M93 0zm281 851l62 57h124v-2L436 775H305L181 906v2h131zM93 0v700h537V571H253V418h326V288H253V129h387V0z" glyph-name="Ecaron" horiz-adv-x="684" unicode="Ě"/><glyph d="M93 0zm275 832l-61-58H182v4l123 129h131l125-129v-4H429zM93 0v700h537V571H253V418h326V288H253V129h387V0z" glyph-name="Ecircumflex" horiz-adv-x="684" unicode="Ê"/><glyph d="M93 0zm299 848q0 38 22 56t62 18q40 0 61.5-18t21.5-56q0-38-21.5-56.5T476 773q-40 0-62 18.5T392 848zm-210 0q0 38 22 56t61 18q40 0 61.5-18t21.5-56q0-38-21.5-56.5T265 773q-39 0-61 18.5T182 848zM93 0v700h537V571H253V418h326V288H253V129h387V0z" glyph-name="Edieresis" horiz-adv-x="684" unicode="Ë"/><glyph d="M93 0zm0 0v700h537V571H253V418h326V288H253V129h387V0zm190 848q0 38 23 56.5t65 18.5q42 0 64-18.5t22-56.5q0-38-22-56.5T371 773q-42 0-65 18.5T283 848z" glyph-name="Edotaccent" horiz-adv-x="684" unicode="Ė"/><glyph d="M93 0zm0 0v700h537V571H253V418h326V288H253V129h387V0zm226 775L190 902v6h174l79-128v-5z" glyph-name="Egrave" horiz-adv-x="684" unicode="È"/><glyph d="M93 0zm0 0v700h537V571H253V418h326V288H253V129h387V0zm422 880v-87H226v87z" glyph-name="Emacron" horiz-adv-x="684" unicode="Ē"/><glyph d="M559-20v34L244 444l4-444H93v700h129l342-467-4 467h156V-30q0-49-14-85t-39.5-59.5q-25.5-23.5-61-35T523-221q-26 0-53.5 5T416-199l25 105q13-5 25-8t28-3q33 0 49 18.5T559-20z" glyph-name="Eng" horiz-adv-x="808" unicode="Ŋ"/><glyph d="M93 0v700h537V572H252V418h327V288H252V129h388V0q-52-4-75-31t-23-59q0-29 18.5-40t44.5-11q38 0 68 17l21-78q-42-27-100-27-27 0-53 6t-46 20.5q-20 14.5-32.5 38T450-105q0 33 12 59.5T494 0z" glyph-name="Eogonek" horiz-adv-x="684" unicode="Ę"/><glyph d="M398 0H109v288H37v122h72v290h300q163 0 240.5-83.5T727 355q0-177-80.5-266T398 0zM272 132h115q40 0 72.5 11t55.5 37q23 26 35.5 68T563 352q0 115-41.5 165.5T400 568H272V410h121V288H272z" glyph-name="Eth" horiz-adv-x="783" unicode="Ð"/><glyph d="M400-15q-137 0-216 59.5T82 231H6v81h67q-1 8-1 18v27H6v81h71q18 144 100 210t229 66q99 0 165.5-36T671 558l-127-67q-24 53-56 73t-84 20q-67 0-109.5-31.5T238 438h247l-22-81H230v-27q0-10 1-18h220l-22-81H248q16-65 56-90.5t99-25.5q51 0 87.5 20.5T549 205l128-65Q640 62 572.5 23.5T400-15z" glyph-name="Euro" horiz-adv-x="708" unicode="€"/><glyph d="M93 0v700h524V568H257V406h314V270H257V0z" glyph-name="F" horiz-adv-x="628" unicode="F"/><glyph d="M369-14q-73 0-131 22t-98 67.5q-40 45.5-61.5 114T57 351q0 190 85.5 276.5T398 714q104 0 171-35t102-114l-131-70q-24 47-56.5 65.5T397 579q-42 0-75-11t-55-37q-22-26-33.5-70T222 350q0-67 11.5-112t34-72q22.5-27 55.5-38.5t76-11.5q26 0 51 7t45.5 22.5q20.5 15.5 34 40.5t16.5 62v8H400v122h294V0H578l-10 86q-28-47-79-73.5T369-14z" glyph-name="G" horiz-adv-x="750" unicode="G"/><glyph d="M388-14q-168 0-249.5 89.5T57 351q0 190 85.5 276.5T398 714q103 0 170.5-35.5T671 565l-132-70q-23 47-55.5 65.5T397 579q-43 0-75.5-11T267 531q-22-26-33.5-70T222 350q0-67 11.5-112t34-72q22.5-27 55-38.5T398 116q60 0 101 32.5T544 256H400v122h294v-91q0-87-24-144.5T604.5 50Q563 15 507.5.5T388-14z" glyph-name="G.alt" horiz-adv-x="753"/><glyph d="M57 0zm312-14q-73 0-131 22t-98 67.5q-40 45.5-61.5 114T57 351q0 190 85.5 276.5T398 714q104 0 171-35t102-114l-131-70q-24 47-56.5 65.5T397 579q-42 0-75-11t-55-37q-22-26-33.5-70T222 350q0-67 11.5-112t34-72q22.5-27 55.5-38.5t76-11.5q26 0 51 7t45.5 22.5q20.5 15.5 34 40.5t16.5 62v8H400v122h294V0H578l-10 86q-28-47-79-73.5T369-14zm102 922h97q0-40-11.5-67T523 798q-22-16-54-23t-72-7q-41 0-72.5 7T271 798q-22 16-33.5 43T226 908h97q0-36 18-49t56-13q38 0 56 13t18 49z" glyph-name="Gbreve" horiz-adv-x="750" unicode="Ğ"/><glyph d="M468 907h97q0-40-11.5-67T520 797q-22-16-54-22.5t-72-6.5q-41 0-72.5 6.5T268 797q-22 16-33.5 43T223 907h97q0-36 17.5-49t55.5-13q38 0 56.5 13t18.5 49zM388-14q-168 0-249.5 89.5T57 351q0 190 85.5 276.5T398 714q103 0 170.5-35.5T671 565l-132-70q-23 47-55.5 65.5T397 579q-43 0-75.5-11T267 531q-22-26-33.5-70T222 350q0-67 11.5-112t34-72q22.5-27 55-38.5T398 116q60 0 101 32.5T544 256H400v122h294v-91q0-87-24-144.5T604.5 50Q563 15 507.5.5T388-14z" glyph-name="Gbreve.alt" horiz-adv-x="753"/><glyph d="M57 0zm339 833l-61-58H210v4l123 129h131l125-129v-4H457zM369-14q-73 0-131 22t-98 67.5q-40 45.5-61.5 114T57 351q0 190 85.5 276.5T398 714q104 0 171-35t102-114l-131-70q-24 47-56.5 65.5T397 579q-42 0-75-11t-55-37q-22-26-33.5-70T222 350q0-67 11.5-112t34-72q22.5-27 55.5-38.5t76-11.5q26 0 51 7t45.5 22.5q20.5 15.5 34 40.5t16.5 62v8H400v122h294V0H578l-10 86q-28-47-79-73.5T369-14z" glyph-name="Gcircumflex" horiz-adv-x="750" unicode="Ĝ"/><glyph d="M393 832l-61-57H207v3l123 130h131l125-130v-3H454zm-5-846q-168 0-249.5 89.5T57 351q0 190 85.5 276.5T398 714q103 0 170.5-35.5T671 565l-132-70q-23 47-55.5 65.5T397 579q-43 0-75.5-11T267 531q-22-26-33.5-70T222 350q0-67 11.5-112t34-72q22.5-27 55-38.5T398 116q60 0 101 32.5T544 256H400v122h294v-91q0-87-24-144.5T604.5 50Q563 15 507.5.5T388-14z" glyph-name="Gcircumflex.alt" horiz-adv-x="753"/><glyph d="M57 0zm277-333l-28 58q32 8 53 27.5t28 46.5h-2q-38 0-60.5 18T302-130q0 38 22 56.5T386-55q41 0 64-24t23-75q0-34-10-64t-28-53.5Q417-295 391.5-311T334-333zm35 319q-73 0-131 22t-98 67.5q-40 45.5-61.5 114T57 351q0 190 85.5 276.5T398 714q104 0 171-35t102-114l-131-70q-24 47-56.5 65.5T397 579q-42 0-75-11t-55-37q-22-26-33.5-70T222 350q0-67 11.5-112t34-72q22.5-27 55.5-38.5t76-11.5q26 0 51 7t45.5 22.5q20.5 15.5 34 40.5t16.5 62v8H400v122h294V0H578l-10 86q-28-47-79-73.5T369-14z" glyph-name="Gcommaaccent" horiz-adv-x="750" unicode="Ģ"/><glyph d="M388-14q-168 0-249.5 89.5T57 351q0 190 85.5 276.5T398 714q103 0 170.5-35.5T671 565l-132-70q-23 47-55.5 65.5T397 579q-43 0-75.5-11T267 531q-22-26-33.5-70T222 350q0-67 11.5-112t34-72q22.5-27 55-38.5T398 116q60 0 101 32.5T544 256H400v122h294v-91q0-87-24-144.5T604.5 50Q563 15 507.5.5T388-14zm-57-319l-28 58q32 8 53 27.5t28 46.5h-2q-39 0-61 18t-22 53q0 38 22 56.5T383-55q41 0 64-24t23-75q0-34-10-64t-28-53.5Q414-295 388.5-311T331-333z" glyph-name="Gcommaaccent.alt" horiz-adv-x="753"/><glyph d="M57 0zm312-14q-73 0-131 22t-98 67.5q-40 45.5-61.5 114T57 351q0 190 85.5 276.5T398 714q104 0 171-35t102-114l-131-70q-24 47-56.5 65.5T397 579q-42 0-75-11t-55-37q-22-26-33.5-70T222 350q0-67 11.5-112t34-72q22.5-27 55.5-38.5t76-11.5q26 0 51 7t45.5 22.5q20.5 15.5 34 40.5t16.5 62v8H400v122h294V0H578l-10 86q-28-47-79-73.5T369-14zm-59 863q0 38 23 56.5t65 18.5q42 0 64-18.5t22-56.5q0-38-22-56.5T398 774q-42 0-65 18.5T310 849z" glyph-name="Gdotaccent" horiz-adv-x="750" unicode="Ġ"/><glyph d="M307 848q0 39 23 57.5t65 18.5q41 0 63.5-18.5T481 848q0-38-22.5-56.5T395 773q-42 0-65 18.5T307 848zm81-862q-168 0-249.5 89.5T57 351q0 190 85.5 276.5T398 714q103 0 170.5-35.5T671 565l-132-70q-23 47-55.5 65.5T397 579q-43 0-75.5-11T267 531q-22-26-33.5-70T222 350q0-67 11.5-112t34-72q22.5-27 55-38.5T398 116q60 0 101 32.5T544 256H400v122h294v-91q0-87-24-144.5T604.5 50Q563 15 507.5.5T388-14z" glyph-name="Gdotaccent.alt" horiz-adv-x="753"/><glyph d="M558 0v280H257V0H93v700h164V420h301v280h164V0z" glyph-name="H" horiz-adv-x="815" unicode="H"/><glyph d="M267 420h301v81H267zM568 0v280H267V0H103v501H37v85h66v114h164V586h301v114h164V586h65v-85h-65V0z" glyph-name="Hbar" horiz-adv-x="835" unicode="Ħ"/><glyph d="M93 0zm313 833l-61-58H220v4l123 129h131l125-129v-4H467zM558 0v280H257V0H93v700h164V420h301v280h164V0z" glyph-name="Hcircumflex" horiz-adv-x="815" unicode="Ĥ"/><glyph d="M93 0v700h164V0z" glyph-name="I" horiz-adv-x="350" unicode="I"/><glyph d="M94 0zm0 0v700h164V0zm447-14q-47 0-96.5 14T353 48l66 114q26-22 57.5-33t62.5-11q54 0 85.5 32.5T656 261v439h165V262q0-77-21-129.5t-58-85Q705 15 653.5.5T541-14z" glyph-name="IJ" horiz-adv-x="897" unicode="Ĳ"/><glyph d="M93 0zm0 0v700h164V0zm261 902L225 775H103v5l81 128h170z" glyph-name="Iacute" horiz-adv-x="350" unicode="Í"/><glyph d="M4 0zm89 0v700h164V0zm156 907h97q0-40-11.5-67T301 797q-22-16-54-23t-72-7q-41 0-72.5 7T49 797q-22 16-33.5 43T4 907h97q0-36 18-49t56-13q38 0 56 13t18 49z" glyph-name="Ibreve" horiz-adv-x="350" unicode="Ĭ"/><glyph d="M0 0zm93 0v700h164V0zm80 832l-61-58H-13v4l123 129h131l125-129v-4H234z" glyph-name="Icircumflex" horiz-adv-x="350" unicode="Î"/><glyph d="M0 0zm93 0v700h164V0zm104 848q0 38 22 56t62 18q40 0 61.5-18t21.5-56q0-38-21.5-56.5T281 773q-40 0-62 18.5T197 848zm-210 0q0 38 22 56t61 18q40 0 61.5-18t21.5-56q0-38-21.5-56.5T70 773q-39 0-61 18.5T-13 848z" glyph-name="Idieresis" horiz-adv-x="350" unicode="Ï"/><glyph d="M88 0zm5 0v700h164V0zm-5 848q0 38 23 56.5t65 18.5q42 0 64-18.5t22-56.5q0-38-22-56.5T176 773q-42 0-65 18.5T88 848z" glyph-name="Idotaccent" horiz-adv-x="350" unicode="İ"/><glyph d="M0 0zm93 0v700h164V0zm31 775L-5 902v6h174l79-128v-5z" glyph-name="Igrave" horiz-adv-x="350" unicode="Ì"/><glyph d="M31 0zm62 0v700h164V0zm227 880v-87H31v87z" glyph-name="Imacron" horiz-adv-x="350" unicode="Ī"/><glyph d="M138-229q-27 0-53 6t-46.5 20.5q-20.5 14.5-33 38T-7-105q0 54 29 89t71 51v665h164V0h-80q-48-4-69.5-31T86-90q0-29 18.5-40t44.5-11q18 0 35 4t32 13l22-78q-44-27-100-27z" glyph-name="Iogonek" horiz-adv-x="350" unicode="Į"/><glyph d="M0 0zm93 0v700h164V0zm169 903h95q3-35-6-58.5T327 807q-15-14-34-20t-38-6q-23 0-42 5.5T177 798q-17 6-32 11.5t-29 5.5q-17 0-22.5-10.5T88 781H-7q-2 35 6.5 58.5t23.5 38Q38 892 57 898t38 6q23 0 42-5.5t36-12q17-6.5 32-12t29-5.5q18 0 23 10t5 24z" glyph-name="Itilde" horiz-adv-x="350" unicode="Ĩ"/><glyph d="M188-14q-47 0-96.5 14T0 48l66 114q26-22 57.5-33t62.5-11q54 0 85.5 32.5T303 261v439h165V262q0-77-21-129.5t-58-85Q352 15 300.5.5T188-14z" glyph-name="J" horiz-adv-x="544" unicode="J"/><glyph d="M0 0zm387 832l-61-58H201v4l123 129h131l125-129v-4H448zM188-14q-47 0-96.5 14T0 48l66 114q26-22 57.5-33t62.5-11q54 0 85.5 32.5T303 261v439h165V262q0-77-21-129.5t-58-85Q352 15 300.5.5T188-14z" glyph-name="Jcircumflex" horiz-adv-x="544" unicode="Ĵ"/><glyph d="M93 0v700h164l-1-328 261 328h193L451 389 711 0H514L339 270l-82-94V0z" glyph-name="K" horiz-adv-x="719" unicode="K"/><glyph d="M512 0L258 328V0H92v700h166V347l260 353h188L439 350 718 0z" glyph-name="K.alt" horiz-adv-x="721"/><glyph d="M93 0zm236-333l-28 58q32 8 53 27.5t28 46.5h-2q-38 0-60.5 18T297-130q0 38 22 56.5T381-55q41 0 64-24t23-75q0-34-10-64t-28-53.5Q412-295 386.5-311T329-333zM93 0v700h164l-1-328 261 328h193L451 389 711 0H514L339 270l-82-94V0z" glyph-name="Kcommaaccent" horiz-adv-x="719" unicode="Ķ"/><glyph d="M92 0zm237-333l-28 58q32 8 53 27.5t28 46.5h-2q-38 0-60.5 18T297-130q0 38 22 56.5T381-55q41 0 64-24t23-75q0-34-10-64t-28-53.5Q412-295 386.5-311T329-333zM512 0L258 328V0H92v700h166V347l260 353h188L439 350 718 0z" glyph-name="Kcommaaccent.alt" horiz-adv-x="721"/><glyph d="M258 136h362V0H93v700h165z" glyph-name="L" horiz-adv-x="646" unicode="L"/><glyph d="M93 0zm261 901L225 774H103v5l81 128h170zm-96-765h362V0H93v700h165z" glyph-name="Lacute" horiz-adv-x="646" unicode="Ĺ"/><glyph d="M93 0zm409 441H400l7 259h128zM258 136h362V0H93v700h165z" glyph-name="Lcaron" horiz-adv-x="646" unicode="Ľ"/><glyph d="M93 0zm214-333l-28 58q32 8 53 27.5t28 46.5h-2q-38 0-60.5 18T275-130q0 38 22 56.5T359-55q41 0 64-24t23-75q0-34-10-64t-28-53.5Q390-295 364.5-311T307-333zm-49 469h362V0H93v700h165z" glyph-name="Lcommaaccent" horiz-adv-x="646" unicode="Ļ"/><glyph d="M93 0zm165 136h362V0H93v700h165zm141 225q0 38 23 56.5t65 18.5q42 0 64-18.5t22-56.5q0-38-22-56.5T487 286q-42 0-65 18.5T399 361z" glyph-name="Ldot" horiz-adv-x="646" unicode="Ŀ"/><glyph d="M275 136h363V0H111v218l-88-50v127l88 50v355h164V427l166 91V390l-166-90z" glyph-name="Lslash" horiz-adv-x="663" unicode="Ł"/><glyph d="M430 0L236 440l6-440H93v700h175l223-513 221 513h180V0H737l7 451L547 0z" glyph-name="M" horiz-adv-x="985" unicode="M"/><glyph d="M572 0L244 444l4-444H93v700h129l342-467-4 467h156V0z" glyph-name="N" horiz-adv-x="808" unicode="N"/><glyph glyph-name="NULL" horiz-adv-x="176"/><glyph d="M93 0zm489 902L453 775H331v5l81 128h170zM572 0L244 444l4-444H93v700h129l342-467-4 467h156V0z" glyph-name="Nacute" horiz-adv-x="808" unicode="Ń"/><glyph d="M93 0zm315 851l62 57h124v-2L470 775H339L215 906v2h131zM572 0L244 444l4-444H93v700h129l342-467-4 467h156V0z" glyph-name="Ncaron" horiz-adv-x="808" unicode="Ň"/><glyph d="M93 0zm262-333l-28 58q32 8 53 27.5t28 46.5h-2q-38 0-60.5 18T323-130q0 38 22 56.5T407-55q41 0 64-24t23-75q0-34-10-64t-28-53.5Q438-295 412.5-311T355-333zM572 0L244 444l4-444H93v700h129l342-467-4 467h156V0z" glyph-name="Ncommaaccent" horiz-adv-x="808" unicode="Ņ"/><glyph d="M93 0zm479 0L244 444l4-444H93v700h129l342-467-4 467h156V0zm-82 903h95q3-35-6-58.5T555 807q-15-14-34-20t-38-6q-23 0-42 5.5T405 798q-17 6-32 11.5t-29 5.5q-17 0-22.5-10.5T316 781h-95q-2 35 6.5 58.5t23.5 38q15 14.5 34 20.5t38 6q23 0 42-5.5t36-12q17-6.5 32-12t29-5.5q18 0 23 10t5 24z" glyph-name="Ntilde" horiz-adv-x="808" unicode="Ñ"/><glyph d="M396-14q-177 0-258 90T57 351q0 185 83.5 274T397 714q179 0 259-89.5T736 350q0-185-84-274.5T396-14zm0 594q-43 0-75.5-11.5T266 530q-22-27-33-71t-11-110q0-64 11-108t33-71q22-27 54.5-39t75.5-12q43 0 75.5 12t54.5 39q22 27 33 71.5T570 351q0 64-11 108t-33 71q-22 27-54.5 38.5T396 580z" glyph-name="O" horiz-adv-x="793" unicode="O"/><glyph d="M1056 0H385Q221 0 138.5 86.5T56 352q0 176 80.5 262T387 700h659V571H673V418h323V288H673V129h383zM386 132h126v436H391q-41 0-73-11.5T264.5 519Q243 493 232 451.5T221 350q0-118 42.5-168T386 132z" glyph-name="OE" horiz-adv-x="1100" unicode="Œ"/><glyph d="M57 0zm516 902L444 775H322v5l81 128h170zM396-14q-177 0-258 90T57 351q0 185 83.5 274T397 714q179 0 259-89.5T736 350q0-185-84-274.5T396-14zm0 594q-43 0-75.5-11.5T266 530q-22-27-33-71t-11-110q0-64 11-108t33-71q22-27 54.5-39t75.5-12q43 0 75.5 12t54.5 39q22 27 33 71.5T570 351q0 64-11 108t-33 71q-22 27-54.5 38.5T396 580z" glyph-name="Oacute" horiz-adv-x="793" unicode="Ó"/><glyph d="M57 0zm339-14q-177 0-258 90T57 351q0 185 83.5 274T397 714q179 0 259-89.5T736 350q0-185-84-274.5T396-14zm0 594q-43 0-75.5-11.5T266 530q-22-27-33-71t-11-110q0-64 11-108t33-71q22-27 54.5-39t75.5-12q43 0 75.5 12t54.5 39q22 27 33 71.5T570 351q0 64-11 108t-33 71q-22 27-54.5 38.5T396 580zm72 328h97q0-40-11.5-67T520 798q-22-16-54-23t-72-7q-41 0-72.5 7T268 798q-22 16-33.5 43T223 908h97q0-36 18-49t56-13q38 0 56 13t18 49z" glyph-name="Obreve" horiz-adv-x="793" unicode="Ŏ"/><glyph d="M57 0zm335 833l-61-58H206v4l123 129h131l125-129v-4H453zm4-847q-177 0-258 90T57 351q0 185 83.5 274T397 714q179 0 259-89.5T736 350q0-185-84-274.5T396-14zm0 594q-43 0-75.5-11.5T266 530q-22-27-33-71t-11-110q0-64 11-108t33-71q22-27 54.5-39t75.5-12q43 0 75.5 12t54.5 39q22 27 33 71.5T570 351q0 64-11 108t-33 71q-22 27-54.5 38.5T396 580z" glyph-name="Ocircumflex" horiz-adv-x="793" unicode="Ô"/><glyph d="M57 0zm361 849q0 38 22 56t62 18q40 0 61.5-18t21.5-56q0-38-21.5-56.5T502 774q-40 0-62 18.5T418 849zm-210 0q0 38 22 56t61 18q40 0 61.5-18t21.5-56q0-38-21.5-56.5T291 774q-39 0-61 18.5T208 849zM396-14q-177 0-258 90T57 351q0 185 83.5 274T397 714q179 0 259-89.5T736 350q0-185-84-274.5T396-14zm0 594q-43 0-75.5-11.5T266 530q-22-27-33-71t-11-110q0-64 11-108t33-71q22-27 54.5-39t75.5-12q43 0 75.5 12t54.5 39q22 27 33 71.5T570 351q0 64-11 108t-33 71q-22 27-54.5 38.5T396 580z" glyph-name="Odieresis" horiz-adv-x="793" unicode="Ö"/><glyph d="M57 0zm339-14q-177 0-258 90T57 351q0 185 83.5 274T397 714q179 0 259-89.5T736 350q0-185-84-274.5T396-14zm0 594q-43 0-75.5-11.5T266 530q-22-27-33-71t-11-110q0-64 11-108t33-71q22-27 54.5-39t75.5-12q43 0 75.5 12t54.5 39q22 27 33 71.5T570 351q0 64-11 108t-33 71q-22 27-54.5 38.5T396 580zm-53 196L214 903v6h174l79-128v-5z" glyph-name="Ograve" horiz-adv-x="793" unicode="Ò"/><glyph d="M57 0zm604 903L531 775H416v5l79 128h166zm-204-1L345 775H238v5l68 128h151zM396-14q-177 0-258 90T57 351q0 185 83.5 274T397 714q179 0 259-89.5T736 350q0-185-84-274.5T396-14zm0 594q-43 0-75.5-11.5T266 530q-22-27-33-71t-11-110q0-64 11-108t33-71q22-27 54.5-39t75.5-12q43 0 75.5 12t54.5 39q22 27 33 71.5T570 351q0 64-11 108t-33 71q-22 27-54.5 38.5T396 580z" glyph-name="Ohungarumlaut" horiz-adv-x="793" unicode="Ő"/><glyph d="M57 0zm482 881v-87H250v87zM396-14q-177 0-258 90T57 351q0 185 83.5 274T397 714q179 0 259-89.5T736 350q0-185-84-274.5T396-14zm0 594q-43 0-75.5-11.5T266 530q-22-27-33-71t-11-110q0-64 11-108t33-71q22-27 54.5-39t75.5-12q43 0 75.5 12t54.5 39q22 27 33 71.5T570 351q0 64-11 108t-33 71q-22 27-54.5 38.5T396 580z" glyph-name="Omacron" horiz-adv-x="793" unicode="Ō"/><glyph d="M154 0H39l87 99q-33 46-48.5 108.5T62 350q0 185 83.5 274.5T402 714q137 0 214-55l36 41h116l-89-102q62-89 62-248 0-187-82.5-275.5T404-14q-137 0-216 54zm361 544q-21 20-49.5 28t-64.5 8q-43 0-75.5-11.5t-54.5-38Q249 504 238 460t-11-110q0-74 16-116zM287 154q21-20 49.5-27.5T401 119q43 0 75.5 11.5T531 169q22 27 33 71.5T575 351q0 69-15 114z" glyph-name="Oslash" horiz-adv-x="803" unicode="Ø"/><glyph d="M57 0zm339-14q-177 0-258 90T57 351q0 185 83.5 274T397 714q179 0 259-89.5T736 350q0-185-84-274.5T396-14zm0 594q-43 0-75.5-11.5T266 530q-22-27-33-71t-11-110q0-64 11-108t33-71q22-27 54.5-39t75.5-12q43 0 75.5 12t54.5 39q22 27 33 71.5T570 351q0 64-11 108t-33 71q-22 27-54.5 38.5T396 580zm84 324h95q3-35-6-58.5T545 808q-15-14-34-20t-38-6q-23 0-42 5.5T395 799q-17 6-32 11.5t-29 5.5q-17 0-22.5-10.5T306 782h-95q-2 35 6.5 58.5t23.5 38q15 14.5 34 20.5t38 6q23 0 42-5.5t36-12q17-6.5 32-12t29-5.5q18 0 23 10t5 24z" glyph-name="Otilde" horiz-adv-x="793" unicode="Õ"/><glyph d="M93 0v700h329q61 0 107.5-17.5t77-50q30.5-32.5 46-78T668 453q0-120-70.5-183.5T403 206H257V0zm303 562H257V339h140q51 0 80 29.5t29 86.5q0 45-26 76t-84 31z" glyph-name="P" horiz-adv-x="701" unicode="P"/><glyph d="M607 37l79-125H540L488-6q-21-4-44-6t-48-2q-177 0-258 90T57 351q0 185 83.5 274T397 714q179 0 259-89.5T736 350q0-228-129-313zM396 584q-43 0-75.5-12T266 532.5Q244 505 233 460t-11-112q0-65 11-109.5t33-71.5q22-27 54.5-39t75.5-12h14l-72 113h148l40-63q22 27 33.5 72T571 350q0 65-11 110t-33 72.5Q505 560 472 572t-76 12z" glyph-name="Q" horiz-adv-x="791" unicode="Q"/><glyph d="M407 565H254V361h150q49 0 76.5 26.5T508 466q0 44-23.5 71.5T407 565zM254 230V0H93v700h341q118 0 177.5-62.5T671 470q0-78-30.5-130.5T553 261L679 0H499L393 230z" glyph-name="R" horiz-adv-x="714" unicode="R"/><glyph d="M93 0zm467 902L431 775H309v5l81 128h170zM407 565H254V361h150q49 0 76.5 26.5T508 466q0 44-23.5 71.5T407 565zM254 230V0H93v700h341q118 0 177.5-62.5T671 470q0-78-30.5-130.5T553 261L679 0H499L393 230z" glyph-name="Racute" horiz-adv-x="714" unicode="Ŕ"/><glyph d="M93 0zm293 851l62 57h124v-2L448 775H317L193 906v2h131zm21-286H254V361h150q49 0 76.5 26.5T508 466q0 44-23.5 71.5T407 565zM254 230V0H93v700h341q118 0 177.5-62.5T671 470q0-78-30.5-130.5T553 261L679 0H499L393 230z" glyph-name="Rcaron" horiz-adv-x="714" unicode="Ř"/><glyph d="M93 0zm224-333l-28 58q32 8 53 27.5t28 46.5h-2q-38 0-60.5 18T285-130q0 38 22 56.5T369-55q41 0 64-24t23-75q0-34-10-64t-28-53.5Q400-295 374.5-311T317-333zm90 898H254V361h150q49 0 76.5 26.5T508 466q0 44-23.5 71.5T407 565zM254 230V0H93v700h341q118 0 177.5-62.5T671 470q0-78-30.5-130.5T553 261L679 0H499L393 230z" glyph-name="Rcommaaccent" horiz-adv-x="714" unicode="Ŗ"/><glyph d="M577 583l-112-74q-25 38-60 60t-91 22q-62 0-88.5-21.5T199 514q0-15 4-28t15.5-24q11.5-11 31-20.5T299 425l70-16q119-27 171-78t52-130q0-102-73.5-158.5T308-14q-44 0-85.5 6.5t-78 22Q108 30 77.5 56T24 121l107 79q30-49 73.5-74T308 101q130 0 130 83 0 31-21.5 51.5T334 270l-69 16q-117 27-166 83.5T50 503q0 45 17.5 83.5t51.5 67q34 28.5 83 44.5t111 16q91 0 157.5-29.5T577 583z" glyph-name="S" horiz-adv-x="637" unicode="S"/><glyph d="M24 0zm469 902L364 775H242v5l81 128h170zm84-319l-112-74q-25 38-60 60t-91 22q-62 0-88.5-21.5T199 514q0-15 4-28t15.5-24q11.5-11 31-20.5T299 425l70-16q119-27 171-78t52-130q0-102-73.5-158.5T308-14q-44 0-85.5 6.5t-78 22Q108 30 77.5 56T24 121l107 79q30-49 73.5-74T308 101q130 0 130 83 0 31-21.5 51.5T334 270l-69 16q-117 27-166 83.5T50 503q0 45 17.5 83.5t51.5 67q34 28.5 83 44.5t111 16q91 0 157.5-29.5T577 583z" glyph-name="Sacute" horiz-adv-x="637" unicode="Ś"/><glyph d="M24 0zm295 851l62 57h124v-2L381 775H250L126 906v2h131zm258-268l-112-74q-25 38-60 60t-91 22q-62 0-88.5-21.5T199 514q0-15 4-28t15.5-24q11.5-11 31-20.5T299 425l70-16q119-27 171-78t52-130q0-102-73.5-158.5T308-14q-44 0-85.5 6.5t-78 22Q108 30 77.5 56T24 121l107 79q30-49 73.5-74T308 101q130 0 130 83 0 31-21.5 51.5T334 270l-69 16q-117 27-166 83.5T50 503q0 45 17.5 83.5t51.5 67q34 28.5 83 44.5t111 16q91 0 157.5-29.5T577 583z" glyph-name="Scaron" horiz-adv-x="637" unicode="Š"/><glyph d="M308-251q-45 0-82 17t-59 52l54 55q15-23 33.5-35.5T302-175q21 0 35.5 8.5T352-139q0 17-14 27t-39 10q-6 0-11.5-.5T276-104l-23 15 25 76q-80 4-146 33.5T24 121l107 79q30-49 73.5-74T308 101q130 0 130 83 0 31-21.5 51.5T334 270l-69 16q-117 27-166 83.5T50 503q0 45 17.5 83.5t51.5 67q34 28.5 83 44.5t111 16q91 0 157.5-29.5T577 583l-112-74q-25 38-60 60t-91 22q-62 0-88.5-21.5T199 514q0-15 4-28t15.5-24q11.5-11 31-20.5T299 425l70-16q119-27 171-78t52-130q0-92-60.5-147T358-12l-14-38h1q20-2 38.5-8T416-75.5q14-11.5 22.5-28T447-142q0-28-11.5-48.5t-30.5-34q-19-13.5-44-20t-53-6.5z" glyph-name="Scedilla" horiz-adv-x="637" unicode="Ş"/><glyph d="M24 0zm288 832l-61-58H126v4l123 129h131l125-129v-4H373zm265-249l-112-74q-25 38-60 60t-91 22q-62 0-88.5-21.5T199 514q0-15 4-28t15.5-24q11.5-11 31-20.5T299 425l70-16q119-27 171-78t52-130q0-102-73.5-158.5T308-14q-44 0-85.5 6.5t-78 22Q108 30 77.5 56T24 121l107 79q30-49 73.5-74T308 101q130 0 130 83 0 31-21.5 51.5T334 270l-69 16q-117 27-166 83.5T50 503q0 45 17.5 83.5t51.5 67q34 28.5 83 44.5t111 16q91 0 157.5-29.5T577 583z" glyph-name="Scircumflex" horiz-adv-x="637" unicode="Ŝ"/><glyph d="M24 0zm237-333l-28 58q32 8 53 27.5t28 46.5h-2q-38 0-60.5 18T229-130q0 38 22 56.5T313-55q41 0 64-24t23-75q0-34-10-64t-28-53.5Q344-295 318.5-311T261-333zm316 916l-112-74q-25 38-60 60t-91 22q-62 0-88.5-21.5T199 514q0-15 4-28t15.5-24q11.5-11 31-20.5T299 425l70-16q119-27 171-78t52-130q0-102-73.5-158.5T308-14q-44 0-85.5 6.5t-78 22Q108 30 77.5 56T24 121l107 79q30-49 73.5-74T308 101q130 0 130 83 0 31-21.5 51.5T334 270l-69 16q-117 27-166 83.5T50 503q0 45 17.5 83.5t51.5 67q34 28.5 83 44.5t111 16q91 0 157.5-29.5T577 583z" glyph-name="Scommaaccent" horiz-adv-x="637" unicode="Ș"/><glyph d="M14 700h592V562H392V0H228v562H14z" glyph-name="T" horiz-adv-x="620" unicode="T"/><glyph d="M14 700h592V562H393V395h164V282H393V0H228v282H65v113h163v167H14z" glyph-name="Tbar" horiz-adv-x="621" unicode="Ŧ"/><glyph d="M14 0zm300 851l62 57h124v-2L376 775H245L121 906v2h131zM14 700h592V562H392V0H228v562H14z" glyph-name="Tcaron" horiz-adv-x="620" unicode="Ť"/><glyph d="M248-89l29 89h-49v562H14v138h592V562H392V0h-35l-18-50h1q20-2 38.5-8T411-75.5q14-11.5 22.5-28T442-142q0-28-11.5-48.5t-30.5-34q-19-13.5-44-20t-53-6.5q-45 0-82 17t-59 52l54 55q15-23 33.5-35.5T297-175q21 0 35.5 8.5T347-139q0 17-14 27t-39 10q-6 0-11.5-.5T271-104z" glyph-name="Tcedilla" horiz-adv-x="620" unicode="Ţ"/><glyph d="M93 0v700h164V592h163q119 0 178.5-65T658 354q0-58-18-102.5T588 177q-34-30-81.5-45.5T400 116H257V0zm301 454H257V249h138q48 0 74.5 26.5T496 354q0 42-24 71t-78 29z" glyph-name="Thorn" horiz-adv-x="690" unicode="Þ"/><glyph d="M532 276v424h163V285q0-79-21-135.5t-60.5-93Q574 20 516.5 3T387-14q-150 0-230.5 72T76 285v415h164V276q0-80 38.5-117.5T386 121q69 0 107.5 37.5T532 276z" glyph-name="U" horiz-adv-x="771" unicode="U"/><glyph d="M76 0zm489 902L436 775H314v5l81 128h170zm-33-626v424h163V285q0-79-21-135.5t-60.5-93Q574 20 516.5 3T387-14q-150 0-230.5 72T76 285v415h164V276q0-80 38.5-117.5T386 121q69 0 107.5 37.5T532 276z" glyph-name="Uacute" horiz-adv-x="771" unicode="Ú"/><glyph d="M76 0zm456 276v424h163V285q0-79-21-135.5t-60.5-93Q574 20 516.5 3T387-14q-150 0-230.5 72T76 285v415h164V276q0-80 38.5-117.5T386 121q69 0 107.5 37.5T532 276zm-72 631h97q0-40-11.5-67T512 797q-22-16-54-23t-72-7q-41 0-72.5 7T260 797q-22 16-33.5 43T215 907h97q0-36 18-49t56-13q38 0 56 13t18 49z" glyph-name="Ubreve" horiz-adv-x="771" unicode="Ŭ"/><glyph d="M76 0zm308 832l-61-58H198v4l123 129h131l125-129v-4H445zm148-556v424h163V285q0-79-21-135.5t-60.5-93Q574 20 516.5 3T387-14q-150 0-230.5 72T76 285v415h164V276q0-80 38.5-117.5T386 121q69 0 107.5 37.5T532 276z" glyph-name="Ucircumflex" horiz-adv-x="771" unicode="Û"/><glyph d="M76 0zm333 848q0 38 22 56t62 18q40 0 61.5-18t21.5-56q0-38-21.5-56.5T493 773q-40 0-62 18.5T409 848zm-210 0q0 38 22 56t61 18q40 0 61.5-18t21.5-56q0-38-21.5-56.5T282 773q-39 0-61 18.5T199 848zm333-572v424h163V285q0-79-21-135.5t-60.5-93Q574 20 516.5 3T387-14q-150 0-230.5 72T76 285v415h164V276q0-80 38.5-117.5T386 121q69 0 107.5 37.5T532 276z" glyph-name="Udieresis" horiz-adv-x="771" unicode="Ü"/><glyph d="M76 0zm456 276v424h163V285q0-79-21-135.5t-60.5-93Q574 20 516.5 3T387-14q-150 0-230.5 72T76 285v415h164V276q0-80 38.5-117.5T386 121q69 0 107.5 37.5T532 276zM336 776L207 903v6h174l79-128v-5z" glyph-name="Ugrave" horiz-adv-x="771" unicode="Ù"/><glyph d="M76 0zm456 276v424h163V285q0-79-21-135.5t-60.5-93Q574 20 516.5 3T387-14q-150 0-230.5 72T76 285v415h164V276q0-80 38.5-117.5T386 121q69 0 107.5 37.5T532 276zm120 626L522 774H407v5l79 128h166zm-204-1L336 774H229v5l68 128h151z" glyph-name="Uhungarumlaut" horiz-adv-x="771" unicode="Ű"/><glyph d="M76 0zm456 276v424h163V285q0-79-21-135.5t-60.5-93Q574 20 516.5 3T387-14q-150 0-230.5 72T76 285v415h164V276q0-80 38.5-117.5T386 121q69 0 107.5 37.5T532 276zm-1 604v-87H242v87z" glyph-name="Umacron" horiz-adv-x="771" unicode="Ū"/><glyph d="M362-98q0 49 27 84h-8q-147 2-226 73.5T76 285v415h165V276q0-80 38.5-117T386 122q69 0 107.5 37T532 276v424h164V285q0-119-47.5-186.5T514 3q-32-11-45.5-34T455-79q0-35 18.5-48.5T518-141q36 0 68 18l21-79q-44-27-101-27-27 0-52.5 6.5t-46 22Q387-185 374.5-160T362-98z" glyph-name="Uogonek" horiz-adv-x="772" unicode="Ų"/><glyph d="M76 0zm195 856q0 50 32.5 76.5T386 959q50 0 82-26.5t32-76.5q0-51-32-77.5T385 752q-49 0-81.5 26.5T271 856zm70 0q0-21 12-33.5t32-12.5q20 0 33 12.5t13 33.5q0 21-12.5 33T386 901q-20 0-32.5-12T341 856zm191-580v424h163V285q0-79-21-135.5t-60.5-93Q574 20 516.5 3T387-14q-150 0-230.5 72T76 285v415h164V276q0-80 38.5-117.5T386 121q69 0 107.5 37.5T532 276z" glyph-name="Uring" horiz-adv-x="771" unicode="Ů"/><glyph d="M76 0zm456 276v424h163V285q0-79-21-135.5t-60.5-93Q574 20 516.5 3T387-14q-150 0-230.5 72T76 285v415h164V276q0-80 38.5-117.5T386 121q69 0 107.5 37.5T532 276zm-59 627h95q3-35-6-58.5T538 807q-15-14-34-20t-38-6q-23 0-42 5.5T388 798q-17 6-32 11.5t-29 5.5q-17 0-22.5-10.5T299 781h-95q-2 35 6.5 58.5t23.5 38q15 14.5 34 20.5t38 6q23 0 42-5.5t36-12q17-6.5 32-12t29-5.5q18 0 23 10t5 24z" glyph-name="Utilde" horiz-adv-x="771" unicode="Ũ"/><glyph d="M6 700h172l166-526 169 526h165L439 0H246z" glyph-name="V" horiz-adv-x="685" unicode="V"/><glyph d="M414 699h144l123-475 121 476h161L763 0H603L483 470 361 0H205L6 700h167l117-474z" glyph-name="W" horiz-adv-x="968" unicode="W"/><glyph d="M6 0zm657 901L534 774H412v5l81 128h170zM414 699h144l123-475 121 476h161L763 0H603L483 470 361 0H205L6 700h167l117-474z" glyph-name="Wacute" horiz-adv-x="968" unicode="Ẃ"/><glyph d="M6 0zm477 832l-61-58H297v4l123 129h131l125-129v-4H544zm-69-133h144l123-475 121 476h161L763 0H603L483 470 361 0H205L6 700h167l117-474z" glyph-name="Wcircumflex" horiz-adv-x="968" unicode="Ŵ"/><glyph d="M6 0zm499 848q0 38 22 56t62 18q40 0 61.5-18t21.5-56q0-38-21.5-56.5T589 773q-40 0-62 18.5T505 848zm-210 0q0 38 22 56t61 18q40 0 61.5-18t21.5-56q0-38-21.5-56.5T378 773q-39 0-61 18.5T295 848zm119-149h144l123-475 121 476h161L763 0H603L483 470 361 0H205L6 700h167l117-474z" glyph-name="Wdieresis" horiz-adv-x="968" unicode="Ẅ"/><glyph d="M6 0zm408 699h144l123-475 121 476h161L763 0H603L483 470 361 0H205L6 700h167l117-474zm20 76L305 902v6h174l79-128v-5z" glyph-name="Wgrave" horiz-adv-x="968" unicode="Ẁ"/><glyph d="M494 0L340 240 187 0H9l240 354L23 700h192l142-237 140 237h177L444 358 687 0z" glyph-name="X" horiz-adv-x="696" unicode="X"/><glyph d="M259 261L8 700h181l157-299 156 299h172L423 257V0H259z" glyph-name="Y" horiz-adv-x="682" unicode="Y"/><glyph d="M8 0zm251 261L8 700h181l157-299 156 299h172L423 257V0H259zm261 641L391 775H269v5l81 128h170z" glyph-name="Yacute" horiz-adv-x="682" unicode="Ý"/><glyph d="M8 0zm251 261L8 700h181l157-299 156 299h172L423 257V0H259zm81 571l-61-58H154v4l123 129h131l125-129v-4H401z" glyph-name="Ycircumflex" horiz-adv-x="682" unicode="Ŷ"/><glyph d="M8 0zm251 261L8 700h181l157-299 156 299h172L423 257V0H259zm104 587q0 38 22 56t62 18q40 0 61.5-18t21.5-56q0-38-21.5-56.5T447 773q-40 0-62 18.5T363 848zm-210 0q0 38 22 56t61 18q40 0 61.5-18t21.5-56q0-38-21.5-56.5T236 773q-39 0-61 18.5T153 848z" glyph-name="Ydieresis" horiz-adv-x="682" unicode="Ÿ"/><glyph d="M21 0v102l362 469-346-3v132h546V599L221 129l369 3V0z" glyph-name="Z" horiz-adv-x="613" unicode="Z"/><glyph d="M21 0zm463 902L355 775H233v5l81 128h170zM21 0v102l362 469-346-3v132h546V599L221 129l369 3V0z" glyph-name="Zacute" horiz-adv-x="613" unicode="Ź"/><glyph d="M21 0zm288 851l62 57h124v-2L371 775H240L116 906v2h131zM21 0v102l362 469-346-3v132h546V599L221 129l369 3V0z" glyph-name="Zcaron" horiz-adv-x="613" unicode="Ž"/><glyph d="M21 0zm0 0v102l362 469-346-3v132h546V599L221 129l369 3V0zm197 848q0 38 23 56.5t65 18.5q42 0 64-18.5t22-56.5q0-38-22-56.5T306 773q-42 0-65 18.5T218 848z" glyph-name="Zdotaccent" horiz-adv-x="613" unicode="Ż"/><glyph d="M258 86q49 0 77.5 30.5T364 204v9h-84q-50 0-73-16.5T184 145q0-28 18-43.5T258 86zm117-12q-24-41-65-64T209-13q-75 0-121.5 37.5T41 133q0 81 58.5 126T264 304h100q-3 53-31 71t-75 18q-50 0-84.5-15T115 336l-60 88q72 86 227 86 51 0 94.5-10.5t75-35.5q31.5-25 49.5-66t18-101V0H386z" glyph-name="a" horiz-adv-x="583" unicode="a"/><glyph d="M407 248q0 78-31 111.5T298 393q-51 0-77.5-34T194 247q0-143 104-143 48 0 78.5 34.5T407 248zM428 0l-10 79q-25-46-67.5-69.5T252-14q-97 0-153.5 65T42 243q0 136 59.5 201.5T261 510q56 0 97-21t64-65l12 73h128V0z" glyph-name="a.school" horiz-adv-x="631"/><glyph d="M41 0zm217 86q49 0 77.5 30.5T364 204v9h-84q-50 0-73-16.5T184 145q0-28 18-43.5T258 86zm117-12q-24-41-65-64T209-13q-75 0-121.5 37.5T41 133q0 81 58.5 126T264 304h100q-3 53-31 71t-75 18q-50 0-84.5-15T115 336l-60 88q72 86 227 86 51 0 94.5-10.5t75-35.5q31.5-25 49.5-66t18-101V0H386zm84 624L330 571H208v5l81 128h170z" glyph-name="aacute" horiz-adv-x="583" unicode="á"/><glyph d="M42 0zm365 248q0 78-31 111.5T298 393q-51 0-77.5-34T194 247q0-143 104-143 48 0 78.5 34.5T407 248zM428 0l-10 79q-25-46-67.5-69.5T252-14q-97 0-153.5 65T42 243q0 136 59.5 201.5T261 510q56 0 97-21t64-65l12 73h128V0zm45 698L344 571H222v5l81 128h170z" glyph-name="aacute.school" horiz-adv-x="631"/><glyph d="M41 0zm217 86q49 0 77.5 30.5T364 204v9h-84q-50 0-73-16.5T184 145q0-28 18-43.5T258 86zm117-12q-24-41-65-64T209-13q-75 0-121.5 37.5T41 133q0 81 58.5 126T264 304h100q-3 53-31 71t-75 18q-50 0-84.5-15T115 336l-60 88q72 86 227 86 51 0 94.5-10.5t75-35.5q31.5-25 49.5-66t18-101V0H386zm-21 630h97q0-40-11.5-67T406 594q-22-16-54-23t-72-7q-41 0-72.5 7T154 594q-22 16-33.5 43T109 704h97q0-36 18-49t56-13q38 0 56 13t18 49z" glyph-name="abreve" horiz-adv-x="583" unicode="ă"/><glyph d="M42 0zm365 248q0 78-31 111.5T298 393q-51 0-77.5-34T194 247q0-143 104-143 48 0 78.5 34.5T407 248zM428 0l-10 79q-25-46-67.5-69.5T252-14q-97 0-153.5 65T42 243q0 136 59.5 201.5T261 510q56 0 97-21t64-65l12 73h128V0zm-60 704h97q0-40-11.5-67T420 594q-22-16-54-23t-72-7q-41 0-72.5 7T168 594q-22 16-33.5 43T123 704h97q0-36 18-49t56-13q38 0 56 13t18 49z" glyph-name="abreve.school" horiz-adv-x="631"/><glyph d="M41 0zm217 86q49 0 77.5 30.5T364 204v9h-84q-50 0-73-16.5T184 145q0-28 18-43.5T258 86zm117-12q-24-41-65-64T209-13q-75 0-121.5 37.5T41 133q0 81 58.5 126T264 304h100q-3 53-31 71t-75 18q-50 0-84.5-15T115 336l-60 88q72 86 227 86 51 0 94.5-10.5t75-35.5q31.5-25 49.5-66t18-101V0H386zm-96 555l-61-58H93v4l123 129h131l125-129v-4H340z" glyph-name="acircumflex" horiz-adv-x="583" unicode="â"/><glyph d="M42 0zm250 629l-61-58H106v4l123 129h131l125-129v-4H353zm115-381q0 78-31 111.5T298 393q-51 0-77.5-34T194 247q0-143 104-143 48 0 78.5 34.5T407 248zM428 0l-10 79q-25-46-67.5-69.5T252-14q-97 0-153.5 65T42 243q0 136 59.5 201.5T261 510q56 0 97-21t64-65l12 73h128V0z" glyph-name="acircumflex.school" horiz-adv-x="631"/><glyph d="M468 698L339 571H217v5l81 128h170z" glyph-name="acute" horiz-adv-x="600" unicode="´"/><glyph d="M41 0zm217 86q49 0 77.5 30.5T364 204v9h-84q-50 0-73-16.5T184 145q0-28 18-43.5T258 86zm117-12q-24-41-65-64T209-13q-75 0-121.5 37.5T41 133q0 81 58.5 126T264 304h100q-3 53-31 71t-75 18q-50 0-84.5-15T115 336l-60 88q72 86 227 86 51 0 94.5-10.5t75-35.5q31.5-25 49.5-66t18-101V0H386zm-73 571q0 38 22 56t62 18q40 0 61.5-18t21.5-56q0-38-21.5-56.5T386 570q-40 0-62 18.5T302 645zm-210 0q0 38 22 56t61 18q40 0 61.5-18t21.5-56q0-38-21.5-56.5T175 570q-39 0-61 18.5T92 645z" glyph-name="adieresis" horiz-adv-x="583" unicode="ä"/><glyph d="M42 0zm274 645q0 38 22 56t62 18q40 0 61.5-18t21.5-56q0-38-21.5-56.5T400 570q-40 0-62 18.5T316 645zm-210 0q0 38 22 56t61 18q40 0 61.5-18t21.5-56q0-38-21.5-56.5T189 570q-39 0-61 18.5T106 645zm301-397q0 78-31 111.5T298 393q-51 0-77.5-34T194 247q0-143 104-143 48 0 78.5 34.5T407 248zM428 0l-10 79q-25-46-67.5-69.5T252-14q-97 0-153.5 65T42 243q0 136 59.5 201.5T261 510q56 0 97-21t64-65l12 73h128V0z" glyph-name="adieresis.school" horiz-adv-x="631"/><glyph d="M625-14q-67 0-118 22.5T425 78q-29-43-80-67T221-13q-81 0-130.5 37.5T41 133q0 80 58.5 123.5T264 300h100q-2 56-30.5 74.5T258 393q-94 0-143-57l-60 88q36 43 93 64.5T280 510q54 0 96.5-15.5T448 443q62 67 177 67 61 0 105-19t72-52.5q28-33.5 41.5-78.5t13.5-96q0-14-1-26.5t-3-26.5H518q5-62 35-89.5T638 94q42 0 70 14t45 49l96-58Q788-14 625-14zm-3 414q-43 0-70.5-23.5T519 300h193q-3 52-26 76t-64 24zM258 86q48 0 77 31t29 88v6h-84q-50 0-73-16.5T184 142q0-26 18-41t56-15z" glyph-name="ae" horiz-adv-x="900" unicode="æ"/><glyph d="M41 0zm217 86q49 0 77.5 30.5T364 204v9h-84q-50 0-73-16.5T184 145q0-28 18-43.5T258 86zm117-12q-24-41-65-64T209-13q-75 0-121.5 37.5T41 133q0 81 58.5 126T264 304h100q-3 53-31 71t-75 18q-50 0-84.5-15T115 336l-60 88q72 86 227 86 51 0 94.5-10.5t75-35.5q31.5-25 49.5-66t18-101V0H386zM230 571L101 698v6h174l79-128v-5z" glyph-name="agrave" horiz-adv-x="583" unicode="à"/><glyph d="M42 0zm365 248q0 78-31 111.5T298 393q-51 0-77.5-34T194 247q0-143 104-143 48 0 78.5 34.5T407 248zM428 0l-10 79q-25-46-67.5-69.5T252-14q-97 0-153.5 65T42 243q0 136 59.5 201.5T261 510q56 0 97-21t64-65l12 73h128V0zM244 572L115 699v6h174l79-128v-5z" glyph-name="agrave.school" horiz-adv-x="631"/><glyph d="M41 0zm217 86q49 0 77.5 30.5T364 204v9h-84q-50 0-73-16.5T184 145q0-28 18-43.5T258 86zm117-12q-24-41-65-64T209-13q-75 0-121.5 37.5T41 133q0 81 58.5 126T264 304h100q-3 53-31 71t-75 18q-50 0-84.5-15T115 336l-60 88q72 86 227 86 51 0 94.5-10.5t75-35.5q31.5-25 49.5-66t18-101V0H386zm51 603v-87H137v87z" glyph-name="amacron" horiz-adv-x="583" unicode="ā"/><glyph d="M42 0zm365 248q0 78-31 111.5T298 393q-51 0-77.5-34T194 247q0-143 104-143 48 0 78.5 34.5T407 248zM428 0l-10 79q-25-46-67.5-69.5T252-14q-97 0-153.5 65T42 243q0 136 59.5 201.5T261 510q56 0 97-21t64-65l12 73h128V0zm12 677v-87H151v87z" glyph-name="amacron.school" horiz-adv-x="631"/><glyph d="M563 483h130q0-101-20-184.5T614 152q24-16 49.5-32.5T718 86L648-19q-11 7-28 17.5t-35.5 22q-18.5 11.5-35 22T524 59q-94-73-238-73-56 0-103 11.5T102.5 32Q69 55 50 91t-19 85q0 37 10 66t27.5 52.5Q86 318 109.5 337t49.5 36q-38 53-52.5 94T92 540q0 84 53 129t156 45q97 0 142.5-38T489 567q0-68-37.5-117T344 354q29-29 69-62t94-71q29 49 43.5 114.5T563 483zm-343 56q0-19 9-44.5t36-60.5q52 33 75.5 58t23.5 57q0 59-69 59-38 0-56.5-18T220 539zm75-444q70 0 120 40-59 44-104 81.5T233 288q-29-20-47.5-42T167 189q0-42 32-68t96-26z" glyph-name="ampersand" horiz-adv-x="729" unicode="&amp;"/><glyph d="M567-202q-44-27-101-27-27 0-53 6t-46 20.5q-20 14.5-32.5 38T322-105q0 40 17 70t45 50l-9 59q-24-41-65-64T209-13q-75 0-121.5 37.5T41 133q0 81 58.5 126T264 304h100q-3 53-31 71t-75 18q-50 0-84.5-15T115 336l-60 88q72 86 227 86 51 0 94.5-10.5t75-35.5q31.5-25 49.5-66t18-101V0h-14q-48-4-69.5-31T414-90q0-29 18.5-40t45.5-11q37 0 67 17zM258 86q49 0 77.5 30.5T364 204v9h-84q-50 0-73-16.5T184 145q0-28 18-43.5T258 86z" glyph-name="aogonek" horiz-adv-x="583" unicode="ą"/><glyph d="M429 10l-10 68q-25-46-67.5-69T252-14q-97 0-153.5 64.5T42 243q0 136 59.5 201.5T261 510q56 0 97-21t64-65l12 73h128V0q-55-4-78.5-31T460-90q0-29 18.5-40t45.5-11q17 0 34.5 4t32.5 13l22-78q-44-27-101-27-27 0-52.5 6t-46 20.5q-20.5 14.5-33 38T368-105q0 40 17.5 68.5T429 10zm-22 238q0 78-30.5 111.5T298 393q-51 0-77.5-34T194 247q0-143 104-143 48 0 78.5 34.5T407 248z" glyph-name="aogonek.school" horiz-adv-x="631"/><glyph d="M350 409q20 0 52 6t58 23v-93q-23-13-56-19.5t-62-6.5q-27 0-49.5 5.5t-43 11.5q-20.5 6-41 11.5T163 353q-21 0-53-5.5T50 325v93q23 13 55 19t61 6q28 0 50.5-5.5T260 426q21-6 42.5-11.5T350 409zm0-152q20 0 52 6t58 23v-92q-23-13-56-19.5t-62-6.5q-27 0-49.5 5.5t-43 11.5q-20.5 6-41 11.5T163 202q-21 0-53-5.5T50 174v92q23 13 55 19t61 6q28 0 50.5-5.5T260 274q21-6 42.5-11.5T350 257z" glyph-name="approxequal" horiz-adv-x="510" unicode="≈"/><glyph d="M41 0zm217 86q49 0 77.5 30.5T364 204v9h-84q-50 0-73-16.5T184 145q0-28 18-43.5T258 86zm117-12q-24-41-65-64T209-13q-75 0-121.5 37.5T41 133q0 81 58.5 126T264 304h100q-3 53-31 71t-75 18q-50 0-84.5-15T115 336l-60 88q72 86 227 86 51 0 94.5-10.5t75-35.5q31.5-25 49.5-66t18-101V0H386zM165 653q0 50 32.5 76.5T280 756q50 0 82-26.5t32-76.5q0-51-32-77.5T279 549q-49 0-81.5 26.5T165 653zm70 0q0-21 12-33.5t32-12.5q20 0 33 12.5t13 33.5q0 21-12.5 33T280 698q-20 0-32.5-12T235 653z" glyph-name="aring" horiz-adv-x="583" unicode="å"/><glyph d="M42 0zm365 248q0 78-31 111.5T298 393q-51 0-77.5-34T194 247q0-143 104-143 48 0 78.5 34.5T407 248zM428 0l-10 79q-25-46-67.5-69.5T252-14q-97 0-153.5 65T42 243q0 136 59.5 201.5T261 510q56 0 97-21t64-65l12 73h128V0zM179 653q0 50 32.5 76.5T294 756q50 0 82-26.5t32-76.5q0-51-32-77.5T293 549q-49 0-81.5 26.5T179 653zm70 0q0-21 12-33.5t32-12.5q20 0 33 12.5t13 33.5q0 21-12.5 33T294 698q-20 0-32.5-12T249 653z" glyph-name="aring.school" horiz-adv-x="631"/><glyph d="M173 700h146l147-331v-3H333l-90 218-90-218H25v3z" glyph-name="asciicircum" horiz-adv-x="491" unicode="^"/><glyph d="M424 425l112-17q-5-79-46.5-119T385 249q-30 0-56.5 8.5T277 277q-24 11-46 19.5t-44 8.5q-20 0-34-13t-16-42L25 267q5 79 46.5 119T178 426q30 0 56.5-8.5T285 399q24-11 46-19.5t43-8.5q22 0 35 12.5t15 41.5z" glyph-name="asciitilde" horiz-adv-x="561" unicode="~"/><glyph d="M147 325l-93 74 73 88-103 28 30 110 106-35-7 124h128l-7-124 107 35 30-111-103-27 73-88-94-74-70 98z" glyph-name="asterisk" horiz-adv-x="439" unicode="*"/><glyph d="M684-5q-45-48-112.5-74.5T416-106q-83 0-148.5 25T157-10.5Q112 35 88 99.5T64 242q0 78 24 142t69 109.5q45 45.5 110.5 70T416 588q81 0 143.5-23T664 499q42-43 64-103t22-133q0-89-44-138T582 76q-39 0-65.5 13.5T479 132q-17-29-47-46t-72-17q-52 0-84.5 26T243 170q0 56 40.5 84.5T396 283h66q-2 37-22 49t-53 12q-65 0-95-38l-40 60q49 60 151 60 35 0 64.5-7.5t51.5-25q22-17.5 34-45.5t12-69v-90q0-28 10.5-42t36.5-14q37 0 60.5 32t23.5 98q0 70-20.5 121.5t-57.5 86Q581 505 529.5 522T416 539q-65 0-119.5-18.5t-94-55.5Q163 428 141 372t-22-130q0-75 22-131t61.5-92.5q39.5-36.5 94-55T417-55q72 0 131 21.5T648 32zM387 137q34 0 54 21t21 59v6h-60q-33 0-49-10.5T337 178q0-41 50-41z" glyph-name="at" horiz-adv-x="815" unicode="@"/><glyph d="M64 2zm620 101q-45-48-112.5-74.5T416 2q-83 0-148.5 25T157 97.5q-45 45.5-69 110T64 350q0 78 24 142t69 109.5q45 45.5 110.5 70T416 696q81 0 143.5-23T664 607q42-43 64-103t22-133q0-89-44-138t-124-49q-39 0-65.5 13.5T479 240q-17-29-47-46t-72-17q-52 0-84.5 26T243 278q0 56 40.5 84.5T396 391h66q-2 37-22 49t-53 12q-65 0-95-38l-40 60q49 60 151 60 35 0 64.5-7.5t51.5-25q22-17.5 34-45.5t12-69v-90q0-28 10.5-42t36.5-14q37 0 60.5 32t23.5 98q0 70-20.5 121.5t-57.5 86Q581 613 529.5 630T416 647q-65 0-119.5-18.5t-94-55.5Q163 536 141 480t-22-130q0-75 22-131t61.5-92.5q39.5-36.5 94-55T417 53q72 0 131 21.5T648 140zM387 245q34 0 54 21t21 59v6h-60q-33 0-49-10.5T337 286q0-41 50-41z" glyph-name="at.cap" horiz-adv-x="815"/><glyph d="M41 0zm217 86q49 0 77.5 30.5T364 204v9h-84q-50 0-73-16.5T184 145q0-28 18-43.5T258 86zm117-12q-24-41-65-64T209-13q-75 0-121.5 37.5T41 133q0 81 58.5 126T264 304h100q-3 53-31 71t-75 18q-50 0-84.5-15T115 336l-60 88q72 86 227 86 51 0 94.5-10.5t75-35.5q31.5-25 49.5-66t18-101V0H386zm-8 626h95q3-35-6-58.5T432 604q-15-14-34-20t-38-6q-23 0-42 5.5T282 595q-17 6-32 11.5t-29 5.5q-17 0-22.5-10.5T193 578H98q-2 35 6.5 58.5t23.5 38q15 14.5 34 20.5t38 6q23 0 42-5.5t36-12q17-6.5 32-12t29-5.5q18 0 23 10t5 24z" glyph-name="atilde" horiz-adv-x="583" unicode="ã"/><glyph d="M42 0zm365 248q0 78-31 111.5T298 393q-51 0-77.5-34T194 247q0-143 104-143 48 0 78.5 34.5T407 248zM428 0l-10 79q-25-46-67.5-69.5T252-14q-97 0-153.5 65T42 243q0 136 59.5 201.5T261 510q56 0 97-21t64-65l12 73h128V0zm-47 700h95q3-35-6-58.5T446 604q-15-14-34-20t-38-6q-23 0-42 5.5T296 595q-17 6-32 11.5t-29 5.5q-17 0-22.5-10.5T207 578h-95q-2 35 6.5 58.5t23.5 38q15 14.5 34 20.5t38 6q23 0 42-5.5t36-12q17-6.5 32-12t29-5.5q18 0 23 10t5 24z" glyph-name="atilde.school" horiz-adv-x="631"/><glyph d="M227 700V427q27 43 68.5 63t94.5 20q94 0 147.5-63.5T591 255q0-125-56.5-197T368-14q-57 0-99.5 21T200 70l-9-70H69v700zm-3-455q0-75 30-109t78-34q107 0 107 144 0 78-27.5 112T334 392q-49 0-79.5-34.5T224 245z" glyph-name="b" horiz-adv-x="633" unicode="b"/><glyph d="M382 0L3 700h171L553 0z" glyph-name="backslash" horiz-adv-x="561" unicode="\"/><glyph d="M87-65v831h142V-65z" glyph-name="bar" horiz-adv-x="315" unicode="|"/><glyph d="M332-138q-45 2-82 13t-63.5 31Q160-74 145-45t-15 68q0 34 4 63.5t4 60.5q0 48-27 69.5T31 238H5v113h26q53 0 80 21.5t27 69.5q0 31-4 60.5t-4 64.5q0 38 15 67t41.5 49q26.5 20 63.5 31t82 13l18-123q-88-3-88-83 0-28 4-54t4-55q0-42-21.5-70.5T186 295q41-19 62.5-48t21.5-70q0-29-4-55t-4-54q0-80 88-83z" glyph-name="braceleft" horiz-adv-x="380" unicode="{"/><glyph d="M28-15q88 3 88 83 0 28-4 54t-4 55q0 41 21.5 70t62.5 48q-41 18-62.5 46.5T108 412q0 29 4 55t4 54q0 80-88 83l18 123q45-2 82-13t63.5-31q26.5-20 41.5-49t15-67q0-35-4-64.5t-4-60.5q0-48 27-69.5t80-21.5h26V238h-26q-53 0-80-21.5T240 147q0-31 4-60.5t4-63.5q0-39-15-68t-41.5-49Q165-114 128-125t-82-13z" glyph-name="braceright" horiz-adv-x="380" unicode="}"/><glyph d="M64-151v868h265V603H206V-37h125v-114z" glyph-name="bracketleft" horiz-adv-x="358" unicode="["/><glyph d="M27-151v114h125v640H29v114h265v-868z" glyph-name="bracketright" horiz-adv-x="358" unicode="]"/><glyph d="M374 704h97q0-40-11.5-67T426 594q-22-16-54-23t-72-7q-41 0-72.5 7T174 594q-22 16-33.5 43T129 704h97q0-36 18-49t56-13q38 0 56 13t18 49z" glyph-name="breve" horiz-adv-x="600" unicode="˘"/><glyph d="M87 383v383h142V383zm0-448v383h142V-65z" glyph-name="brokenbar" horiz-adv-x="315" unicode="¦"/><glyph d="M49 327q0 74 44.5 119T216 491q78 0 122-45t44-119q0-75-44-119.5T216 163q-78 0-122.5 44.5T49 327z" glyph-name="bullet" horiz-adv-x="431" unicode="•"/><glyph d="M294-14q-58 0-104.5 15T110 47.5Q77 79 59.5 129T42 248q0 136 68 199t191 63q78 0 130-26.5t84-83.5l-108-77q-17 34-42.5 48.5T303 386q-54 0-81.5-29.5T194 247q0-72 25-107.5t83-35.5q81 0 110 68l109-62q-32-62-87-93T294-14z" glyph-name="c" horiz-adv-x="541" unicode="c"/><glyph d="M42 0zm436 698L349 571H227v5l81 128h170zM294-14q-58 0-104.5 15T110 47.5Q77 79 59.5 129T42 248q0 136 68 199t191 63q78 0 130-26.5t84-83.5l-108-77q-17 34-42.5 48.5T303 386q-54 0-81.5-29.5T194 247q0-72 25-107.5t83-35.5q81 0 110 68l109-62q-32-62-87-93T294-14z" glyph-name="cacute" horiz-adv-x="541" unicode="ć"/><glyph d="M303 647l62 57h124v-2L365 571H234L110 702v2h131z" glyph-name="caron" horiz-adv-x="600" unicode="ˇ"/><glyph d="M361 441H259l7 259h128z" glyph-name="caronSlovak" horiz-adv-x="600"/><glyph d="M42 0zm262 647l62 57h124v-2L366 571H235L111 702v2h131zM294-14q-58 0-104.5 15T110 47.5Q77 79 59.5 129T42 248q0 136 68 199t191 63q78 0 130-26.5t84-83.5l-108-77q-17 34-42.5 48.5T303 386q-54 0-81.5-29.5T194 247q0-72 25-107.5t83-35.5q81 0 110 68l109-62q-32-62-87-93T294-14z" glyph-name="ccaron" horiz-adv-x="541" unicode="č"/><glyph d="M290-251q-45 0-82 17t-59 52l54 55q15-23 33.5-35.5T284-175q21 0 35.5 8.5T334-139q0 17-14 27t-39 10q-6 0-11.5-.5T258-104l-23 15 25 76Q159-5 100.5 57.5T42 248q0 136 68 199t191 63q78 0 130-26.5t84-83.5l-108-77q-17 34-42.5 48.5T303 386q-54 0-81.5-29.5T194 247q0-72 25-107.5t83-35.5q81 0 110 68l109-62q-27-53-71.5-83T340-11l-14-39h1q20-2 38.5-8T398-75.5q14-11.5 22.5-28T429-142q0-28-11.5-48.5t-30.5-34q-19-13.5-44-20t-53-6.5z" glyph-name="ccedilla" horiz-adv-x="541" unicode="ç"/><glyph d="M42 0zm258 629l-61-58H114v4l123 129h131l125-129v-4H361zm-6-643q-58 0-104.5 15T110 47.5Q77 79 59.5 129T42 248q0 136 68 199t191 63q78 0 130-26.5t84-83.5l-108-77q-17 34-42.5 48.5T303 386q-54 0-81.5-29.5T194 247q0-72 25-107.5t83-35.5q81 0 110 68l109-62q-32-62-87-93T294-14z" glyph-name="ccircumflex" horiz-adv-x="541" unicode="ĉ"/><glyph d="M42 0zm252-14q-58 0-104.5 15T110 47.5Q77 79 59.5 129T42 248q0 136 68 199t191 63q78 0 130-26.5t84-83.5l-108-77q-17 34-42.5 48.5T303 386q-54 0-81.5-29.5T194 247q0-72 25-107.5t83-35.5q81 0 110 68l109-62q-32-62-87-93T294-14zm-79 659q0 38 23 56.5t65 18.5q42 0 64-18.5t22-56.5q0-38-22-56.5T303 570q-42 0-65 18.5T215 645z" glyph-name="cdotaccent" horiz-adv-x="541" unicode="ċ"/><glyph d="M295 0h80l-18-50h1q20-2 38.5-8T429-75.5q14-11.5 22.5-28T460-142q0-28-11.5-48.5t-30.5-34q-19-13.5-44-20t-53-6.5q-45 0-82 17t-59 52l54 55q15-23 33.5-35.5T315-175q21 0 35.5 8.5T365-139q0 17-14 27t-39 10q-6 0-11.5-.5T289-104l-23 15z" glyph-name="cedilla" horiz-adv-x="600" unicode="¸"/><glyph d="M261-62V7q-102 9-156.5 68.5T50 257q0 120 54 181t157 71v70h80v-70q119-12 169-108l-97-66q-25 46-72 55V122q27 5 45 20t31 42l102-54q-26-55-71.5-85T341 8v-70zm-72 317q0-60 17.5-91t54.5-40v265q-38-9-55-40t-17-94z" glyph-name="cent" horiz-adv-x="550" unicode="¢"/><glyph d="M299 629l-61-58H113v4l123 129h131l125-129v-4H360z" glyph-name="circumflex" horiz-adv-x="600" unicode="ˆ"/><glyph d="M41 0zm0 74q0 42 23 62.5t65 20.5q42 0 64.5-20.5T216 74q0-39-22.5-60T129-7Q87-7 64 13.5T41 74zm0 340q0 42 23 62.5t65 20.5q42 0 64.5-20.5T216 414q0-39-22.5-60T129 333q-42 0-65 20.5T41 414z" glyph-name="colon" horiz-adv-x="257" unicode=":"/><glyph d="M73-150L41-85q30 9 51 29t29 50Q81-4 60.5 17T40 75q0 41 23 61.5t64 20.5q43 0 67-25t24-79q0-79-37-132T73-150z" glyph-name="comma" horiz-adv-x="257" unicode=","/><glyph d="M247-333l-28 58q32 8 53 27.5t28 46.5h-2q-38 0-60.5 18T215-130q0 38 22 56.5T299-55q41 0 64-24t23-75q0-34-10-64t-28-53.5Q330-295 304.5-311T247-333z" glyph-name="commaaccent" horiz-adv-x="600" unicode=""/><glyph d="M65 350q0 78 23.5 142T157 601q45 45 110.5 70T416 696q83 0 148-25t110-70q45-45 68.5-109T766 350q0-78-23.5-142T674 98.5Q629 53 564 28T416 3q-83 0-148.5 25T157 98.5Q112 144 88.5 208T65 350zm55 0q0-75 22-130.5t61-92q39-36.5 93.5-55T416 54q65 0 119.5 18.5t93.5 55q39 36.5 61 92T712 350q0 75-22 130.5T629 573q-39 37-93.5 55.5T416 647q-65 0-119.5-18.5T203 573q-39-37-61-92.5T120 350zm302-188q-91 0-140 46t-49 146q0 100 48.5 147.5T424 549q60 0 98-21t60-60l-80-57q-12 26-31 37t-46 11q-44 0-64-24.5T341 353q0-56 21-79t63-23q30 0 50 11t31 37l80-45q-23-47-65-69.5T422 162z" glyph-name="copyright" horiz-adv-x="831" unicode="©"/><glyph d="M213 340q-83 0-132 44T32 527q0 98 49 142.5T218 714q110 0 153-78l-80-58q-23 46-71 46-38 0-57-21t-19-76q0-51 17-75t58-24q55 0 76 46l80-45q-22-45-61.5-67T213 340z" glyph-name="cordinal" horiz-adv-x="393"/><glyph d="M408 248q0 78-31.5 111.5T297 393q-51 0-77-34t-26-112q0-143 104-143 48 0 79 34.5T408 248zM429 0l-8 77q-25-45-67.5-68T251-14q-96 0-153 65T41 243q0 132 60 199.5T260 510q97 0 146-68v258h158V0z" glyph-name="d" horiz-adv-x="632" unicode="d"/><glyph d="M284 493h-66l-2-224H98v224H31v105h65l-2 116h128l-3-116h65z" glyph-name="dagger" horiz-adv-x="316" unicode="†"/><glyph d="M31 468h68v50H31v105h65l-2 91h128l-3-91h65V518h-67v-50h67V363h-65l3-94H94l2 94H31z" glyph-name="daggerdbl" horiz-adv-x="316" unicode="‡"/><glyph d="M41 0zm694 441H633l7 259h128zM408 248q0 78-31.5 111.5T297 393q-51 0-77-34t-26-112q0-143 104-143 48 0 79 34.5T408 248zM429 0l-8 77q-25-45-67.5-68T251-14q-96 0-153 65T41 243q0 132 60 199.5T260 510q97 0 146-68v258h158V0z" glyph-name="dcaron" horiz-adv-x="749" unicode="ď"/><glyph d="M408 248q0 75-30.5 108.5T299 390q-51 0-78-34.5T194 247q0-143 105-143 48 0 78.5 35T408 248zm219 381v-83h-63V0H429l-9 81q-24-45-66.5-70T251-14q-97 0-153.5 64.5T41 241q0 130 60 196.5T260 504q97 0 145-65v107H273v83h132v71h159v-71z" glyph-name="dcroat" horiz-adv-x="645" unicode="đ"/><glyph d="M236 349q-89 0-137 50.5T51 532q0 83 48 132.5T236 714q88 0 136-49.5T420 532q0-82-48-132.5T236 349zm0 280q-41 0-65.5-24.5T146 532q0-49 24.5-73t65.5-24q39 0 63.5 24t24.5 73q0 48-24.5 72.5T236 629z" glyph-name="degree" horiz-adv-x="470" unicode="°"/><glyph d="M328 645q0 38 22 56t62 18q40 0 61.5-18t21.5-56q0-38-21.5-56.5T412 570q-40 0-62 18.5T328 645zm-210 0q0 38 22 56t61 18q40 0 61.5-18t21.5-56q0-38-21.5-56.5T201 570q-39 0-61 18.5T118 645z" glyph-name="dieresis" horiz-adv-x="600" unicode="¨"/><glyph d="M179 488q0 34 21 54t54 20q34 0 55.5-20t21.5-54q0-32-21.5-52.5T254 415q-33 0-54 20.5T179 488zm281-131v-93H50v93zM179 134q0 34 21 54t54 20q34 0 55.5-20t21.5-54q0-33-21.5-53.5T254 60q-33 0-54 20.5T179 134z" glyph-name="divide" horiz-adv-x="510" unicode="÷"/><glyph d="M266 428v146q-40-5-57-22t-17-45q0-29 18-47.5t56-31.5zm79-304q77 12 77 73 0 26-17 42.5T345 270zm0-186h-79V6q-73 5-133 34.5T34 135l101 77q26-39 57-60.5t74-27.5v165l-9 2q-101 23-153 75.5T52 501q0 81 53 132.5T266 693v73h79v-73q69-7 120-35.5t83-84.5l-105-72q-20 29-42.5 46.5T345 572V408l12-3q60-14 100.5-33t65-43q24.5-24 35-54t10.5-66q0-92-56.5-143.5T345 6z" glyph-name="dollar" horiz-adv-x="602" unicode="$"/><glyph d="M213 645q0 38 23 56.5t65 18.5q42 0 64-18.5t22-56.5q0-38-22-56.5T301 570q-42 0-65 18.5T213 645z" glyph-name="dotaccent" horiz-adv-x="600" unicode="˙"/><glyph d="M70 497h158V0H70z" glyph-name="dotlessi" horiz-adv-x="298" unicode="ı"/><glyph d="M70-20v517h158V-30q0-49-14-85t-39.5-59.5q-25.5-23.5-61-35T35-221q-26 0-53.5 5T-71-199l25 105q12-5 24-8t28-3q32 0 48 18.5T70-20z" glyph-name="dotlessj" horiz-adv-x="298" unicode="ȷ"/><glyph d="M295-65v831h142V-65zM87-65v831h142V-65z" glyph-name="doublebar" horiz-adv-x="524"/><glyph d="M299-14q-59 0-107 15.5t-81.5 48Q77 82 59 130.5T41 245q0 126 66 195.5T295 510q62 0 106.5-19.5t73-53Q503 404 516 358t13-99q0-13-1-26t-3-28H191q5-60 35.5-85.5T311 94q41 0 68.5 14t46.5 49l95-58q-31-58-87.5-85.5T299-14zm-7 414q-44 0-70-25t-31-79h193q-6 104-92 104z" glyph-name="e" horiz-adv-x="572" unicode="e"/><glyph d="M41 0zm426 698L338 571H216v5l81 128h170zM299-14q-59 0-107 15.5t-81.5 48Q77 82 59 130.5T41 245q0 126 66 195.5T295 510q62 0 106.5-19.5t73-53Q503 404 516 358t13-99q0-13-1-26t-3-28H191q5-60 35.5-85.5T311 94q41 0 68.5 14t46.5 49l95-58q-31-58-87.5-85.5T299-14zm-7 414q-44 0-70-25t-31-79h193q-6 104-92 104z" glyph-name="eacute" horiz-adv-x="572" unicode="é"/><glyph d="M41 0zm258-14q-59 0-107 15.5t-81.5 48Q77 82 59 130.5T41 245q0 126 66 195.5T295 510q62 0 106.5-19.5t73-53Q503 404 516 358t13-99q0-13-1-26t-3-28H191q5-60 35.5-85.5T311 94q41 0 68.5 14t46.5 49l95-58q-31-58-87.5-85.5T299-14zm-7 414q-44 0-70-25t-31-79h193q-6 104-92 104zm70 304h97q0-40-11.5-67T414 594q-22-16-54-23t-72-7q-41 0-72.5 7T162 594q-22 16-33.5 43T117 704h97q0-36 18-49t56-13q38 0 56 13t18 49z" glyph-name="ebreve" horiz-adv-x="572" unicode="ĕ"/><glyph d="M41 0zm252 647l62 57h124v-2L355 571H224L100 702v2h131zm6-661q-59 0-107 15.5t-81.5 48Q77 82 59 130.5T41 245q0 126 66 195.5T295 510q62 0 106.5-19.5t73-53Q503 404 516 358t13-99q0-13-1-26t-3-28H191q5-60 35.5-85.5T311 94q41 0 68.5 14t46.5 49l95-58q-31-58-87.5-85.5T299-14zm-7 414q-44 0-70-25t-31-79h193q-6 104-92 104z" glyph-name="ecaron" horiz-adv-x="572" unicode="ě"/><glyph d="M41 0zm246 629l-61-58H101v4l123 129h131l125-129v-4H348zm12-643q-59 0-107 15.5t-81.5 48Q77 82 59 130.5T41 245q0 126 66 195.5T295 510q62 0 106.5-19.5t73-53Q503 404 516 358t13-99q0-13-1-26t-3-28H191q5-60 35.5-85.5T311 94q41 0 68.5 14t46.5 49l95-58q-31-58-87.5-85.5T299-14zm-7 414q-44 0-70-25t-31-79h193q-6 104-92 104z" glyph-name="ecircumflex" horiz-adv-x="572" unicode="ê"/><glyph d="M41 0zm268 645q0 38 22 56t62 18q40 0 61.5-18t21.5-56q0-38-21.5-56.5T393 570q-40 0-62 18.5T309 645zm-210 0q0 38 22 56t61 18q40 0 61.5-18t21.5-56q0-38-21.5-56.5T182 570q-39 0-61 18.5T99 645zM299-14q-59 0-107 15.5t-81.5 48Q77 82 59 130.5T41 245q0 126 66 195.5T295 510q62 0 106.5-19.5t73-53Q503 404 516 358t13-99q0-13-1-26t-3-28H191q5-60 35.5-85.5T311 94q41 0 68.5 14t46.5 49l95-58q-31-58-87.5-85.5T299-14zm-7 414q-44 0-70-25t-31-79h193q-6 104-92 104z" glyph-name="edieresis" horiz-adv-x="572" unicode="ë"/><glyph d="M41 0zm258-14q-59 0-107 15.5t-81.5 48Q77 82 59 130.5T41 245q0 126 66 195.5T295 510q62 0 106.5-19.5t73-53Q503 404 516 358t13-99q0-13-1-26t-3-28H191q5-60 35.5-85.5T311 94q41 0 68.5 14t46.5 49l95-58q-31-58-87.5-85.5T299-14zm-7 414q-44 0-70-25t-31-79h193q-6 104-92 104zm-91 245q0 38 23 56.5t65 18.5q42 0 64-18.5t22-56.5q0-38-22-56.5T289 570q-42 0-65 18.5T201 645z" glyph-name="edotaccent" horiz-adv-x="572" unicode="ė"/><glyph d="M41 0zm258-14q-59 0-107 15.5t-81.5 48Q77 82 59 130.5T41 245q0 126 66 195.5T295 510q62 0 106.5-19.5t73-53Q503 404 516 358t13-99q0-13-1-26t-3-28H191q5-60 35.5-85.5T311 94q41 0 68.5 14t46.5 49l95-58q-31-58-87.5-85.5T299-14zm-7 414q-44 0-70-25t-31-79h193q-6 104-92 104zm-54 171L109 698v6h174l79-128v-5z" glyph-name="egrave" horiz-adv-x="572" unicode="è"/><glyph d="M311-14q-133 0-203 53.5T38 195q0 68 32.5 110t88.5 60q-45 20-70 58.5T64 518q0 101 63 148.5T312 714q123 0 186-47.5T561 519q0-57-25.5-95.5T465 365q55-18 88-59.5T586 195q0-102-69.5-155.5T311-14zm109 525q0 43-28 66t-79 23q-52 0-80.5-23T204 511q0-42 28.5-66t80.5-24q51 0 79 24t28 66zm13-313q0 48-32.5 73.5T314 297q-57 0-90-25.5T191 198q0-50 32.5-75T313 98q55 0 87.5 25t32.5 75z" glyph-name="eight" horiz-adv-x="625" unicode="8"/><glyph d="M334-14q-136 0-207.5 53.5T55 193q0 69 34 111.5t91 60.5q-46 20-72.5 58.5T81 518q0 99 64 147.5T334 714q125 0 189.5-48.5T588 519q0-57-26.5-95.5T489 365q57-19 91-61t34-111q0-100-71.5-153.5T334-14zm109 525q0 43-28.5 66T336 600q-53 0-81.5-23T226 511q0-42 28.5-66t80.5-24q52 0 80 24t28 66zm13-313q0 48-33 73.5T336 297q-57 0-90-25.5T213 198q0-50 32.5-75T335 98q56 0 88.5 25t32.5 75z" glyph-name="eight.LP" horiz-adv-x="669"/><glyph d="M323-14q-132 0-200.5 53.5T54 195q0 68 31.5 110t86.5 60q-44 20-69 58.5T78 518q0 101 62 148.5T323 714q121 0 183.5-47.5T569 519q0-57-25-95.5T475 365q54-18 86-59.5T593 195q0-102-68-155.5T323-14zm103 525q0 43-26.5 66T325 600q-51 0-78-23t-27-66q0-42 26.5-66t76.5-24q51 0 77 24t26 66zm13-313q0 48-31 73.5T325 297q-54 0-85.5-25.5T208 198q0-50 30.5-74.5T323 99q54 0 85 24.5t31 74.5z" glyph-name="eight.OP" horiz-adv-x="647"/><glyph d="M306-14q-134 0-203.5 53.5T33 195q0 68 32.5 110t88.5 60q-45 20-70.5 58.5T58 518q0 101 63.5 148.5T307 714q122 0 185-47.5T555 519q0-57-25.5-95.5T459 365q56-18 88.5-59.5T580 195q0-102-69-155.5T306-14zm109 525q0 43-28.5 66T308 600q-52 0-80.5-23T199 511q0-42 28-66t80-24q51 0 79.5 24t28.5 66zm12-313q0 48-32.5 73.5T308 297q-56 0-89-25.5T186 198q0-50 32.5-75T307 98q55 0 87.5 25t32.5 75z" glyph-name="eight.OT" horiz-adv-x="625"/><glyph d="M31 0zm172-212q-84 0-128 31T31-87q0 39 17.5 63.5T98 13Q75 27 60.5 49T46 101q0 61 40 90t117 29q78 0 118-29t40-90q0-30-14.5-52T308 13q67-24 67-100 0-125-172-125zm55 308q0 20-14.5 31T204 138q-26 0-40.5-11T149 96q0-22 14-33.5T203 51q26 0 40.5 11.5T258 96zm5-181q0 23-15.5 35.5T205-37q-29 0-45.5-12.5T143-85q0-23 16-35.5t44-12.5q29 0 44.5 12.5T263-85z" glyph-name="eight.inf" horiz-adv-x="410"/><glyph d="M555 74q0 42 23 62.5t65 20.5q42 0 64-20.5T729 74q0-39-22-60T643-7q-42 0-65 20.5T555 74zm-258 0q0 42 23 62.5t65 20.5q88 0 88-83 0-39-22.5-60T385-7q-42 0-65 20.5T297 74zM41 74q0 42 23 62.5t65 20.5q42 0 64.5-20.5T216 74q0-39-22.5-60T129-7Q87-7 64 13.5T41 74z" glyph-name="ellipsis" horiz-adv-x="771" unicode="…"/><glyph d="M41 0zm258-14q-59 0-107 15.5t-81.5 48Q77 82 59 130.5T41 245q0 126 66 195.5T295 510q62 0 106.5-19.5t73-53Q503 404 516 358t13-99q0-13-1-26t-3-28H191q5-60 35.5-85.5T311 94q41 0 68.5 14t46.5 49l95-58q-31-58-87.5-85.5T299-14zm-7 414q-44 0-70-25t-31-79h193q-6 104-92 104zm142 277v-87H145v87z" glyph-name="emacron" horiz-adv-x="572" unicode="ē"/><glyph d="M740 328V205H50v123z" glyph-name="emdash" horiz-adv-x="789" unicode="—"/><glyph d="M740 412V289H50v123z" glyph-name="emdash.cap" horiz-adv-x="789"/><glyph glyph-name="emspace" horiz-adv-x="1000"/><glyph d="M541 328V205H50v123z" glyph-name="endash" horiz-adv-x="589" unicode="–"/><glyph d="M541 412V289H50v123z" glyph-name="endash.cap" horiz-adv-x="589"/><glyph d="M424-20v279q0 65-22 89.5T336 373q-48 0-78-32t-31-97V0H69v497h131l14-89q28 52 75.5 77T397 510q48 0 83-14t57.5-40q22.5-26 33.5-62.5t11-81.5V-30q0-98-53-144.5T390-221q-26 0-53.5 5T283-199l25 105q12-5 24.5-8t28.5-3q32 0 47.5 18.5T424-20z" glyph-name="eng" horiz-adv-x="646" unicode="ŋ"/><glyph glyph-name="enspace" horiz-adv-x="500"/><glyph d="M233-106q0 29 8.5 52.5T265-12Q161-4 101 59.5T41 245q0 126 66 195.5T295 510q62 0 106.5-19.5t73-53Q503 404 516 358t13-99q0-13-1-26t-3-28H190q6-60 37-85.5T311 94q41 0 68.5 14t46.5 49l95-58q-21-41-56-66.5T385-4q-28-11-43.5-33T326-88q0-31 18.5-42t45.5-11q37 0 67 17l21-78q-42-27-100-27-27 0-53 6t-46.5 20.5q-20.5 14.5-33 38T233-106zm59 506q-44 0-70.5-25T190 296h194q-4 104-92 104z" glyph-name="eogonek" horiz-adv-x="572" unicode="ę"/><glyph d="M460 430v-93H50v93zm0-149v-93H50v93z" glyph-name="equal" horiz-adv-x="510" unicode="="/><glyph d="M28 0zm259 64V-8H28v72zm0-97v-72H28v72z" glyph-name="equal.inf" horiz-adv-x="315"/><glyph d="M483 734l35-52-68-43q59-63 87-153.5T565 283v-25q0-143-66.5-207.5T304-14q-130 0-196.5 62.5T41 241q0 66 17 114t49 79q32 31 77.5 46T287 495q69 0 113-35-18 63-60 108l-78-50-35 51 60 40q-23 14-50 24.5T178 652l37 99q110-15 186-70zm-69-494q0 75-26.5 108.5T304 382q-59 0-86-33.5T191 240q0-75 28-107t85-32q56 0 83 32t27 107z" glyph-name="eth" horiz-adv-x="606" unicode="ð"/><glyph d="M208 701l-23-484H71L47 701zM41 74q0 42 22.5 62.5T128 157q42 0 65-20.5T216 74q0-39-23-60T128-7Q86-7 63.5 13.5T41 74z" glyph-name="exclam" horiz-adv-x="256" unicode="!"/><glyph d="M48-194l23 484h114l24-484zm167 627q0-42-22.5-62.5T128 350q-42 0-65 20.5T40 433q0 39 23 60t65 21q42 0 64.5-20.5T215 433z" glyph-name="exclamdown" horiz-adv-x="256" unicode="¡"/><glyph d="M50-1l23 484h114L211-1zm167 627q0-42-22.5-62.5T130 543q-42 0-65 20.5T42 626q0 39 23 60t65 21q42 0 64.5-20.5T217 626z" glyph-name="exclamdown.cap" horiz-adv-x="258"/><glyph d="M16 497h81v38q0 102 52 148.5T285 730q29 0 62.5-6.5T402 703l-27-103q-24 14-57 14t-50-18.5Q251 577 251 532v-35h130V382H251V0H97v382H16z" glyph-name="f" horiz-adv-x="392" unicode="f"/><glyph d="M451 643q0 43 23.5 62.5T542 725q43 0 67-19.5t24-62.5q0-42-24-61.5T542 562q-44 0-67.5 19.5T451 643zM97 0v382H16v115h81v38q0 51 13.5 88t38 60.5q24.5 23.5 58.5 35t76 11.5q29 0 62.5-6.5T400 703l-27-103q-24 14-57 14-32 0-48.5-18.5T251 532v-35h130V382H251V0zm365 497h158V0H462z" glyph-name="fi" horiz-adv-x="691" unicode="ﬁ"/><glyph d="M541 328V205H50v123z" glyph-name="figuredash" horiz-adv-x="589" unicode="‒"/><glyph d="M541 412V289H50v123z" glyph-name="figuredash.cap" horiz-adv-x="589"/><glyph glyph-name="figurespace" horiz-adv-x="625"/><glyph d="M228 573l-14-147q27 14 61 20.5t70 6.5q54 0 98.5-13.5t76-41.5q31.5-28 48.5-69.5t17-97.5q0-115-71-180T305-14q-86 0-154.5 29T40 110l108 81q26-43 62-64t87-21q65 0 99 32.5t34 89.5q0 59-34.5 85T305 339q-44 0-76-12.5T172 291l-99 48 32 361h450V573z" glyph-name="five" horiz-adv-x="625" unicode="5"/><glyph d="M215 573l-14-147q28 14 62 20.5t71 6.5q112 0 178-55t66-167q0-115-71.5-180T294-14q-88 0-158.5 29T23 110l110 81q53-83 152-83 66 0 100 32t34 88q0 59-35 85t-91 26q-45 0-77.5-12.5T159 291L56 339l32 361h461V573z" glyph-name="five.LP" horiz-adv-x="610"/><glyph d="M210 475l-14-149q26 14 59 20.5t68 6.5q54 0 97.5-13.5t74-41.5q30.5-28 47.5-69.5t17-98.5q0-115-69.5-179.5T285-114q-87 0-155 29T20 10l108 81q26-45 61-65t86-20q61 0 94.5 32.5T403 127q0 60-33 86t-90 26q-40 0-71-12.5T154 191L53 239l32 361h445V475z" glyph-name="five.OP" horiz-adv-x="588"/><glyph d="M222 473l-14-147q27 14 61 20.5t71 6.5q54 0 98-13.5t75.5-41.5q31.5-28 48.5-69.5t17-97.5q0-115-70.5-180T300-114q-86 0-155 29T34 10l108 81q27-43 63-64t86-21q64 0 99 32.5t35 89.5q0 59-35 85t-90 26q-44 0-76.5-12.5T167 191L67 239l33 361h449V473z" glyph-name="five.OT" horiz-adv-x="625"/><glyph d="M11 0zm132 121l-8-67q33 11 71 11 72 0 111-33t39-99q0-69-44.5-107T181-212q-54 0-98.5 17T11-138q0 1 12.5 9.5t26.5 19L76-90l13 9q30-43 85-43 32 0 49.5 15T241-68q0 29-18.5 42T175-13q-42 0-68-25L33-4l18 212h288v-88z" glyph-name="five.inf" horiz-adv-x="376"/><glyph d="M97 0v382H16v115h81v38q0 102 52 148.5T286 730q35 0 64-8.5t47-20.5l-27-103q-12 6-25.5 10t-28.5 4q-32 0-48.5-17.5T251 532v-35h130V382H251V0zm509 0q-69 0-106.5 32T462 141v559h158V162q0-24 8.5-34.5T663 117h32V0z" glyph-name="fl" horiz-adv-x="708" unicode="ﬂ"/><glyph d="M97 0v382H16v115h81v38q0 102 52 148.5T286 730q35 0 64-8.5t47-20.5l-27-103q-12 6-25.5 10t-28.5 4q-32 0-48.5-17.5T251 532v-35h130V382H251V0zm523 700V0H462v700z" glyph-name="fl.alt" horiz-adv-x="696"/><glyph d="M49-22l45 284H16l18 115h78l9 52q17 102 73 149t139 47q28 0 60.5-6.5T446 598l-41-103q-22 13-53 13-32 0-52-18t-28-63l-8-50h129l-18-115H246L201-30q-15-97-71-144t-141-47q-25 0-53.5 5t-49.5 17l38 105q11-5 22-8t27-3q32 0 50 18t26 65z" glyph-name="florin" horiz-adv-x="415" unicode="ƒ"/><glyph d="M20 152v114l229 434h152L184 285h189v193h150V285h80V152h-80V0H373v152z" glyph-name="four" horiz-adv-x="625" unicode="4"/><glyph d="M33 152v109l212 439h161L198 285h219v268h152V285h91V152h-91V0H417v152z" glyph-name="four.LP" horiz-adv-x="680"/><glyph d="M33 52v107l203 441h155L193 181h211v272h148V181h85V52h-85v-152H404V52z" glyph-name="four.OP" horiz-adv-x="657"/><glyph d="M20 52v114l229 434h152L184 185h189v193h150V185h80V52h-80v-152H373V52z" glyph-name="four.OT" horiz-adv-x="625"/><glyph d="M22 0zm0-119v76l122 252h113L139-26h111v136h108V-26h47v-93h-47v-81H250v81z" glyph-name="four.inf" horiz-adv-x="424"/><glyph glyph-name="fourperemspace" horiz-adv-x="250"/><glyph d="M511 700L165 0H28l348 700z" glyph-name="fraction" horiz-adv-x="558" unicode="⁄"/><glyph d="M405 259q0 69-31 102t-79 33q-104 0-104-136 0-71 26.5-104t77.5-33q50 0 80 34t30 104zm156 238V20q0-62-21-107.5t-58-75q-37-29.5-88-44T282-221q-37 0-71.5 6t-64 18.5Q117-184 93.5-163T55-112l89 77q23-40 56.5-56.5T276-108q60 0 94 30t34 96v71Q357 6 248 6 154 6 97 68.5T40 256q0 127 59 190.5T257 510q56 0 97.5-21t65.5-64l13 72z" glyph-name="g" horiz-adv-x="630" unicode="g"/><glyph d="M40 0zm365 259q0 69-31 102t-79 33q-104 0-104-136 0-71 26.5-104t77.5-33q50 0 80 34t30 104zm156 238V20q0-62-21-107.5t-58-75q-37-29.5-88-44T282-221q-37 0-71.5 6t-64 18.5Q117-184 93.5-163T55-112l89 77q23-40 56.5-56.5T276-108q60 0 94 30t34 96v71Q357 6 248 6 154 6 97 68.5T40 256q0 127 59 190.5T257 510q56 0 97.5-21t65.5-64l13 72zM365 704h97q0-40-11.5-67T417 594q-22-16-54-23t-72-7q-41 0-72.5 7T165 594q-22 16-33.5 43T120 704h97q0-36 18-49t56-13q38 0 56 13t18 49z" glyph-name="gbreve" horiz-adv-x="630" unicode="ğ"/><glyph d="M40 0zm251 629l-61-58H105v4l123 129h131l125-129v-4H352zm114-370q0 69-31 102t-79 33q-104 0-104-136 0-71 26.5-104t77.5-33q50 0 80 34t30 104zm156 238V20q0-62-21-107.5t-58-75q-37-29.5-88-44T282-221q-37 0-71.5 6t-64 18.5Q117-184 93.5-163T55-112l89 77q23-40 56.5-56.5T276-108q60 0 94 30t34 96v71Q357 6 248 6 154 6 97 68.5T40 256q0 127 59 190.5T257 510q56 0 97.5-21t65.5-64l13 72z" glyph-name="gcircumflex" horiz-adv-x="630" unicode="ĝ"/><glyph d="M345 838l28-58q-32-8-53-27.5T292 706h2q38 0 60.5-18t22.5-53q0-38-22-56.5T293 560q-41 0-64 24t-23 75q0 34 10 64t28 53.5q18 23.5 43.5 39.5t57.5 22zm60-579q0 69-31 102t-79 33q-104 0-104-136 0-71 26.5-104t77.5-33q50 0 80 34t30 104zm156 238V20q0-62-21-107.5t-58-75q-37-29.5-88-44T282-221q-37 0-71.5 6t-64 18.5Q117-184 93.5-163T55-112l89 77q23-40 56.5-56.5T276-108q60 0 94 30t34 96v71Q357 6 248 6 154 6 97 68.5T40 256q0 127 59 190.5T257 510q56 0 97.5-21t65.5-64l13 72z" glyph-name="gcommaaccent" horiz-adv-x="630" unicode="ģ"/><glyph d="M40 0zm365 259q0 69-31 102t-79 33q-104 0-104-136 0-71 26.5-104t77.5-33q50 0 80 34t30 104zm156 238V20q0-62-21-107.5t-58-75q-37-29.5-88-44T282-221q-37 0-71.5 6t-64 18.5Q117-184 93.5-163T55-112l89 77q23-40 56.5-56.5T276-108q60 0 94 30t34 96v71Q357 6 248 6 154 6 97 68.5T40 256q0 127 59 190.5T257 510q56 0 97.5-21t65.5-64l13 72zM204 645q0 38 23 56.5t65 18.5q42 0 64-18.5t22-56.5q0-38-22-56.5T292 570q-42 0-65 18.5T204 645z" glyph-name="gdotaccent" horiz-adv-x="630" unicode="ġ"/><glyph d="M359 310h-52v119h43q45 0 67.5 24.5T440 516q0 46-29 67t-75 21q-57 0-85.5-32T222 479V0H67v483q0 115 68 178.5T335 725q67 0 114.5-14.5T528 670q31-26 45.5-61.5T588 531q0-53-22-89.5T508 383q61-19 89-66.5T625 206q0-50-17-89.5t-47-67q-30-27.5-72.5-42T395-7q-29 0-57 3.5T287 10l14 112q15-6 29.5-9t31.5-3q50 0 80.5 25t30.5 77q0 46-28 72t-86 26z" glyph-name="germandbls" horiz-adv-x="660" unicode="ß"/><glyph d="M254 571L125 698v6h174l79-128v-5z" glyph-name="grave" horiz-adv-x="600" unicode="`"/><glyph d="M140 76l-59 78 214 152L78 460l62 81 286-203v-58z" glyph-name="greater" horiz-adv-x="501" unicode="&gt;"/><glyph d="M144 145l-47 75 188 119L96 457l49 79 273-168v-53zm279-52V0H86v93z" glyph-name="greaterequal" horiz-adv-x="512" unicode="≥"/><glyph d="M486 0L282 249v3l197 245h157L437 253 645 0zM237 0L41 247v3l195 247h156L196 251 396 0z" glyph-name="guillemotleft" horiz-adv-x="678" unicode="«"/><glyph d="M192 497l204-249v-3L199 0H42l199 244L33 497zm249 0l196-247v-3L442 0H286l196 246-200 251z" glyph-name="guillemotright" horiz-adv-x="678" unicode="»"/><glyph d="M236 0L41 247v3l194 247h156L196 251 395 0z" glyph-name="guilsinglleft" horiz-adv-x="428" unicode="‹"/><glyph d="M192 497l195-247v-3L193 0H37l195 246L33 497z" glyph-name="guilsinglright" horiz-adv-x="428" unicode="›"/><glyph d="M227 700V406q26 52 72.5 78T402 510q46 0 80-14t56.5-40q22.5-26 33-62.5T582 312V0H424v259q0 65-22.5 89.5T336 373q-48 0-78-32t-31-97V0H69v700z" glyph-name="h" horiz-adv-x="646" unicode="h"/><glyph glyph-name="hairspace" horiz-adv-x="100"/><glyph d="M19 546v83h63v71h157v-71h133v-83H239V400q27 54 73.5 80T415 506q85 0 132-50t47-150V0H436v250q0 65-22 90.5T349 366q-48 0-78-32.5T239 235V0H82v546z" glyph-name="hbar" horiz-adv-x="659" unicode="ħ"/><glyph d="M0 0zm148 814l-61-58H-38v4L85 889h131l125-129v-4H209zm79-114V406q26 52 72.5 78T402 510q46 0 80-14t56.5-40q22.5-26 33-62.5T582 312V0H424v259q0 65-22.5 89.5T336 373q-48 0-78-32t-31-97V0H69v700z" glyph-name="hcircumflex" horiz-adv-x="646" unicode="ĥ"/><glyph d="M568 699L438 571H323v5l79 128h166zm-204-1L252 571H145v5l68 128h151z" glyph-name="hungarumlaut" horiz-adv-x="600" unicode="˝"/><glyph d="M429 328V205H51v123z" glyph-name="hyphen" horiz-adv-x="477" unicode="-"/><glyph d="M428 412V289H50v123z" glyph-name="hyphen.cap" horiz-adv-x="477"/><glyph d="M58 643q0 43 23.5 62.5T149 725q44 0 67.5-19.5T240 643q0-42-23.5-61.5T149 562q-44 0-67.5 19.5T58 643zm12-146h158V0H70z" glyph-name="i" horiz-adv-x="298" unicode="i"/><glyph d="M70 0zm258 698L199 571H77v5l81 128h170zM70 497h158V0H70z" glyph-name="iacute" horiz-adv-x="298" unicode="í"/><glyph d="M0 0zm70 497h158V0H70zm153 207h97q0-40-11.5-67T275 594q-22-16-54-23t-72-7q-41 0-72.5 7T23 594q-22 16-33.5 43T-22 704h97q0-36 18-49t56-13q38 0 56 13t18 49z" glyph-name="ibreve" horiz-adv-x="298" unicode="ĭ"/><glyph d="M0 0zm146 629l-61-58H-40v4L83 704h131l125-129v-4H207zM70 497h158V0H70z" glyph-name="icircumflex" horiz-adv-x="298" unicode="î"/><glyph d="M0 0zm171 645q0 38 22 56t62 18q40 0 61.5-18t21.5-56q0-38-21.5-56.5T255 570q-40 0-62 18.5T171 645zm-210 0q0 38 22 56t61 18q40 0 61.5-18t21.5-56q0-38-21.5-56.5T44 570q-39 0-61 18.5T-39 645zM70 497h158V0H70z" glyph-name="idieresis" horiz-adv-x="298" unicode="ï"/><glyph d="M58 643q0 43 23.5 62.5T149 725q44 0 67.5-19.5T240 643q0-42-23.5-61.5T149 562q-44 0-67.5 19.5T58 643zm12-146h158V0H70z" glyph-name="idotaccent" horiz-adv-x="298"/><glyph d="M0 0zm70 497h158V0H70zm28 74L-31 698v6h174l79-128v-5z" glyph-name="igrave" horiz-adv-x="298" unicode="ì"/><glyph d="M58 0zm0 643q0 43 23.5 62.5T149 725q44 0 67.5-19.5T240 643q0-42-23.5-61.5T149 562q-44 0-67.5 19.5T58 643zm12-146h158V0H70zm286 146q0 43 23.5 62.5T447 725q44 0 67.5-19.5T538 643q0-42-23.5-61.5T447 562q-44 0-67.5 19.5T356 643zm12-663v517h158V-30q0-49-14-85t-39.5-59.5q-25.5-23.5-61-35T333-221q-26 0-53.5 5T227-199l25 105q12-5 24-8t28-3q32 0 48 18.5T368-20z" glyph-name="ij" horiz-adv-x="596" unicode="ĳ"/><glyph d="M5 0zm65 497h158V0H70zm224 180v-87H5v87z" glyph-name="imacron" horiz-adv-x="298" unicode="ī"/><glyph d="M58 643q0 43 23.5 62.5T149 725q44 0 67.5-19.5T240 643q0-42-23.5-61.5T149 562q-44 0-67.5 19.5T58 643zm55-872q-27 0-52.5 6t-46 20.5q-20.5 14.5-33 38T-31-105q0 54 29.5 89.5T70 36v461h158V0h-76q-24-2-41-10.5t-28-21Q72-44 67-59t-5-31q0-29 18.5-40t44.5-11q17 0 34.5 4t32.5 13l22-78q-44-27-101-27z" glyph-name="iogonek" horiz-adv-x="298" unicode="į"/><glyph d="M0 0zm70 497h158V0H70zm165 203h95q3-35-6-58.5T300 604q-15-14-34-20t-38-6q-23 0-42 5.5T150 595q-17 6-32 11.5T89 612q-17 0-22.5-10.5T61 578h-95q-2 35 6.5 58.5t23.5 38Q11 689 30 695t38 6q23 0 42-5.5t36-12q17-6.5 32-12t29-5.5q18 0 23 10t5 24z" glyph-name="itilde" horiz-adv-x="298" unicode="ĩ"/><glyph d="M58 643q0 43 23.5 62.5T149 725q44 0 67.5-19.5T240 643q0-42-23.5-61.5T149 562q-44 0-67.5 19.5T58 643zM70-20v517h158V-30q0-49-14-85t-39.5-59.5q-25.5-23.5-61-35T35-221q-26 0-53.5 5T-71-199l25 105q12-5 24-8t28-3q32 0 48 18.5T70-20z" glyph-name="j" horiz-adv-x="298" unicode="j"/><glyph d="M0 0zm70-20v517h158V-30q0-49-14-85t-39.5-59.5q-25.5-23.5-61-35T35-221q-26 0-53.5 5T-71-199l25 105q12-5 24-8t28-3q32 0 48 18.5T70-20zm77 649l-61-58H-39v4L84 704h131l125-129v-4H208z" glyph-name="jcircumflex" horiz-adv-x="298" unicode="ĵ"/><glyph d="M69 0v700h157l-4-430 184 227h171L388 276 579 0H405L286 174l-61-67V0z" glyph-name="k" horiz-adv-x="584" unicode="k"/><glyph d="M69 0v700h158l-4-438 182 235h163L370 249 580 0H405L224 218l1-218z" glyph-name="k.alt" horiz-adv-x="585"/><glyph d="M69 0zm189-333l-28 58q32 8 53 27.5t28 46.5h-2q-38 0-60.5 18T226-130q0 38 22 56.5T310-55q41 0 64-24t23-75q0-34-10-64t-28-53.5Q341-295 315.5-311T258-333zM69 0v700h157l-4-430 184 227h171L388 276 579 0H405L286 174l-61-67V0z" glyph-name="kcommaaccent" horiz-adv-x="584" unicode="ķ"/><glyph d="M69 0zm191-333l-28 58q32 8 53 27.5t28 46.5h-2q-38 0-60.5 18T228-130q0 38 22 56.5T312-55q41 0 64-24t23-75q0-34-10-64t-28-53.5Q343-295 317.5-311T260-333zM69 0v700h158l-4-438 182 235h163L370 249 580 0H405L224 218l1-218z" glyph-name="kcommaaccent.alt" horiz-adv-x="588"/><glyph d="M69 0v497h155l-1-227 183 227h171L388 276 579 0H405L286 174l-61-67V0z" glyph-name="kgreenlandic" horiz-adv-x="584" unicode="ĸ"/><glyph d="M209 0q-69 0-106.5 32T65 141v559h158V162q0-24 8.5-34.5T266 117h32V0z" glyph-name="l" horiz-adv-x="311" unicode="l"/><glyph d="M228 700V0H70v700z" glyph-name="l.alt" horiz-adv-x="298"/><glyph d="M65 0zm258 902L194 775H72v5l81 128h170zM209 0q-69 0-106.5 32T65 141v559h158V162q0-24 8.5-34.5T266 117h32V0z" glyph-name="lacute" horiz-adv-x="311" unicode="ĺ"/><glyph d="M65 0zm336 441H299l7 259h128zM209 0q-69 0-106.5 32T65 141v559h158V162q0-24 8.5-34.5T266 117h32V0z" glyph-name="lcaron" horiz-adv-x="415" unicode="ľ"/><glyph d="M65 0zm144 0q-69 0-106.5 32T65 141v559h158V162q0-24 8.5-34.5T266 117h32V0zm-83-333l-28 58q32 8 53 27.5t28 46.5h-2q-38 0-60.5 18T94-130q0 38 22 56.5T178-55q41 0 64-24t23-75q0-34-10-64t-28-53.5Q209-295 183.5-311T126-333z" glyph-name="lcommaaccent" horiz-adv-x="311" unicode="ļ"/><glyph d="M65 0zm144 0q-69 0-106.5 32T65 141v559h158V162q0-24 8.5-34.5T266 117h32V0zm68 304q0 38 23 56.5t65 18.5q42 0 64-18.5t22-56.5q0-38-22-56.5T365 229q-42 0-65 18.5T277 304z" glyph-name="ldot" horiz-adv-x="437" unicode="ŀ"/><glyph d="M363 541l59-78-213-152 216-153-62-82L77 279v59z" glyph-name="less" horiz-adv-x="501" unicode="&lt;"/><glyph d="M369 536l48-75-189-119 190-117-49-80L96 313v54zM86 0v93h337V0z" glyph-name="lessequal" horiz-adv-x="512" unicode="≤"/><glyph d="M40 639q0 30 20.5 51t51.5 21q31 0 51.5-21t20.5-51q0-30-20.5-51T112 567q-31 0-51.5 21T40 639zm103 0q0 14-9 23t-22 9q-13 0-22-9t-9-23q0-13 9-22.5t22-9.5q13 0 22 9t9 23z" glyph-name="logicalnot" horiz-adv-x="224" unicode="¬"/><glyph d="M323 0h-94q-69 0-106.5 32T85 141v82L3 163v128l82 60v349h158V451l87 65V388l-87-63V162q0-24 8.5-34.5T286 117h37z" glyph-name="lslash" horiz-adv-x="327" unicode="ł"/><glyph d="M69 0v497h130l14-87q27 50 72 75t98 25q66 0 102.5-33t50.5-82q25 57 73 86t108 29q45 0 77-14t53-39.5q21-25.5 31-62t10-80.5V0H730v265q0 58-18 82.5T656 372q-43 0-70.5-29.5T557 251V0H399v263q0 59-19 84t-58 25q-42 0-68-29.5T227 250V0z" glyph-name="m" horiz-adv-x="952" unicode="m"/><glyph d="M440 677v-87H151v87z" glyph-name="macron" horiz-adv-x="600" unicode="¯"/><glyph d="M460 357v-93H50v93z" glyph-name="minus" horiz-adv-x="510" unicode="−"/><glyph d="M28 0zm259 16v-70H28v70z" glyph-name="minus.inf" horiz-adv-x="315"/><glyph d="M127 713q35 0 59-23.5t24-58.5q0-35-24-58.5T127 549q-35 0-59 23.5T44 631q0 35 24 58.5t59 23.5zm0-43q-17 0-27.5-11T89 631q0-17 10.5-28t27.5-11q17 0 27.5 11t10.5 28q0 17-10.5 28T127 670z" glyph-name="mu" horiz-adv-x="254" unicode="μ"/><glyph d="M127 126l-64 65 120 120L61 434l69 69 123-123 122 122 64-64-122-122 124-124-69-69-124 124z" glyph-name="multiply" horiz-adv-x="503" unicode="×"/><glyph d="M69 497h131l13-90q29 51 76.5 77T397 510q48 0 83-14t57.5-40q22.5-26 33.5-62.5t11-81.5V0H424v259q0 65-22 89.5T336 373q-48 0-78-32t-31-97V0H69z" glyph-name="n" horiz-adv-x="646" unicode="n"/><glyph d="M69 0zm454 698L394 571H272v5l81 128h170zM69 497h131l13-90q29 51 76.5 77T397 510q48 0 83-14t57.5-40q22.5-26 33.5-62.5t11-81.5V0H424v259q0 65-22 89.5T336 373q-48 0-78-32t-31-97V0H69z" glyph-name="nacute" horiz-adv-x="646" unicode="ń"/><glyph d="M69 0zm279 647l62 57h124v-2L410 571H279L155 702v2h131zM69 497h131l13-90q29 51 76.5 77T397 510q48 0 83-14t57.5-40q22.5-26 33.5-62.5t11-81.5V0H424v259q0 65-22 89.5T336 373q-48 0-78-32t-31-97V0H69z" glyph-name="ncaron" horiz-adv-x="646" unicode="ň"/><glyph d="M69 0zm210-333l-28 58q32 8 53 27.5t28 46.5h-2q-38 0-60.5 18T247-130q0 38 22 56.5T331-55q41 0 64-24t23-75q0-34-10-64t-28-53.5Q362-295 336.5-311T279-333zM69 497h131l13-90q29 51 76.5 77T397 510q48 0 83-14t57.5-40q22.5-26 33.5-62.5t11-81.5V0H424v259q0 65-22 89.5T336 373q-48 0-78-32t-31-97V0H69z" glyph-name="ncommaaccent" horiz-adv-x="646" unicode="ņ"/><glyph d="M417 482q0 49-30.5 79.5T302 592q-53 0-84.5-28.5T186 478q0-51 27-81t87-30q51 0 84 30.5t33 84.5zM289-14q-88 0-153 26.5T39 96l96 84q43-72 146-72 38 0 68 12.5t50.5 41q20.5 28.5 31 74T441 347v21q-20-51-67-82t-113-31q-102 0-163 57T37 478q0 52 15.5 95.5t47 74.5q31.5 31 79.5 48.5T291 714q71 0 127-21.5t95-65.5q39-44 59.5-112.5T593 353q0-182-76-274.5T289-14z" glyph-name="nine" horiz-adv-x="625" unicode="9"/><glyph d="M440 482q0 49-31 79.5T322 592q-54 0-85.5-28.5T205 478q0-51 28-80.5t87-29.5q51 0 85.5 30t34.5 84zM310-14q-89 0-156 26.5T55 96l97 84q44-72 149-72 39 0 69.5 12.5t51.5 41q21 28.5 31.5 74T464 347v21q-20-52-68-83.5T279 253q-52 0-94.5 14.5t-72.5 43Q82 339 66 381t-16 97q0 52 16 95.5t49 74.5q33 31 82 48.5T312 714q73 0 131-21.5t98-65.5q40-44 61-112.5T623 353q0-182-77.5-274.5T310-14z" glyph-name="nine.LP" horiz-adv-x="684"/><glyph d="M427 382q0 49-30 79.5T314 492q-51 0-81-28.5T203 378q0-51 26-80.5t82-29.5q50 0 83 30t33 84zM301-114q-87 0-152 26.5T52-4l97 84Q192 8 293 8q38 0 67.5 12.5t50 41q20.5 28.5 31 74T452 247v21q-20-52-67-83.5T271 153q-101 0-161 57.5T50 378q0 52 15.5 95.5t47 74.5q31.5 31 79.5 48.5T304 614q70 0 126-21.5t95-65.5q39-44 59.5-112.5T605 253q0-182-75-274.5T301-114z" glyph-name="nine.OP" horiz-adv-x="661"/><glyph d="M413 382q0 49-31 79.5T297 492q-53 0-84.5-28.5T181 378q0-51 27.5-81t86.5-30q51 0 84.5 30.5T413 382zM285-114q-88 0-153 26.5T35-4l96 84Q174 8 276 8q38 0 68 12.5t50.5 41q20.5 28.5 31 74T436 247v21q-20-51-66.5-82T257 155q-102 0-163.5 57T32 378q0 52 15.5 95.5T95 548q32 31 79.5 48.5T287 614q70 0 126-21.5t95-65.5q39-44 59.5-112.5T588 253q0-182-75.5-274.5T285-114z" glyph-name="nine.OT" horiz-adv-x="625"/><glyph d="M27 0zm227 78q0 26-16 40t-44 14q-26 0-41.5-13.5T137 79q0-24 13.5-39T194 25q25 0 42.5 13.5T254 78zm-70-290q-50 0-93.5 15.5T27-148l68 62q11-19 32.5-29t50.5-10q52 0 71.5 34T267 1q-12-25-39-40.5T163-55q-61 0-98.5 34T27 77q0 63 39 103t124 40q89 0 139-51.5T379 6q0-106-47-162t-148-56z" glyph-name="nine.inf" horiz-adv-x="414"/><glyph d="M50 337v93h244l51 73h94l-51-73h72v-93H323l-41-56h178v-93H217l-50-71H72l51 71H50v93h137l41 56z" glyph-name="notequal" horiz-adv-x="510" unicode="≠"/><glyph d="M69 0zm0 497h131l13-90q29 51 76.5 77T397 510q48 0 83-14t57.5-40q22.5-26 33.5-62.5t11-81.5V0H424v259q0 65-22 89.5T336 373q-48 0-78-32t-31-97V0H69zm361 203h95q3-35-6-58.5T495 604q-15-14-34-20t-38-6q-23 0-42 5.5T345 595q-17 6-32 11.5t-29 5.5q-17 0-22.5-10.5T256 578h-95q-2 35 6.5 58.5t23.5 38q15 14.5 34 20.5t38 6q23 0 42-5.5t36-12q17-6.5 32-12t29-5.5q18 0 23 10t5 24z" glyph-name="ntilde" horiz-adv-x="646" unicode="ñ"/><glyph d="M342 415l-37-119h130l36 119zm-262 0l30 107h109l52 178h153l-53-178h131l52 178h153l-52-178h108l-30-107H624l-36-119h114l-31-107H558L503 0H349l55 189H276L221 0H67l56 189H18l31 107h104l35 119z" glyph-name="numbersign" horiz-adv-x="769" unicode="#"/><glyph d="M42 249q0 134 69 197.5T303 510q132 0 196.5-62.5T564 249q0-132-66-197.5T303-14q-130 0-195.5 64.5T42 249zm372-1q0 78-26 111t-85 33q-60 0-86-33t-26-111q0-78 27-112t85-34q57 0 84 34t27 112z" glyph-name="o" horiz-adv-x="606" unicode="o"/><glyph d="M42 0zm440 698L353 571H231v5l81 128h170zM42 249q0 134 69 197.5T303 510q132 0 196.5-62.5T564 249q0-132-66-197.5T303-14q-130 0-195.5 64.5T42 249zm372-1q0 78-26 111t-85 33q-60 0-86-33t-26-111q0-78 27-112t85-34q57 0 84 34t27 112z" glyph-name="oacute" horiz-adv-x="606" unicode="ó"/><glyph d="M42 0zm0 249q0 134 69 197.5T303 510q132 0 196.5-62.5T564 249q0-132-66-197.5T303-14q-130 0-195.5 64.5T42 249zm372-1q0 78-26 111t-85 33q-60 0-86-33t-26-111q0-78 27-112t85-34q57 0 84 34t27 112zm-37 456h97q0-40-11.5-67T429 594q-22-16-54-23t-72-7q-41 0-72.5 7T177 594q-22 16-33.5 43T132 704h97q0-36 18-49t56-13q38 0 56 13t18 49z" glyph-name="obreve" horiz-adv-x="606" unicode="ŏ"/><glyph d="M42 0zm258 629l-61-58H114v4l123 129h131l125-129v-4H361zM42 249q0 134 69 197.5T303 510q132 0 196.5-62.5T564 249q0-132-66-197.5T303-14q-130 0-195.5 64.5T42 249zm372-1q0 78-26 111t-85 33q-60 0-86-33t-26-111q0-78 27-112t85-34q57 0 84 34t27 112z" glyph-name="ocircumflex" horiz-adv-x="606" unicode="ô"/><glyph d="M42 0zm282 645q0 38 22 56t62 18q40 0 61.5-18t21.5-56q0-38-21.5-56.5T408 570q-40 0-62 18.5T324 645zm-210 0q0 38 22 56t61 18q40 0 61.5-18t21.5-56q0-38-21.5-56.5T197 570q-39 0-61 18.5T114 645zM42 249q0 134 69 197.5T303 510q132 0 196.5-62.5T564 249q0-132-66-197.5T303-14q-130 0-195.5 64.5T42 249zm372-1q0 78-26 111t-85 33q-60 0-86-33t-26-111q0-78 27-112t85-34q57 0 84 34t27 112z" glyph-name="odieresis" horiz-adv-x="606" unicode="ö"/><glyph d="M41 249q0 134 69.5 197.5T303 510q125 0 186-64 32 31 78 47.5T671 510q62 0 106-19.5t72.5-53q28.5-33.5 42-79.5t13.5-99q0-13-1-26t-3-28H566q5-60 36-85.5T687 94q42 0 69 14t45 49l96-58q-31-58-88-85.5T675-14q-60 0-108 16t-81 48q-63-64-183-64-131 0-196.5 64.5T41 249zm525 47h194q-6 104-92 104-44 0-70.5-25T566 296zM302 102q57 0 84.5 34T414 248q0 78-26 111t-86 33q-59 0-85-33t-26-111q0-78 27-112t84-34z" glyph-name="oe" horiz-adv-x="945" unicode="œ"/><glyph d="M322-229q-27 0-53 6t-46 20.5q-20 14.5-32.5 38T178-105q0 38 16 68t42 50q26 20 58 29.5t65 7.5l2-50q-48-4-69.5-31T270-90q0-29 18.5-40t45.5-11q37 0 67 17l22-78q-44-27-101-27z" glyph-name="ogonek" horiz-adv-x="600" unicode="˛"/><glyph d="M42 0zm0 249q0 134 69 197.5T303 510q132 0 196.5-62.5T564 249q0-132-66-197.5T303-14q-130 0-195.5 64.5T42 249zm372-1q0 78-26 111t-85 33q-60 0-86-33t-26-111q0-78 27-112t85-34q57 0 84 34t27 112zM253 571L124 698v6h174l79-128v-5z" glyph-name="ograve" horiz-adv-x="606" unicode="ò"/><glyph d="M42 0zm526 699L438 571H323v5l79 128h166zm-204-1L252 571H145v5l68 128h151zM42 249q0 134 69 197.5T303 510q132 0 196.5-62.5T564 249q0-132-66-197.5T303-14q-130 0-195.5 64.5T42 249zm372-1q0 78-26 111t-85 33q-60 0-86-33t-26-111q0-78 27-112t85-34q57 0 84 34t27 112z" glyph-name="ohungarumlaut" horiz-adv-x="606" unicode="ő"/><glyph d="M42 0zm406 677v-87H159v87zM42 249q0 134 69 197.5T303 510q132 0 196.5-62.5T564 249q0-132-66-197.5T303-14q-130 0-195.5 64.5T42 249zm372-1q0 78-26 111t-85 33q-60 0-86-33t-26-111q0-78 27-112t85-34q57 0 84 34t27 112z" glyph-name="omacron" horiz-adv-x="606" unicode="ō"/><glyph d="M75 0v134h160v383l-80-53-60 126 194 116h101V134h162V0z" glyph-name="one" horiz-adv-x="625" unicode="1"/><glyph d="M313 0H151v517l-82-53L7 590l199 116h107z" glyph-name="one.LP" horiz-adv-x="404"/><glyph d="M298 0H140v417l-78-53L3 490l191 116h104z" glyph-name="one.OP" horiz-adv-x="372"/><glyph d="M77 0v134h158v283l-78-53-60 126 193 116h104V134h154V0z" glyph-name="one.OT" horiz-adv-x="625"/><glyph d="M7 0zm203-200H94V82L50 56 7 143l127 70h76z" glyph-name="one.inf" horiz-adv-x="264"/><glyph d="M7 0zm549 0v79l138 118q29 25 44.5 45t15.5 43q0 24-15 33t-38 9q-32 0-49.5-13T618 274l-77 54q29 51 71.5 71.5T715 420q32 0 60.5-6t50-20.5q21.5-14.5 34-37.5t12.5-56q0-44-23.5-80T781 145l-60-54 166 4V0zM210 293H94v282l-44-26-43 87 127 70h76zm425 407L289 0H152l348 700z" glyph-name="onehalf" horiz-adv-x="914" unicode="½"/><glyph d="M7 0zm203 293H94v282l-44-26-43 87 127 70h76zm425 407L289 0H152l348 700zM511 81v76l122 252h113L628 174h111v136h108V174h47V81h-47V0H739v81z" glyph-name="onequarter" horiz-adv-x="913" unicode="¼"/><glyph d="M7 294zm203 0H94v282l-44-26-43 87 127 70h76z" glyph-name="onesuperior" horiz-adv-x="264" unicode="¹"/><glyph d="M332 328V205H50v123z" glyph-name="onethirdemdash" horiz-adv-x="381"/><glyph d="M187 416q34 0 53.5 20.5T260 495v7h-57q-67 0-67-47 0-39 51-39zm82-15q-17-29-47-44.5T150 341q-53 0-86 27t-33 79q0 57 43 87.5T193 565h67q-2 38-21.5 50.5T187 628q-35 0-60-11t-42-31l-44 66q51 62 164 62 36 0 67-7.5t53.5-25.5q22.5-18 35.5-47t13-72V351h-98z" glyph-name="ordfeminine" horiz-adv-x="416" unicode="ª"/><glyph d="M291 527q0 54-21.5 77.5T216 628q-35 0-53.5-23.5T144 527q0-51 18-75t54-24q33 0 54 24t21 75zm15-176l-7 54q-18-32-48-48.5T182 340q-69 0-109.5 46.5T32 524q0 97 42 143.5T188 714q82 0 114-62l9 51h93V351z" glyph-name="ordfeminine.school" horiz-adv-x="452"/><glyph d="M32 528q0 96 49.5 141T219 714q94 0 141-44.5T407 528q0-94-48-141t-140-47q-92 0-139.5 46T32 528zm263 0q0 52-18 75.5T218 627q-39 0-56.5-23.5T144 528q0-54 18-77.5t56-23.5q39 0 58 23.5t19 77.5z" glyph-name="ordmasculine" horiz-adv-x="430" unicode="º"/><glyph d="M602 497l-76-79q43-61 43-169 0-132-66-197.5T308-14q-102 0-165 42L115 0H16l76 77q-23 32-34 75t-11 97q0 134 69 197.5T308 510q104 0 168-41l28 28zM201 188l182 186q-26 23-75 23-61 0-87.5-35T194 248q0-17 2-33t5-27zm220 60q0 15-1.5 31t-4.5 27L233 119q28-22 75-22 59 0 86 35.5T421 248z" glyph-name="oslash" horiz-adv-x="616" unicode="ø"/><glyph d="M42 0zm0 249q0 134 69 197.5T303 510q132 0 196.5-62.5T564 249q0-132-66-197.5T303-14q-130 0-195.5 64.5T42 249zm372-1q0 78-26 111t-85 33q-60 0-86-33t-26-111q0-78 27-112t85-34q57 0 84 34t27 112zm-25 452h95q3-35-6-58.5T454 604q-15-14-34-20t-38-6q-23 0-42 5.5T304 595q-17 6-32 11.5t-29 5.5q-17 0-22.5-10.5T215 578h-95q-2 35 6.5 58.5t23.5 38q15 14.5 34 20.5t38 6q23 0 42-5.5t36-12q17-6.5 32-12t29-5.5q18 0 23 10t5 24z" glyph-name="otilde" horiz-adv-x="606" unicode="õ"/><glyph d="M224 246q0-75 30-109.5t77-34.5q108 0 108 145 0 78-27.5 111.5T333 392q-48 0-78.5-34T224 246zM69 497h131l13-89q27 50 73 76t102 26q99 0 151-65t52-190q0-62-14-111.5T535 59q-28-35-70.5-54T366-14q-92 0-139 58v-230H69z" glyph-name="p" horiz-adv-x="633" unicode="p"/><glyph d="M488 570h-60V330h60zM188 455q0-58 29.5-90t77.5-33h9v236h-10q-52-1-79-33t-27-80zm240-249V0H304v207q-58 2-105 19t-80.5 48.5Q85 306 67 351T49 453q0 55 17 101t49 78q32 32 78 50t105 18h315V0H488v206z" glyph-name="paragraph" horiz-adv-x="681" unicode="¶"/><glyph d="M338-12l-12-126Q176-127 105-18.5T34 294q0 204 70.5 312T322 726l16-126q-42-5-74-23t-53.5-54Q189 487 178 431t-11-137q0-81 11-137t32.5-92Q232 29 264 11t74-23z" glyph-name="parenleft" horiz-adv-x="365" unicode="("/><glyph d="M24 0zm189-206l-9-87q-93 8-136.5 73T24-34q0 119 43 183.5T201 222l12-86q-50-6-75.5-43T112-34q0-46 6.5-77.5t19-51.5q12.5-20 31.5-30t44-13z" glyph-name="parenleft.inf" horiz-adv-x="232"/><glyph d="M27-12q42 5 74 23t53.5 54q21.5 36 32.5 92t11 137q0 81-11 137t-32.5 92Q133 559 101 577t-74 23l16 126q147-12 217.5-120T331 294q0-204-71-312.5T39-138z" glyph-name="parenright" horiz-adv-x="365" unicode=")"/><glyph d="M18 0zm10-293l-10 87q25 3 44 13t32 30q13 20 19.5 51.5T120-34q0 90-26 127t-76 43l13 86q91-8 134-72.5T208-34q0-121-43.5-186T28-293z" glyph-name="parenright.inf" horiz-adv-x="232"/><glyph d="M32 0zm628 203q0 110 45 164t144 54q100 0 145-54t45-164q0-109-45-162.5T849-13q-99 0-144 53.5T660 203zm264 0q0 73-19.5 100.5T849 331q-36 0-55.5-27.5T774 204q0-73 19.5-100.5T849 76q36 0 55.5 27.5T924 203zM32 496q0 110 45 164t144 54q100 0 145-54t45-164q0-109-45-162.5T221 280q-99 0-144 53.5T32 496zm264 0q0 73-19.5 100.5T221 624q-36 0-55.5-27.5T146 497q0-73 19.5-100.5T221 369q36 0 55.5 27.5T296 496zm479 204L429 0H292l348 700z" glyph-name="percent" horiz-adv-x="1073" unicode="%"/><glyph d="M41 74q0 42 23 62.5t65 20.5q42 0 64.5-20.5T216 74q0-39-22.5-60T129-7Q87-7 64 13.5T41 74z" glyph-name="period" horiz-adv-x="257" unicode="."/><glyph d="M41 257zm0 81q0 42 23 62.5t65 20.5q42 0 64.5-20.5T216 338q0-39-22.5-60T129 257q-42 0-65 20.5T41 338z" glyph-name="periodcentered" horiz-adv-x="257" unicode="·"/><glyph d="M32 0zm628 203q0 110 45 164t144 54q100 0 145-54t45-164q0-109-45-162.5T849-13q-99 0-144 53.5T660 203zm264 0q0 73-19.5 100.5T849 331q-36 0-55.5-27.5T774 204q0-73 19.5-100.5T849 76q36 0 55.5 27.5T924 203zM32 496q0 110 45 164t144 54q100 0 145-54t45-164q0-109-45-162.5T221 280q-99 0-144 53.5T32 496zm264 0q0 73-19.5 100.5T221 624q-36 0-55.5-27.5T146 497q0-73 19.5-100.5T221 369q36 0 55.5 27.5T296 496zm799-293q0 110 45 164t144 54q100 0 145-54t45-164q0-109-45-162.5T1284-13q-99 0-144 53.5T1095 203zm264 0q0 73-19.5 100.5T1284 331q-36 0-55.5-27.5T1209 204q0-73 19.5-100.5T1284 76q36 0 55.5 27.5T1359 203zM775 700L429 0H292l348 700z" glyph-name="perthousand" horiz-adv-x="1508" unicode="‰"/><glyph d="M308 110H202v154H50v93h152v156h106V357h152v-93H308z" glyph-name="plus" horiz-adv-x="510" unicode="+"/><glyph d="M28 0zm172-142h-85v88H28v70h87v89h85V16h87v-70h-87z" glyph-name="plus.inf" horiz-adv-x="315"/><glyph d="M308 147H202v135H50v93h152v138h106V375h152v-93H308zm152-54V0H50v93z" glyph-name="plusminus" horiz-adv-x="510" unicode="±"/><glyph glyph-name="punctuationspace" horiz-adv-x="257"/><glyph d="M564-186H406V60q-52-74-154-74-96 0-153 64.5T42 242q0 135 60 201.5T262 510q55 0 96-21t65-65l12 73h129zM408 248q0 78-31 111.5T298 393q-51 0-77.5-33.5T194 248q0-74 26-109t78-35q49 0 79.5 34.5T408 248z" glyph-name="q" horiz-adv-x="633" unicode="q"/><glyph d="M183 217l-6 175h58q122 0 122 109 0 46-30 72.5T235 600q-47 0-80-20.5T96 505l-97 65q73 150 256 150 118 0 182-53.5T501 510q0-97-51.5-148.5T311 301l-4-84zM154 74q0 42 23 62.5t65 20.5q42 0 64.5-20.5T329 74q0-39-22.5-60T242-7q-42 0-65 20.5T154 74z" glyph-name="question" horiz-adv-x="518" unicode="?"/><glyph d="M333 290l6-175h-58Q159 115 159 6q0-46 30-72.5T281-93q47 0 80 20.5T420 2l97-65q-74-150-256-150-118 0-182 53.5T15-3q0 97 51.5 148.5T205 206l4 84zm29 143q0-42-23-62.5T274 350q-42 0-64.5 20.5T187 433q0 39 22.5 60t64.5 21q42 0 65-20.5t23-60.5z" glyph-name="questiondown" horiz-adv-x="518" unicode="¿"/><glyph d="M328 488l6-175h-58q-122 0-122-109 0-46 30-72.5t92-26.5q47 0 80 20.5t59 74.5l97-65Q438-15 256-15 138-15 74 38.5T10 195q0 97 51.5 148.5T200 404l4 84zm29 143q0-42-23-62.5T269 548q-42 0-64.5 20.5T182 631q0 39 22.5 60t64.5 21q42 0 65-20.5t23-60.5z" glyph-name="questiondown.cap" horiz-adv-x="516"/><glyph d="M227 442l-11 272h133l-20-272zm-57 0H67L48 714h131z" glyph-name="quotedbl" horiz-adv-x="394" unicode="&quot;"/><glyph d="M71-142L41-81q29 9 48.5 27.5T117-6Q79-4 59.5 16T40 71q0 38 22 58t61 20q41 0 63.5-23.5T209 50q0-75-35.5-125T71-142zm200 0l-30 61q29 9 48.5 27.5T317-6q-38 2-57.5 22T240 71q0 38 22 58t61 20q41 0 63.5-23.5T409 50q0-75-35.5-125T271-142z" glyph-name="quotedblbase" horiz-adv-x="446" unicode="„"/><glyph d="M177 750l31-62q-29-9-49-28t-28-48q38-2 58-22.5t20-55.5q0-39-22.5-59T125 455q-42 0-64.5 24T38 555q0 76 35.5 127T177 750zm201 0l31-62q-29-9-49-28t-28-48q38-2 58-22.5t20-55.5q0-39-22.5-59T326 455q-42 0-64.5 24T239 555q0 76 35.5 127T378 750z" glyph-name="quotedblleft" horiz-adv-x="447" unicode="“"/><glyph d="M70 447l-31 62q29 9 49 28t28 48q-38 2-58 22.5T38 663q0 39 22.5 59t61.5 20q42 0 64.5-24t22.5-76q0-76-35.5-127T70 447zm201 0l-31 62q29 9 49 28t28 48q-38 2-58 22.5T239 663q0 39 22.5 59t61.5 20q42 0 64.5-24t22.5-76q0-76-35.5-127T271 447z" glyph-name="quotedblright" horiz-adv-x="447" unicode="”"/><glyph d="M177 750l31-62q-29-9-49-28t-28-48q38-2 58-22.5t20-55.5q0-39-22.5-59T125 455q-42 0-64.5 24T38 555q0 76 35.5 127T177 750z" glyph-name="quoteleft" horiz-adv-x="247" unicode="‘"/><glyph d="M72 448l-31 62q29 9 49 28t28 48q-38 2-58 22.5T40 664q0 39 22.5 59t61.5 20q42 0 64.5-24t22.5-76q0-76-35.5-127T72 448z" glyph-name="quoteright" horiz-adv-x="247" unicode="’"/><glyph d="M71-142L41-81q29 9 48.5 27.5T117-6Q79-4 59.5 16T40 71q0 39 22 58.5t60 19.5q42 0 64.5-23.5T209 50q0-75-35.5-125T71-142z" glyph-name="quotesinglbase" horiz-adv-x="246" unicode="‚"/><glyph d="M62 442L48 714h131l-14-272z" glyph-name="quotesingle" horiz-adv-x="225" unicode="'"/><glyph d="M69 0v497h131l13-99q26 55 72 84.5T391 510l1-150q-83 7-123.5-38T227 197V0z" glyph-name="r" horiz-adv-x="411" unicode="r"/><glyph d="M69 0zm336 698L276 571H154v5l81 128h170zM69 0v497h131l13-99q26 55 72 84.5T391 510l1-150q-83 7-123.5-38T227 197V0z" glyph-name="racute" horiz-adv-x="411" unicode="ŕ"/><glyph d="M47 0zm193 647l62 57h124v-2L302 571H171L47 702v2h131zM69 0v497h131l13-99q26 55 72 84.5T391 510l1-150q-83 7-123.5-38T227 197V0z" glyph-name="rcaron" horiz-adv-x="411" unicode="ř"/><glyph d="M66 0zm32-333l-28 58q32 8 53 27.5t28 46.5h-2q-38 0-60.5 18T66-130q0 38 22 56.5T150-55q41 0 64-24t23-75q0-34-10-64t-28-53.5Q181-295 155.5-311T98-333zM69 0v497h131l13-99q26 55 72 84.5T391 510l1-150q-83 7-123.5-38T227 197V0z" glyph-name="rcommaaccent" horiz-adv-x="411" unicode="ŗ"/><glyph d="M42 523q0 88 50.5 139.5T237 714q93 0 143.5-51.5T431 523q0-87-50.5-139.5T237 331q-47 0-83 14t-61 39q-25 25-38 60.5T42 523zm36 0q0-81 44.5-121.5T237 361q69 0 113.5 40.5T395 523q0 80-44.5 120.5T237 684q-70 0-114.5-40.5T78 523zm162 56h-33v-51h29q17 0 25 6t8 21q0 24-29 24zm-84-147v189h93q35 0 52.5-18t17.5-49q0-22-8.5-36T288 495l33-63h-55l-27 53h-32v-53z" glyph-name="registered" horiz-adv-x="473" unicode="®"/><glyph d="M175 447q-68 17-103.5 68T36 642q0 52 23 76t64 24q39 0 61.5-20t22.5-59q0-35-20-55.5T129 585q17-57 77-76zm202 0q-68 17-103.5 68T238 642q0 52 23 76t64 24q39 0 61.5-20t22.5-59q0-35-20-55.5T331 585q17-57 77-76z" glyph-name="reversequotedblleft" horiz-adv-x="447"/><glyph d="M177 448q-68 17-103.5 68T38 643q0 52 23 76t64 24q39 0 61.5-20t22.5-59q0-35-20-55.5T131 586q17-57 77-76z" glyph-name="reversequoteleft" horiz-adv-x="247"/><glyph d="M187 653q0 50 32.5 76.5T302 756q50 0 82-26.5t32-76.5q0-51-32-77.5T301 549q-49 0-81.5 26.5T187 653zm70 0q0-21 12-33.5t32-12.5q20 0 33 12.5t13 33.5q0 21-12.5 33T302 698q-20 0-32.5-12T257 653z" glyph-name="ring" horiz-adv-x="600" unicode="˚"/><glyph d="M248 89q41 0 60 11.5t19 30.5q0 20-15 29t-52 17l-42 9Q47 222 47 348q0 33 12.5 62.5T98 462q26 22 65.5 35t93.5 13q72 0 122.5-20.5T465 424l-81-82q-23 28-54.5 43T257 400q-35 0-54-10t-19-30q0-17 14.5-28t49.5-18l58-12q85-17 123-56.5t38-96.5q0-33-11.5-62.5t-38-52Q391 12 349-1T247-14q-78 0-135.5 23T22 83l79 78q24-35 62-53.5T248 89z" glyph-name="s" horiz-adv-x="510" unicode="s"/><glyph d="M22 0zm407 698L300 571H178v5l81 128h170zM248 89q41 0 60 11.5t19 30.5q0 20-15 29t-52 17l-42 9Q47 222 47 348q0 33 12.5 62.5T98 462q26 22 65.5 35t93.5 13q72 0 122.5-20.5T465 424l-81-82q-23 28-54.5 43T257 400q-35 0-54-10t-19-30q0-17 14.5-28t49.5-18l58-12q85-17 123-56.5t38-96.5q0-33-11.5-62.5t-38-52Q391 12 349-1T247-14q-78 0-135.5 23T22 83l79 78q24-35 62-53.5T248 89z" glyph-name="sacute" horiz-adv-x="510" unicode="ś"/><glyph d="M22 0zm230 647l62 57h124v-2L314 571H183L59 702v2h131zm-4-558q41 0 60 11.5t19 30.5q0 20-15 29t-52 17l-42 9Q47 222 47 348q0 33 12.5 62.5T98 462q26 22 65.5 35t93.5 13q72 0 122.5-20.5T465 424l-81-82q-23 28-54.5 43T257 400q-35 0-54-10t-19-30q0-17 14.5-28t49.5-18l58-12q85-17 123-56.5t38-96.5q0-33-11.5-62.5t-38-52Q391 12 349-1T247-14q-78 0-135.5 23T22 83l79 78q24-35 62-53.5T248 89z" glyph-name="scaron" horiz-adv-x="510" unicode="š"/><glyph d="M234-251q-45 0-82 17t-59 52l54 55q15-23 33.5-35.5T228-175q21 0 35.5 8.5T278-139q0 17-14 27t-39 10q-6 0-11.5-.5T202-104l-23 15 25 77Q142-7 96 16.5T22 83l79 78q24-35 62-53.5T248 89q41 0 60 11.5t19 30.5q0 20-15 29t-52 17l-42 9Q47 222 47 348q0 33 12.5 62.5T98 462q26 22 65.5 35t93.5 13q72 0 122.5-20.5T465 424l-81-82q-23 28-54.5 43T257 400q-35 0-54-10t-19-30q0-17 14.5-28t49.5-18l58-12q85-17 123-56.5t38-96.5q0-30-10-58t-32-49.5q-22-21.5-57-36T283-13l-13-37h1q20-2 38.5-8T342-75.5q14-11.5 22.5-28T373-142q0-28-11.5-48.5t-30.5-34q-19-13.5-44-20t-53-6.5z" glyph-name="scedilla" horiz-adv-x="510" unicode="ş"/><glyph d="M22 0zm224 629l-61-58H60v4l123 129h131l125-129v-4H307zm2-540q41 0 60 11.5t19 30.5q0 20-15 29t-52 17l-42 9Q47 222 47 348q0 33 12.5 62.5T98 462q26 22 65.5 35t93.5 13q72 0 122.5-20.5T465 424l-81-82q-23 28-54.5 43T257 400q-35 0-54-10t-19-30q0-17 14.5-28t49.5-18l58-12q85-17 123-56.5t38-96.5q0-33-11.5-62.5t-38-52Q391 12 349-1T247-14q-78 0-135.5 23T22 83l79 78q24-35 62-53.5T248 89z" glyph-name="scircumflex" horiz-adv-x="510" unicode="ŝ"/><glyph d="M22 0zm168-333l-28 58q32 8 53 27.5t28 46.5h-2q-38 0-60.5 18T158-130q0 38 22 56.5T242-55q41 0 64-24t23-75q0-34-10-64t-28-53.5Q273-295 247.5-311T190-333zm58 422q41 0 60 11.5t19 30.5q0 20-15 29t-52 17l-42 9Q47 222 47 348q0 33 12.5 62.5T98 462q26 22 65.5 35t93.5 13q72 0 122.5-20.5T465 424l-81-82q-23 28-54.5 43T257 400q-35 0-54-10t-19-30q0-17 14.5-28t49.5-18l58-12q85-17 123-56.5t38-96.5q0-33-11.5-62.5t-38-52Q391 12 349-1T247-14q-78 0-135.5 23T22 83l79 78q24-35 62-53.5T248 89z" glyph-name="scommaaccent" horiz-adv-x="510" unicode="ș"/><glyph d="M347 329q0 23-16.5 39.5T270 393l-20 4q-19 4-33 1t-23.5-10q-9.5-7-14-17.5T175 349q0-20 15.5-37.5T245 286l20-4q39-8 60 6.5t22 40.5zM251-32q-71 0-123.5 20T43 55l80 72q22-29 51-44t75-15q42 0 61.5 13t19.5 37q0 22-18 33.5T254 173l-37 9q-89 21-126 63t-37 98q0 32 14.5 61.5T120 451q-29 21-42 48t-13 59q0 33 11.5 61.5T112 669q24 21 61 33t89 12q66 0 109.5-18.5T446 639l-76-76q-23 23-47.5 35.5T263 611q-71 0-71-50 0-16 14-31t52-24l53-12q85-20 123-57t38-98q0-32-14.5-61.5T405 231q59-37 59-108 0-30-10.5-57.5T418 16q-25-22-65.5-35T251-32z" glyph-name="section" horiz-adv-x="519" unicode="§"/><glyph d="M40 0zm33-150L41-85q30 9 51 29t29 50Q81-4 60.5 17T40 75q0 41 23 61.5t64 20.5q43 0 67-25t24-79q0-79-37-132T73-150zM41 414q0 42 23 62.5t65 20.5q42 0 64.5-20.5T216 414q0-39-22.5-60T129 333q-42 0-65 20.5T41 414z" glyph-name="semicolon" horiz-adv-x="257" unicode=";"/><glyph d="M176 0q0 85 16 165.5t45 153q29 72.5 70.5 135T399 565l-343-4v139h513V588Q465 484 407 341T349 0z" glyph-name="seven" horiz-adv-x="625" unicode="7"/><glyph d="M145 0q0 85 16 165.5t46 153q30 72.5 71.5 135T371 565l-347-4v139h519V588q-53-52-94-113t-69.5-133.5Q351 269 335.5 184T320 0z" glyph-name="seven.LP" horiz-adv-x="543"/><glyph d="M140-100q0 85 15.5 165.5t44 153Q228 291 268 353.5T357 465l-333-4v139h500V488Q423 384 367 241t-57-341z" glyph-name="seven.OP" horiz-adv-x="524"/><glyph d="M169-100q0 85 16 165.5t45.5 153q29.5 72.5 71 135T393 465l-343-4v139h513V488Q459 384 401 241t-58-341z" glyph-name="seven.OT" horiz-adv-x="625"/><glyph d="M16 0zm196-200H85q0 98 36 179t93 135l-198-3v97h320v-76q-32-35-55.5-70.5t-38.5-76q-15-40.5-22.5-86T212-200z" glyph-name="seven.inf" horiz-adv-x="342"/><glyph d="M336-14q-71 0-127 21.5T114 73q-39 44-59.5 112.5T34 347q0 183 76 275t228 92q87 0 151-28.5t94-88.5l-98-83q-18 34-50 56t-88 22q-39 0-69-13t-50.5-41.5Q207 509 196.5 463T186 351v-22q20 51 68 81t114 30q51 0 92-14t70-41.5q29-27.5 45-68t16-94.5q0-52-16-95t-47.5-74.5Q496 21 448 3.5T336-14zM208 215q0-48 31-78.5t85-30.5q53 0 84.5 28t31.5 83q0 51-27.5 81T326 328q-51 0-84.5-29.5T208 215z" glyph-name="six" horiz-adv-x="625" unicode="6"/><glyph d="M374-14q-73 0-131 21.5T145 73q-40 44-61.5 112.5T62 347q0 183 77.5 275T375 714q88 0 153-28.5t96-88.5l-100-83q-19 34-50.5 56T385 592q-40 0-70.5-13T263 537.5Q242 509 231 463t-11-112v-22q21 51 69 81t117 30q106 0 169-55t63-163q0-52-16.5-95T572 52.5q-33-31.5-82.5-49T374-14zM243 215q0-48 31-78.5t87-30.5q54 0 86.5 28t32.5 83q0 51-28.5 81T363 328q-51 0-85.5-29.5T243 215z" glyph-name="six.LP" horiz-adv-x="689"/><glyph d="M361-14q-71 0-127 21.5T139.5 73q-38.5 44-59 112.5T60 347q0 183 75 275t228 92q86 0 149.5-28.5T605 597l-99-83q-18 34-48.5 56T372 592q-39 0-68.5-13T254 537.5Q234 509 223.5 463T213 351v-22q20 51 67 81t114 30q101 0 160.5-55T614 222q0-52-15.5-95t-47-74.5q-31.5-31.5-79-49T361-14zM236 215q0-48 29.5-78.5T348 106q52 0 83 28t31 83q0 51-27 81t-85 30q-49 0-81.5-29.5T236 215z" glyph-name="six.OP" horiz-adv-x="662"/><glyph d="M336-14q-71 0-126.5 21.5T115 73q-39 44-59.5 112.5T35 347q0 183 76 275t228 92q87 0 151-28.5t95-88.5l-99-83q-18 34-50 56t-88 22q-39 0-69-13t-50.5-41.5Q208 509 197.5 463T187 351v-22q21 51 68 81t114 30q51 0 92-14t70-41.5q29-27.5 44.5-68T591 222q0-52-15.5-95T528 52.5q-32-31.5-80-49T336-14zM209 215q0-48 31-78.5t85-30.5q53 0 84.5 28t31.5 83q0 51-27.5 81T327 328q-51 0-84.5-29.5T209 215z" glyph-name="six.OT" horiz-adv-x="625"/><glyph d="M31 0zm192-212q-93 0-142.5 51.5T31 2q0 106 46.5 162T224 220q54 0 94.5-18t59.5-54l-69-59q-9 17-26.5 30.5T232 133q-45 0-67.5-28.5T143 7V2q13 24 39.5 40T247 58q62 0 98.5-33T382-72q0-61-39-100.5T223-212zM155-73q0-23 15-38t44-15q26 0 42.5 13.5T273-73q0 23-14 37t-44 14q-26 0-43-13t-17-38z" glyph-name="six.inf" horiz-adv-x="416"/><glyph glyph-name="sixperemspace" horiz-adv-x="167"/><glyph d="M555 700L175 0H3l379 700z" glyph-name="slash" horiz-adv-x="558" unicode="/"/><glyph glyph-name="space" horiz-adv-x="235"/><glyph d="M31 0v125h32q27 0 36 23t7 71l-3 69H31v101h69l-3 92q-2 66 18 111t55 72q35 27 81.5 38.5T349 714q86 0 140-31.5T581 578l-109-76q-20 39-46.5 61T355 585q-55 0-79-29.5T254 466l3-77h160V288H263l1-72q1-23-1.5-49T249 124h147q42 0 74.5 14t61.5 45l71-96q-41-51-90.5-69T395 0z" glyph-name="sterling" horiz-adv-x="622" unicode="£"/><glyph d="M18 497h76v141h154V497h133V382H248V181q0-44 18.5-61.5T318 102q34 0 61 13l21-100q-54-29-123-29-39 0-72 9t-58 30.5q-25 21.5-39 56T94 167v215H18z" glyph-name="t" horiz-adv-x="411" unicode="t"/><glyph d="M381 497V382H248v-65h133v-84H248v-56q0-42 19-58.5t51-16.5q34 0 61 13l21-100q-54-29-123-29-39 0-72 9t-58 30.5q-25 21.5-39 56T94 167v66H18v84h76v65H18v115h76v141h154V497z" glyph-name="tbar" horiz-adv-x="407" unicode="ŧ"/><glyph d="M400 555h-97l7 195h123zM18 497h76v141h154V497h133V382H248V181q0-44 18.5-61.5T318 102q34 0 61 13l21-100q-54-29-123-29-39 0-72 9t-58 30.5q-25 21.5-39 56T94 167v215H18z" glyph-name="tcaron" horiz-adv-x="411" unicode="ť"/><glyph d="M405-142q0-28-11.5-48.5t-30.5-34q-19-13.5-44-20t-53-6.5q-45 0-82 17t-59 52l54 55q15-23 33.5-35.5T260-175q21 0 35.5 8.5T310-139q0 17-14 27t-39 10q-6 0-11.5-.5T234-104l-23 15 25 78q-31 4-57 16t-45 33.5q-19 21.5-29.5 53T94 167v215H18v115h76v141h154V497h133V382H248V181q0-44 18.5-61.5T318 102q34 0 61 13l21-100q-39-21-84-27l-14-38h1q20-2 38.5-8T374-75.5q14-11.5 22.5-28T405-142z" glyph-name="tcedilla" horiz-adv-x="411" unicode="ţ"/><glyph glyph-name="thinspace" horiz-adv-x="200"/><glyph d="M224 246q0-75 30-109.5t77-34.5q108 0 108 145 0 78-27.5 111.5T333 392q-48 0-78.5-34T224 246zm3 454V429q25 42 67.5 61.5T388 510q99 0 151-65t52-190q0-62-14-111.5T535 59q-28-35-70.5-54T366-14q-94 0-139 62v-234H69v886z" glyph-name="thorn" horiz-adv-x="634" unicode="þ"/><glyph d="M312-14q-93 0-159 31.5T45 122l109 75q27-48 62-68t86-20q58 0 91.5 24t33.5 75q0 43-27.5 65.5T312 296h-80v118h80q47 0 73 22t26 63q0 46-29 67.5T299 588q-49 0-78-20t-54-64L59 569q40 78 102.5 111.5T317 714q120 0 184-51t64-145q0-54-24-92.5T474 362q50-21 78-59t28-100q0-48-17.5-88t-51-68.5Q478 18 428 2T312-14z" glyph-name="three" horiz-adv-x="625" unicode="3"/><glyph d="M298-14q-94 0-161.5 31.5T26 122l114 77q28-48 63.5-68t87.5-20q58 0 90.5 23.5T414 208q0 43-27.5 65.5T298 296h-82v118h81q48 0 74.5 22t26.5 63q0 45-29 66t-83 21q-50 0-79.5-20T152 501L40 569q42 78 105.5 111.5T303 714q123 0 188.5-51T557 518q0-54-24.5-92.5T464 362q51-21 79-59t28-100q0-48-17.5-88t-52-68.5Q467 18 416 2T298-14z" glyph-name="three.LP" horiz-adv-x="626"/><glyph d="M285-115q-91 0-155 31.5T24 22l110 74q26-48 59-68.5T275 7q58 0 91 24.5t33 75.5q0 44-27 66.5T286 196h-79v118h78q46 0 71.5 21.5T382 399q0 45-28.5 67.5T273 489q-47 0-74.5-20.5T148 404L38 469q40 78 100.5 111.5T290 614q121 0 184.5-51T538 418q0-54-24-92.5T447 262q50-21 78-59t28-100q0-49-17-89t-51-68.5Q451-83 401-99t-116-16z" glyph-name="three.OP" horiz-adv-x="603"/><glyph d="M306-114q-92 0-158 31.5T40 22l109 75q26-48 61-68t86-20q59 0 92 24t33 75q0 43-27 65.5T307 196h-81v118h80q48 0 73.5 22t25.5 63q0 46-29 67.5T294 488q-49 0-78-20t-54-64L53 469q41 78 103.5 111.5T311 614q121 0 185-51t64-145q0-54-24-92.5T468 262q51-21 78.5-59T574 103q0-48-17-88t-51-68.5Q472-82 422-98t-116-16z" glyph-name="three.OT" horiz-adv-x="625"/><glyph d="M16 0zm168-213q-57 0-99.5 19T16-130l80 53q16-27 35-37t46-10q29 0 46 11t17 34q0 42-62 42h-43v81h43q52 0 52 43 0 41-56 41-26 0-41.5-10.5T103 83l-80 46q26 50 66 70.5t97 20.5q78 0 118.5-31.5T345 100q0-31-14.5-54T290 8q29-13 45.5-34.5T352-84q0-59-43.5-94T184-213z" glyph-name="three.inf" horiz-adv-x="384"/><glyph glyph-name="threeperemspace" horiz-adv-x="333"/><glyph d="M645 328V205H50v123z" glyph-name="threequarteremdash" horiz-adv-x="694"/><glyph d="M16 0zm168 280q-57 0-99.5 19T16 363l80 53q16-27 35-37t46-10q29 0 46 11t17 34q0 42-62 42h-43v81h43q52 0 52 43 0 41-56 41-26 0-41.5-10.5T103 576l-80 46q26 50 66 70.5t97 20.5q78 0 118.5-31.5T345 593q0-31-14.5-54T290 501q29-13 45.5-34.5T352 409q0-59-43.5-94T184 280zm552 420L390 0H253l348 700zM598 81v76l122 252h113L715 174h111v136h108V174h47V81h-47V0H826v81z" glyph-name="threequarters" horiz-adv-x="1000" unicode="¾"/><glyph d="M16 281zm168 0q-57 0-99.5 19T16 364l80 53q16-27 35-37t46-10q29 0 46 11t17 34q0 42-62 42h-43v81h43q52 0 52 43 0 41-56 41-26 0-41.5-10.5T103 577l-80 46q26 50 66 70.5t97 20.5q78 0 118.5-31.5T345 594q0-31-14.5-54T290 502q29-13 45.5-34.5T352 410q0-59-43.5-94T184 281z" glyph-name="threesuperior" horiz-adv-x="384" unicode="³"/><glyph d="M393 700h95q3-35-6-58.5T458 604q-15-14-34-20t-38-6q-23 0-42 5.5T308 595q-17 6-32 11.5t-29 5.5q-17 0-22.5-10.5T219 578h-95q-2 35 6.5 58.5t23.5 38q15 14.5 34 20.5t38 6q23 0 42-5.5t36-12q17-6.5 32-12t29-5.5q18 0 23 10t5 24z" glyph-name="tilde" horiz-adv-x="600" unicode="˜"/><glyph d="M16 700h278v-76h-95V406h-86v218H16zm309-294v294h97l88-206 92 206h92V406h-81l1 155-69-155h-73l-69 155 2-155z" glyph-name="trademark" horiz-adv-x="719" unicode="™"/><glyph d="M51 0v119l228 207q54 49 84.5 87t30.5 83q0 47-28 67t-76 20q-58 0-91.5-24.5T139 483L33 560q44 84 111.5 119T307 714q53 0 98-11t77.5-35q32.5-24 51-61.5T552 516q0-36-9.5-69T514 382q-19-32-48.5-65.5T396 246L270 129l310 4V0z" glyph-name="two" horiz-adv-x="625" unicode="2"/><glyph d="M42 0v119l232 207q54 49 85 87t31 83q0 47-28.5 67T285 583q-29 0-51.5-6T193 558.5Q175 546 160 527t-28-44L24 560q44 84 112.5 119T303 714q54 0 100-11t79-35q33-24 52-61.5t19-90.5q0-36-9.5-69T514 382q-20-32-50-65.5T393 246L267 129l315 4V0z" glyph-name="two.LP" horiz-adv-x="617"/><glyph d="M43 0l-1 102 197 176q48 43 74 75.5t26 70.5q0 35-22.5 50T259 489q-43 0-69.5-20.5T140 404L32 472q38 76 97 109t145 33q48 0 89-9.5t71-29.5q30-20 47-52t17-77q0-32-9.5-60.5t-28-57Q442 300 415 270.5T352 208l-101-95 260 5V0z" glyph-name="two.OP" horiz-adv-x="549"/><glyph d="M71 0l-1 109 207 167q54 43 84.5 74.5T392 422q0 35-25.5 50.5T300 488q-48 0-77-20.5T172 401L63 470q41 78 104 111t152 33q52 0 95-9t74-30q31-21 48.5-53.5T554 443q0-33-9-62t-29-58.5Q496 293 463.5 262T384 195l-103-79 292 4V0z" glyph-name="two.OT" horiz-adv-x="625"/><glyph d="M12 0zm15-200v79L165-3q29 25 44.5 45T225 85q0 24-15 33t-38 9q-32 0-49.5-13T89 74l-77 54q29 51 71.5 71.5T186 220q32 0 60.5-6t50-20.5q21.5-14.5 34-37.5t12.5-56q0-44-23.5-80T252-55l-60-54 166 4v-95z" glyph-name="two.inf" horiz-adv-x="384"/><glyph d="M12 294zm15 0v79l138 118q29 25 44.5 45t15.5 43q0 24-15 33t-38 9q-32 0-49.5-13T89 568l-77 54q29 51 71.5 71.5T186 714q32 0 60.5-6t50-20.5q21.5-14.5 34-37.5t12.5-56q0-44-23.5-80T252 439l-60-54 166 4v-95z" glyph-name="twosuperior" horiz-adv-x="384" unicode="²"/><glyph d="M443 0l-12 84q-28-50-74.5-74T255-14Q205-14 168.5.5T109 41q-23 26-34 61.5T64 181v316h158V224q0-109 88-109 45 0 74.5 32.5T415 243v254h157V0z" glyph-name="u" horiz-adv-x="642" unicode="u"/><glyph d="M64 0zm433 698L368 571H246v5l81 128h170zM443 0l-12 84q-28-50-74.5-74T255-14Q205-14 168.5.5T109 41q-23 26-34 61.5T64 181v316h158V224q0-109 88-109 45 0 74.5 32.5T415 243v254h157V0z" glyph-name="uacute" horiz-adv-x="643" unicode="ú"/><glyph d="M64 0zm379 0l-12 84q-28-50-74.5-74T255-14Q205-14 168.5.5T109 41q-23 26-34 61.5T64 181v316h158V224q0-109 88-109 45 0 74.5 32.5T415 243v254h157V0zm-51 704h97q0-40-11.5-67T444 594q-22-16-54-23t-72-7q-41 0-72.5 7T192 594q-22 16-33.5 43T147 704h97q0-36 18-49t56-13q38 0 56 13t18 49z" glyph-name="ubreve" horiz-adv-x="643" unicode="ŭ"/><glyph d="M64 0zm251 629l-61-58H129v4l123 129h131l125-129v-4H376zM443 0l-12 84q-28-50-74.5-74T255-14Q205-14 168.5.5T109 41q-23 26-34 61.5T64 181v316h158V224q0-109 88-109 45 0 74.5 32.5T415 243v254h157V0z" glyph-name="ucircumflex" horiz-adv-x="643" unicode="û"/><glyph d="M64 0zm276 645q0 38 22 56t62 18q40 0 61.5-18t21.5-56q0-38-21.5-56.5T424 570q-40 0-62 18.5T340 645zm-210 0q0 38 22 56t61 18q40 0 61.5-18t21.5-56q0-38-21.5-56.5T213 570q-39 0-61 18.5T130 645zM443 0l-12 84q-28-50-74.5-74T255-14Q205-14 168.5.5T109 41q-23 26-34 61.5T64 181v316h158V224q0-109 88-109 45 0 74.5 32.5T415 243v254h157V0z" glyph-name="udieresis" horiz-adv-x="643" unicode="ü"/><glyph d="M64 0zm379 0l-12 84q-28-50-74.5-74T255-14Q205-14 168.5.5T109 41q-23 26-34 61.5T64 181v316h158V224q0-109 88-109 45 0 74.5 32.5T415 243v254h157V0zM267 571L138 698v6h174l79-128v-5z" glyph-name="ugrave" horiz-adv-x="643" unicode="ù"/><glyph d="M64 0zm379 0l-12 84q-28-50-74.5-74T255-14Q205-14 168.5.5T109 41q-23 26-34 61.5T64 181v316h158V224q0-109 88-109 45 0 74.5 32.5T415 243v254h157V0zm137 699L450 571H335v5l79 128h166zm-204-1L264 571H157v5l68 128h151z" glyph-name="uhungarumlaut" horiz-adv-x="643" unicode="ű"/><glyph d="M64 0zm379 0l-12 84q-28-50-74.5-74T255-14Q205-14 168.5.5T109 41q-23 26-34 61.5T64 181v316h158V224q0-109 88-109 45 0 74.5 32.5T415 243v254h157V0zm19 677v-87H173v87z" glyph-name="umacron" horiz-adv-x="643" unicode="ū"/><glyph d="M485 0v-119H-5V0z" glyph-name="underscore" horiz-adv-x="480" unicode="_"/><glyph glyph-name="uni00A0" horiz-adv-x="176"/><glyph d="M364 328V205H51v123z" glyph-name="uni00AD" horiz-adv-x="411" unicode="­"/><glyph d="M14 0zm243-333l-28 58q32 8 53 27.5t28 46.5h-2q-38 0-60.5 18T225-130q0 38 22 56.5T309-55q41 0 64-24t23-75q0-34-10-64t-28-53.5Q340-295 314.5-311T257-333zM14 700h592V562H392V0H228v562H14z" glyph-name="uni021A" horiz-adv-x="620" unicode="Ț"/><glyph d="M18 0zm203-333l-28 58q32 8 53 27.5t28 46.5h-2q-38 0-60.5 18T189-130q0 38 22 56.5T273-55q41 0 64-24t23-75q0-34-10-64t-28-53.5Q304-295 278.5-311T221-333zM18 497h76v141h154V497h133V382H248V181q0-44 18.5-61.5T318 102q34 0 61 13l21-100q-54-29-123-29-39 0-72 9t-58 30.5q-25 21.5-39 56T94 167v215H18z" glyph-name="uni021B" horiz-adv-x="407" unicode="ț"/><glyph d="M1037 328V205H50v123z" glyph-name="uni2015" horiz-adv-x="1086" unicode="―"/><glyph d="M32 281zm0 216q0 110 45 164t144 54q100 0 145-54t45-164q0-109-45-162.5T221 281q-99 0-144 53.5T32 497zm264 0q0 73-19.5 100.5T221 625q-36 0-55.5-27.5T146 498q0-73 19.5-100.5T221 370q36 0 55.5 27.5T296 497z" glyph-name="uni2070" horiz-adv-x="445" unicode="⁰"/><glyph d="M22 294zm0 81v76l122 252h113L139 468h111v136h108V468h47v-93h-47v-81H250v81z" glyph-name="uni2074" horiz-adv-x="424" unicode="⁴"/><glyph d="M11 282zm132 333l-8-67q33 11 71 11 72 0 111-33t39-99q0-69-44.5-107T181 282q-54 0-98.5 17T11 356q0 1 12.5 9.5t26.5 19L76 404l13 9q30-43 85-43 32 0 49.5 15t17.5 41q0 29-18.5 42T175 481q-42 0-68-25l-74 34 18 212h288v-88z" glyph-name="uni2075" horiz-adv-x="376" unicode="⁵"/><glyph d="M31 282zm192 0q-93 0-142.5 51.5T31 496q0 106 46.5 162T224 714q54 0 94.5-18t59.5-54l-69-59q-9 17-26.5 30.5T232 627q-45 0-67.5-28.5T143 501v-5q13 24 39.5 40t64.5 16q62 0 98.5-33t36.5-97q0-61-39-100.5T223 282zm-68 139q0-23 15-38t44-15q26 0 42.5 13.5T273 421q0 23-14 37t-44 14q-26 0-43-13t-17-38z" glyph-name="uni2076" horiz-adv-x="416" unicode="⁶"/><glyph d="M16 294zm196 0H85q0 98 36 179t93 135l-198-3v97h320v-76q-32-35-55.5-70.5t-38.5-76q-15-40.5-22.5-86T212 294z" glyph-name="uni2077" horiz-adv-x="342" unicode="⁷"/><glyph d="M31 282zm172 0q-84 0-128 31t-44 94q0 39 17.5 63.5T98 507q-23 14-37.5 36T46 595q0 61 40 90t117 29q78 0 118-29t40-90q0-30-14.5-52T308 507q67-24 67-100 0-125-172-125zm55 308q0 20-14.5 31T204 632q-26 0-40.5-11T149 590q0-22 14-33.5t40-11.5q26 0 40.5 11.5T258 590zm5-181q0 23-15.5 35.5T205 457q-29 0-45.5-12.5T143 409q0-23 16-35.5t44-12.5q29 0 44.5 12.5T263 409z" glyph-name="uni2078" horiz-adv-x="410" unicode="⁸"/><glyph d="M27 282zm227 290q0 26-16 40t-44 14q-26 0-41.5-13.5T137 573q0-24 13.5-39t43.5-15q25 0 42.5 13.5T254 572zm-70-290q-50 0-93.5 15.5T27 346l68 62q11-19 32.5-29t50.5-10q52 0 71.5 34t17.5 92q-12-25-39-40.5T163 439q-61 0-98.5 34T27 571q0 63 39 103t124 40q89 0 139-51.5T379 500q0-106-47-162t-148-56z" glyph-name="uni2079" horiz-adv-x="414" unicode="⁹"/><glyph d="M28 356zm172 0h-85v88H28v70h87v89h85v-89h87v-70h-87z" glyph-name="uni207A" horiz-adv-x="315" unicode="⁺"/><glyph d="M28 444zm259 70v-70H28v70z" glyph-name="uni207B" horiz-adv-x="315" unicode="⁻"/><glyph d="M28 393zm259 169v-72H28v72zm0-97v-72H28v72z" glyph-name="uni207C" horiz-adv-x="315" unicode="⁼"/><glyph d="M24 205zm189 87l-9-87q-93 8-136.5 73T24 464q0 119 43 183.5T201 720l12-86q-50-6-75.5-43T112 464q0-46 6.5-77.5t19-51.5q12.5-20 31.5-30t44-13z" glyph-name="uni207D" horiz-adv-x="233" unicode="⁽"/><glyph d="M18 205zm10 0l-10 87q25 3 44 13t32 30q13 20 19.5 51.5T120 464q0 90-26 127t-76 43l13 86q91-8 134-72.5T208 464q0-121-43.5-186T28 205z" glyph-name="uni207E" horiz-adv-x="233" unicode="⁾"/><glyph d="M32 203q0 110 45 164t144 54q100 0 145-54t45-164q0-109-45-162.5T221-13q-99 0-144 53.5T32 203zm264 0q0 73-19.5 100.5T221 331q-36 0-55.5-27.5T146 204q0-73 19.5-100.5T221 76q36 0 55.5 27.5T296 203z" glyph-name="uni2080" horiz-adv-x="445" unicode="₀"/><glyph d="M210 0H94v282l-44-26-43 87 127 70h76z" glyph-name="uni2081" horiz-adv-x="264" unicode="₁"/><glyph d="M27 0v79l138 118q29 25 44.5 45t15.5 43q0 24-15 33t-38 9q-32 0-49.5-13T89 274l-77 54q29 51 71.5 71.5T186 420q32 0 60.5-6t50-20.5q21.5-14.5 34-37.5t12.5-56q0-44-23.5-80T252 145l-60-54 166 4V0z" glyph-name="uni2082" horiz-adv-x="384" unicode="₂"/><glyph d="M184-13q-57 0-99.5 19T16 70l80 53q16-27 35-37t46-10q29 0 46 11t17 34q0 42-62 42h-43v81h43q52 0 52 43 0 41-56 41-26 0-41.5-10.5T103 283l-80 46q26 50 66 70.5t97 20.5q78 0 118.5-31.5T345 300q0-31-14.5-54T290 208q29-13 45.5-34.5T352 116q0-59-43.5-94T184-13z" glyph-name="uni2083" horiz-adv-x="384" unicode="₃"/><glyph d="M22 81v76l122 252h113L139 174h111v136h108V174h47V81h-47V0H250v81z" glyph-name="uni2084" horiz-adv-x="424" unicode="₄"/><glyph d="M143 321l-8-67q33 11 71 11 72 0 111-33t39-99q0-69-44.5-107T181-12q-54 0-98.5 17T11 62q0 1 12.5 9.5t26.5 19L76 110l13 9q30-43 85-43 32 0 49.5 15t17.5 41q0 29-18.5 42T175 187q-42 0-68-25l-74 34 18 212h288v-88z" glyph-name="uni2085" horiz-adv-x="376" unicode="₅"/><glyph d="M223-12q-93 0-142.5 51.5T31 202q0 106 46.5 162T224 420q54 0 94.5-18t59.5-54l-69-59q-9 17-26.5 30.5T232 333q-45 0-67.5-28.5T143 207v-5q13 24 39.5 40t64.5 16q62 0 98.5-33t36.5-97q0-61-39-100.5T223-12zm-68 139q0-23 15-38t44-15q26 0 42.5 13.5T273 127q0 23-14 37t-44 14q-26 0-43-13t-17-38z" glyph-name="uni2086" horiz-adv-x="416" unicode="₆"/><glyph d="M212 0H85q0 98 36 179t93 135l-198-3v97h320v-76q-32-35-55.5-70.5t-38.5-76q-15-40.5-22.5-86T212 0z" glyph-name="uni2087" horiz-adv-x="342" unicode="₇"/><glyph d="M203-12q-84 0-128 31t-44 94q0 39 17.5 63.5T98 213q-23 14-37.5 36T46 301q0 61 40 90t117 29q78 0 118-29t40-90q0-30-14.5-52T308 213q67-24 67-100 0-125-172-125zm55 308q0 20-14.5 31T204 338q-26 0-40.5-11T149 296q0-22 14-33.5t40-11.5q26 0 40.5 11.5T258 296zm5-181q0 23-15.5 35.5T205 163q-29 0-45.5-12.5T143 115q0-23 16-35.5T203 67q29 0 44.5 12.5T263 115z" glyph-name="uni2088" horiz-adv-x="410" unicode="₈"/><glyph d="M254 278q0 26-16 40t-44 14q-26 0-41.5-13.5T137 279q0-24 13.5-39t43.5-15q25 0 42.5 13.5T254 278zM184-12q-50 0-93.5 15.5T27 52l68 62q11-19 32.5-29T178 75q52 0 71.5 34t17.5 92q-12-25-39-40.5T163 145q-61 0-98.5 34T27 277q0 63 39 103t124 40q89 0 139-51.5T379 206q0-106-47-162T184-12z" glyph-name="uni2089" horiz-adv-x="414" unicode="₉"/><glyph d="M200 58h-85v88H28v70h87v89h85v-89h87v-70h-87z" glyph-name="uni208A" horiz-adv-x="315" unicode="₊"/><glyph d="M287 216v-70H28v70z" glyph-name="uni208B" horiz-adv-x="315" unicode="₋"/><glyph d="M287 264v-72H28v72zm0-97V95H28v72z" glyph-name="uni208C" horiz-adv-x="315" unicode="₌"/><glyph d="M213-6l-9-87q-93 8-136.5 73T24 166q0 119 43 183.5T201 422l12-86q-50-6-75.5-43T112 166q0-46 6.5-77.5t19-51.5Q150 17 169 7t44-13z" glyph-name="uni208D" horiz-adv-x="232" unicode="₍"/><glyph d="M28-93L18-6Q43-3 62 7t32 30q13 20 19.5 51.5T120 166q0 90-26 127t-76 43l13 86q91-8 134-72.5T208 166q0-121-43.5-186T28-93z" glyph-name="uni208E" horiz-adv-x="232" unicode="₎"/><glyph d="M7 0zm693-13q-57 0-99.5 19T532 70l80 53q16-27 35-37t46-10q29 0 46 11t17 34q0 42-62 42h-43v81h43q52 0 52 43 0 41-56 41-26 0-41.5-10.5T619 283l-80 46q26 50 66 70.5t97 20.5q78 0 118.5-31.5T861 300q0-31-14.5-54T806 208q29-13 45.5-34.5T868 116q0-59-43.5-94T700-13zM210 293H94v282l-44-26-43 87 127 70h76zm425 407L289 0H152l348 700z" glyph-name="uni2153" horiz-adv-x="900" unicode="⅓"/><glyph d="M12 0zm810-13q-57 0-99.5 19T654 70l80 53q16-27 35-37t46-10q29 0 46 11t17 34q0 42-62 42h-43v81h43q52 0 52 43 0 41-56 41-26 0-41.5-10.5T741 283l-80 46q26 50 66 70.5t97 20.5q78 0 118.5-31.5T983 300q0-31-14.5-54T928 208q29-13 45.5-34.5T990 116q0-59-43.5-94T822-13zM27 293v79l138 118q29 25 44.5 45t15.5 43q0 24-15 33t-38 9q-32 0-49.5-13T89 567l-77 54q29 51 71.5 71.5T186 713q32 0 60.5-6t50-20.5q21.5-14.5 34-37.5t12.5-56q0-44-23.5-80T252 438l-60-54 166 4v-95zm730 407L411 0H274l348 700z" glyph-name="uni2154" horiz-adv-x="1022" unicode="⅔"/><glyph d="M7 0zm203 293H94v282l-44-26-43 87 127 70h76zm459 28l-8-67q33 11 71 11 72 0 111-33t39-99q0-69-44.5-107T707-12q-54 0-98.5 17T537 62q0 1 12.5 9.5t26.5 19l26 19.5 13 9q30-43 85-43 32 0 49.5 15t17.5 41q0 29-18.5 42T701 187q-42 0-68-25l-74 34 18 212h288v-88zm-34 379L289 0H152l348 700z" glyph-name="uni2155" horiz-adv-x="902" unicode="⅕"/><glyph d="M12 0zm15 293v79l138 118q29 25 44.5 45t15.5 43q0 24-15 33t-38 9q-32 0-49.5-13T89 567l-77 54q29 51 71.5 71.5T186 713q32 0 60.5-6t50-20.5q21.5-14.5 34-37.5t12.5-56q0-44-23.5-80T252 438l-60-54 166 4v-95zm762 28l-8-67q33 11 71 11 72 0 111-33t39-99q0-69-44.5-107T827-12q-54 0-98.5 17T657 62q0 1 12.5 9.5t26.5 19l26 19.5 13 9q30-43 85-43 32 0 49.5 15t17.5 41q0 29-18.5 42T821 187q-42 0-68-25l-74 34 18 212h288v-88zm-33 379L410 0H273l348 700z" glyph-name="uni2156" horiz-adv-x="1022" unicode="⅖"/><glyph d="M16 0zm168 280q-57 0-99.5 19T16 363l80 53q16-27 35-37t46-10q29 0 46 11t17 34q0 42-62 42h-43v81h43q52 0 52 43 0 41-56 41-26 0-41.5-10.5T103 576l-80 46q26 50 66 70.5t97 20.5q78 0 118.5-31.5T345 593q0-31-14.5-54T290 501q29-13 45.5-34.5T352 409q0-59-43.5-94T184 280zm586 41l-8-67q33 11 71 11 72 0 111-33t39-99q0-69-44.5-107T808-12q-54 0-98.5 17T638 62q0 1 12.5 9.5t26.5 19l26 19.5 13 9q30-43 85-43 32 0 49.5 15t17.5 41q0 29-18.5 42T802 187q-42 0-68-25l-74 34 18 212h288v-88zm-34 379L390 0H253l348 700z" glyph-name="uni2157" horiz-adv-x="1003" unicode="⅗"/><glyph d="M22 0zm791 321l-8-67q33 11 71 11 72 0 111-33t39-99q0-69-44.5-107T851-12q-54 0-98.5 17T681 62q0 1 12.5 9.5t26.5 19l26 19.5 13 9q30-43 85-43 32 0 49.5 15t17.5 41q0 29-18.5 42T845 187q-42 0-68-25l-74 34 18 212h288v-88zm-33 379L434 0H297l348 700zM22 374v76l122 252h113L139 467h111v136h108V467h47v-93h-47v-81H250v81z" glyph-name="uni2158" horiz-adv-x="1047" unicode="⅘"/><glyph d="M7 0zm203 293H94v282l-44-26-43 87 127 70h76zM726-12q-93 0-142.5 51.5T534 202q0 106 46.5 162T727 420q54 0 94.5-18t59.5-54l-69-59q-9 17-26.5 30.5T735 333q-45 0-67.5-28.5T646 207v-5q13 24 39.5 40t64.5 16q62 0 98.5-33t36.5-97q0-61-39-100.5T726-12zm-68 139q0-23 15-38t44-15q26 0 42.5 13.5T776 127q0 23-14 37t-44 14q-26 0-43-13t-17-38zm-23 573L289 0H152l348 700z" glyph-name="uni2159" horiz-adv-x="919" unicode="⅙"/><glyph d="M11 0zm132 614l-8-67q33 11 71 11 72 0 111-33t39-99q0-69-44.5-107T181 281q-54 0-98.5 17T11 355q0 1 12.5 9.5t26.5 19L76 403l13 9q30-43 85-43 32 0 49.5 15t17.5 41q0 29-18.5 42T175 480q-42 0-68-25l-74 34 18 212h288v-88zM828-12q-93 0-142.5 51.5T636 202q0 106 46.5 162T829 420q54 0 94.5-18t59.5-54l-69-59q-9 17-26.5 30.5T837 333q-45 0-67.5-28.5T748 207v-5q13 24 39.5 40t64.5 16q62 0 98.5-33t36.5-97q0-61-39-100.5T828-12zm-68 139q0-23 15-38t44-15q26 0 42.5 13.5T878 127q0 23-14 37t-44 14q-26 0-43-13t-17-38zm-24 573L390 0H253l348 700z" glyph-name="uni215A" horiz-adv-x="1020" unicode="⅚"/><glyph d="M7 0zm203 293H94v282l-44-26-43 87 127 70h76zM713-12q-84 0-128 31t-44 94q0 39 17.5 63.5T608 213q-23 14-37.5 36T556 301q0 61 40 90t117 29q78 0 118-29t40-90q0-30-14.5-52T818 213q67-24 67-100 0-125-172-125zm55 308q0 20-14.5 31T714 338q-26 0-40.5-11T659 296q0-22 14-33.5t40-11.5q26 0 40.5 11.5T768 296zm5-181q0 23-15.5 35.5T715 163q-29 0-45.5-12.5T653 115q0-23 16-35.5T713 67q29 0 44.5 12.5T773 115zM635 700L289 0H152l348 700z" glyph-name="uni215B" horiz-adv-x="918" unicode="⅛"/><glyph d="M16 0zm168 280q-57 0-99.5 19T16 363l80 53q16-27 35-37t46-10q29 0 46 11t17 34q0 42-62 42h-43v81h43q52 0 52 43 0 41-56 41-26 0-41.5-10.5T103 576l-80 46q26 50 66 70.5t97 20.5q78 0 118.5-31.5T345 593q0-31-14.5-54T290 501q29-13 45.5-34.5T352 409q0-59-43.5-94T184 280zM814-12q-84 0-128 31t-44 94q0 39 17.5 63.5T709 213q-23 14-37.5 36T657 301q0 61 40 90t117 29q78 0 118-29t40-90q0-30-14.5-52T919 213q67-24 67-100 0-125-172-125zm55 308q0 20-14.5 31T815 338q-26 0-40.5-11T760 296q0-22 14-33.5t40-11.5q26 0 40.5 11.5T869 296zm5-181q0 23-15.5 35.5T816 163q-29 0-45.5-12.5T754 115q0-23 16-35.5T814 67q29 0 44.5 12.5T874 115zM736 700L390 0H253l348 700z" glyph-name="uni215C" horiz-adv-x="1020" unicode="⅜"/><glyph d="M11 0zm803-12q-84 0-128 31t-44 94q0 39 17.5 63.5T709 213q-23 14-37.5 36T657 301q0 61 40 90t117 29q78 0 118-29t40-90q0-30-14.5-52T919 213q67-24 67-100 0-125-172-125zm55 308q0 20-14.5 31T815 338q-26 0-40.5-11T760 296q0-22 14-33.5t40-11.5q26 0 40.5 11.5T869 296zm5-181q0 23-15.5 35.5T816 163q-29 0-45.5-12.5T754 115q0-23 16-35.5T814 67q29 0 44.5 12.5T874 115zM143 614l-8-67q33 11 71 11 72 0 111-33t39-99q0-69-44.5-107T181 281q-54 0-98.5 17T11 355q0 1 12.5 9.5t26.5 19L76 403l13 9q30-43 85-43 32 0 49.5 15t17.5 41q0 29-18.5 42T175 480q-42 0-68-25l-74 34 18 212h288v-88zm593 86L390 0H253l348 700z" glyph-name="uni215D" horiz-adv-x="1020" unicode="⅝"/><glyph d="M16 0zm721-12q-84 0-128 31t-44 94q0 39 17.5 63.5T632 213q-23 14-37.5 36T580 301q0 61 40 90t117 29q78 0 118-29t40-90q0-30-14.5-52T842 213q67-24 67-100 0-125-172-125zm55 308q0 20-14.5 31T738 338q-26 0-40.5-11T683 296q0-22 14-33.5t40-11.5q26 0 40.5 11.5T792 296zm5-181q0 23-15.5 35.5T739 163q-29 0-45.5-12.5T677 115q0-23 16-35.5T737 67q29 0 44.5 12.5T797 115zM212 293H85q0 98 36 179t93 135l-198-3v97h320v-76q-32-35-55.5-70.5t-38.5-76q-15-40.5-22.5-86T212 293zm448 407L314 0H177l348 700z" glyph-name="uni215E" horiz-adv-x="944" unicode="⅞"/><glyph d="M7 0zm203 293H94v282l-44-26-43 87 127 70h76zm425 407L289 0H152l348 700z" glyph-name="uni215F" horiz-adv-x="831" unicode="⅟"/><glyph d="M516-229q-27 0-53 6t-46.5 20.5q-20.5 14.5-33 38T371-105q0 43 20 73.5T440 18l-10 66q-27-50-73.5-74T255-14Q205-14 168.5.5T109 41q-23 26-34 61.5T64 181v316h158V224q0-109 88-109 45 0 74.5 32.5T415 243v254h157V0q-31 0-51.5-8.5t-33-21Q475-42 469.5-58T464-90q0-29 19-40t45-11q37 0 67 17l22-78q-44-27-101-27z" glyph-name="uogonek" horiz-adv-x="642" unicode="ų"/><glyph d="M64 0zm139 653q0 50 32.5 76.5T318 756q50 0 82-26.5t32-76.5q0-51-32-77.5T317 549q-49 0-81.5 26.5T203 653zm70 0q0-21 12-33.5t32-12.5q20 0 33 12.5t13 33.5q0 21-12.5 33T318 698q-20 0-32.5-12T273 653zM443 0l-12 84q-28-50-74.5-74T255-14Q205-14 168.5.5T109 41q-23 26-34 61.5T64 181v316h158V224q0-109 88-109 45 0 74.5 32.5T415 243v254h157V0z" glyph-name="uring" horiz-adv-x="643" unicode="ů"/><glyph d="M64 0zm379 0l-12 84q-28-50-74.5-74T255-14Q205-14 168.5.5T109 41q-23 26-34 61.5T64 181v316h158V224q0-109 88-109 45 0 74.5 32.5T415 243v254h157V0zm-39 700h95q3-35-6-58.5T469 604q-15-14-34-20t-38-6q-23 0-42 5.5T319 595q-17 6-32 11.5t-29 5.5q-17 0-22.5-10.5T230 578h-95q-2 35 6.5 58.5t23.5 38q15 14.5 34 20.5t38 6q23 0 42-5.5t36-12q17-6.5 32-12t29-5.5q18 0 23 10t5 24z" glyph-name="utilde" horiz-adv-x="643" unicode="ũ"/><glyph d="M7 497h163l116-336 110 336h161L363 0H200z" glyph-name="v" horiz-adv-x="564" unicode="v"/><glyph d="M333 495h126l94-313 85 315h142L625 0H484l-91 319L303 0H163L6 497h147l87-313z" glyph-name="w" horiz-adv-x="786" unicode="w"/><glyph d="M6 0zm564 698L441 571H319v5l81 128h170zM333 495h126l94-313 85 315h142L625 0H484l-91 319L303 0H163L6 497h147l87-313z" glyph-name="wacute" horiz-adv-x="786" unicode="ẃ"/><glyph d="M6 0zm385 629l-61-58H205v4l123 129h131l125-129v-4H452zm-58-134h126l94-313 85 315h142L625 0H484l-91 319L303 0H163L6 497h147l87-313z" glyph-name="wcircumflex" horiz-adv-x="786" unicode="ŵ"/><glyph d="M6 0zm409 645q0 38 22 56t62 18q40 0 61.5-18t21.5-56q0-38-21.5-56.5T499 570q-40 0-62 18.5T415 645zm-210 0q0 38 22 56t61 18q40 0 61.5-18t21.5-56q0-38-21.5-56.5T288 570q-39 0-61 18.5T205 645zm128-150h126l94-313 85 315h142L625 0H484l-91 319L303 0H163L6 497h147l87-313z" glyph-name="wdieresis" horiz-adv-x="786" unicode="ẅ"/><glyph d="M6 0zm327 495h126l94-313 85 315h142L625 0H484l-91 319L303 0H163L6 497h147l87-313zm7 77L211 699v6h174l79-128v-5z" glyph-name="wgrave" horiz-adv-x="786" unicode="ẁ"/><glyph d="M17 497h173l97-152 95 152h162L370 250 556 0H382L275 155 167 0H5l187 253z" glyph-name="x" horiz-adv-x="560" unicode="x"/><glyph d="M188-41l13 39L5 497h163l116-331 112 331h162L327-92q-15-37-35.5-61.5T245-193q-26-15-57-21t-66-6q-32 0-56.5 4.5T15-201L31-88q38-16 72-16 26 0 49 13t36 50z" glyph-name="y" horiz-adv-x="564" unicode="y"/><glyph d="M280-221q-74 0-135.5 24.5T52-112l89 77q23-40 56.5-56.5T274-108q60 0 94 30t34 96v56q-26-36-64.5-53T254 4q-50 0-85.5 14.5t-58.5 41Q87 86 76 122t-11 79v296h155V239q0-106 81-106 45 0 73 32t29 98v234h157V20q0-65-21-110.5T481-165q-37-29-88.5-42.5T280-221z" glyph-name="y.school" horiz-adv-x="630"/><glyph d="M5 0zm183-41l13 39L5 497h163l116-331 112 331h162L327-92q-15-37-35.5-61.5T245-193q-26-15-57-21t-66-6q-32 0-56.5 4.5T15-201L31-88q38-16 72-16 26 0 49 13t36 50zm272 739L331 571H209v5l81 128h170z" glyph-name="yacute" horiz-adv-x="564" unicode="ý"/><glyph d="M52 0zm228-221q-74 0-135.5 24.5T52-112l89 77q23-40 56.5-56.5T274-108q60 0 94 30t34 96v56q-26-36-64.5-53T254 4q-50 0-85.5 14.5t-58.5 41Q87 86 76 122t-11 79v296h155V239q0-106 81-106 45 0 73 32t29 98v234h157V20q0-65-21-110.5T481-165q-37-29-88.5-42.5T280-221zm192 919L343 571H221v5l81 128h170z" glyph-name="yacute.school" horiz-adv-x="630"/><glyph d="M5 0zm183-41l13 39L5 497h163l116-331 112 331h162L327-92q-15-37-35.5-61.5T245-193q-26-15-57-21t-66-6q-32 0-56.5 4.5T15-201L31-88q38-16 72-16 26 0 49 13t36 50zm91 670l-61-58H93v4l123 129h131l125-129v-4H340z" glyph-name="ycircumflex" horiz-adv-x="564" unicode="ŷ"/><glyph d="M52 0zm260 629l-61-58H126v4l123 129h131l125-129v-4H373zm-32-850q-74 0-135.5 24.5T52-112l89 77q23-40 56.5-56.5T274-108q60 0 94 30t34 96v56q-26-36-64.5-53T254 4q-50 0-85.5 14.5t-58.5 41Q87 86 76 122t-11 79v296h155V239q0-106 81-106 45 0 73 32t29 98v234h157V20q0-65-21-110.5T481-165q-37-29-88.5-42.5T280-221z" glyph-name="ycircumflex.school" horiz-adv-x="630"/><glyph d="M5 0zm183-41l13 39L5 497h163l116-331 112 331h162L327-92q-15-37-35.5-61.5T245-193q-26-15-57-21t-66-6q-32 0-56.5 4.5T15-201L31-88q38-16 72-16 26 0 49 13t36 50zm115 686q0 38 22 56t62 18q40 0 61.5-18t21.5-56q0-38-21.5-56.5T387 570q-40 0-62 18.5T303 645zm-210 0q0 38 22 56t61 18q40 0 61.5-18t21.5-56q0-38-21.5-56.5T176 570q-39 0-61 18.5T93 645z" glyph-name="ydieresis" horiz-adv-x="564" unicode="ÿ"/><glyph d="M52 0zm284 645q0 38 22 56t62 18q40 0 61.5-18t21.5-56q0-38-21.5-56.5T420 570q-40 0-62 18.5T336 645zm-210 0q0 38 22 56t61 18q40 0 61.5-18t21.5-56q0-38-21.5-56.5T209 570q-39 0-61 18.5T126 645zm154-866q-74 0-135.5 24.5T52-112l89 77q23-40 56.5-56.5T274-108q60 0 94 30t34 96v56q-26-36-64.5-53T254 4q-50 0-85.5 14.5t-58.5 41Q87 86 76 122t-11 79v296h155V239q0-106 81-106 45 0 73 32t29 98v234h157V20q0-65-21-110.5T481-165q-37-29-88.5-42.5T280-221z" glyph-name="ydieresis.school" horiz-adv-x="630"/><glyph d="M603 290v-81H424V0H259v209H81v81h162l-27 46H81v81h89L8 700h181l157-299 156 299h172L513 417h90v-81H467l-26-46z" glyph-name="yen" horiz-adv-x="682" unicode="¥"/><glyph d="M31 0v92l253 289H36v116h432v-96L217 115h259V0z" glyph-name="z" horiz-adv-x="509" unicode="z"/><glyph d="M31 0zm402 698L304 571H182v5l81 128h170zM31 0v92l253 289H36v116h432v-96L217 115h259V0z" glyph-name="zacute" horiz-adv-x="509" unicode="ź"/><glyph d="M31 0zm227 647l62 57h124v-2L320 571H189L65 702v2h131zM31 0v92l253 289H36v116h432v-96L217 115h259V0z" glyph-name="zcaron" horiz-adv-x="509" unicode="ž"/><glyph d="M31 0zm0 0v92l253 289H36v116h432v-96L217 115h259V0zm136 645q0 38 23 56.5t65 18.5q42 0 64-18.5t22-56.5q0-38-22-56.5T255 570q-42 0-65 18.5T167 645z" glyph-name="zdotaccent" horiz-adv-x="509" unicode="ż"/><glyph d="M25 350q0 189 72 276.5T312 714q143 0 215-87.5T599 350q0-187-74-275.5T312-14Q169-14 97 74T25 350zm424 0q0 67-9 113t-26.5 73.5Q396 564 370.5 576T312 588q-33 0-58.5-12t-43-40Q193 508 184 462.5T175 350q0-68 9-113.5t26.5-73.5q17.5-28 42.5-40t58-12q33 0 59 12t43.5 40q17.5 28 26.5 73.5t9 113.5z" glyph-name="zero" horiz-adv-x="625" unicode="0"/><glyph d="M62 350q0 187 72.5 275.5T366 714q158 0 231-88.5T670 350q0-187-72.5-275.5T366-14q-159 0-231.5 88T62 350zm448 0q0 67-9.5 112.5T473 536q-18 28-45 40t-62 12q-35 0-62-11.5T259 537q-18-28-27.5-73.5T222 350q0-68 9.5-114t27.5-74q18-28 44.5-39.5T365 111q35 0 62 11.5t45.5 39.5q18.5 28 28 74t9.5 114z" glyph-name="zero.LP" horiz-adv-x="732"/><glyph d="M47 300q0 162 71.5 238T324 614q136 0 208-76t72-238q0-161-73.5-237.5T324-14q-134 0-205.5 76T47 300zm403 0q0 54-8 90t-24 58q-16 22-39.5 31.5T324 489q-30 0-53-9t-39-31q-16-22-24-58t-8-90q0-54 8-90.5t24-58.5q16-22 39-31.5t53-9.5q31 0 54.5 9.5t39.5 31q16 21.5 24 58t8 90.5z" glyph-name="zero.OP" horiz-adv-x="650"/><glyph d="M31 300q0 162 73 238t209 76q135 0 208-76.5T594 300q0-161-73.5-237.5T313-14q-136 0-209 76.5T31 300zm414 0q0 54-8.5 90T411 448q-17 22-41.5 31.5T313 489q-32 0-56.5-9T215 449q-17-22-26-58t-9-90q0-54 9-90.5t26-58.5q17-22 41.5-31.5T313 111q32 0 56.5 9.5t41.5 31q17 21.5 25.5 58T445 300z" glyph-name="zero.OT" horiz-adv-x="625"/><glyph d="M32 0zm0 3q0 110 45 164t144 54q100 0 145-54T411 3q0-109-45-162.5T221-213q-99 0-144 53.5T32 3zm264 0q0 73-19.5 100.5T221 131q-36 0-55.5-27.5T146 4q0-73 19.5-100.5T221-124q36 0 55.5 27.5T296 3z" glyph-name="zero.inf" horiz-adv-x="445"/><glyph glyph-name="zerowidthspace" horiz-adv-x="0" unicode="​"/></font>
</defs>
</svg>
